<svg xmlns="http://www.w3.org/2000/svg" width="45.999" height="48.745" viewBox="0 0 45.999 48.745">
  <g id="グループ化_354" data-name="グループ化 354" transform="translate(-320.271 -374.641)">
    <path id="パス_147" data-name="パス 147" d="M495.409,383.82l-2.685,3.656h1.929a.675.675,0,1,1,0,1.349H492.1v.675h2.55a.674.674,0,1,1,0,1.349H492.1V392.6a.674.674,0,1,1-1.349,0v-1.754H488.2a.674.674,0,1,1,0-1.349h2.55v-.675H488.2a.675.675,0,1,1,0-1.349h1.943l-2.685-3.656a.684.684,0,0,1,.148-.944.727.727,0,0,1,.4-.135.684.684,0,0,1,.54.27l2.887,3.926,2.874-3.912a.647.647,0,0,1,.54-.27.637.637,0,0,1,.4.135.668.668,0,0,1,.148.931Zm-3.98-9.179a12.978,12.978,0,1,0,12.978,12.978A12.99,12.99,0,0,0,491.429,374.641Z" transform="translate(-144.608)" fill="#fff"/>
    <path id="パス_148" data-name="パス 148" d="M361.907,724.321a52.64,52.64,0,0,1-5.706,1.542,6.723,6.723,0,0,1-4.678,2.929,10.413,10.413,0,0,1-1.851.155,47.012,47.012,0,0,1-5.706-.309,1.394,1.394,0,0,1-.462-.052,1.148,1.148,0,0,1-1.028-.976,1.051,1.051,0,0,1,1.13-1.13c.155,0,.359.052.514.052a29.883,29.883,0,0,0,6.991.155c3.032-.566,3.907-2.415,3.7-3.957a2.488,2.488,0,0,0-2.622-2.365,47.736,47.736,0,0,1-7.094-.2,48.787,48.787,0,0,0-7.71-.052c-2.261.257-6.886,1.954-10.949,4.678-2,1.337-4.214,2.982-5.552,3.957a1.493,1.493,0,0,0-.309,2.108l5.911,7.657a1.484,1.484,0,0,0,2.108.257l2.158-1.7a1.9,1.9,0,0,1,1.8-.309,48,48,0,0,0,11,2.261c6.122.412,17.791-6.784,21.132-9.1s.924-6.939-2.777-5.6Z" transform="translate(0 -315.705)" fill="#fff"/>
  </g>
</svg>
