<svg xmlns="http://www.w3.org/2000/svg" width="32.875" height="35.561" viewBox="0 0 32.875 35.561">
  <g id="グループ化_378" data-name="グループ化 378" transform="translate(-1018.313 -492.374)">
    <path id="パス_167" data-name="パス 167" d="M1105.9,495.708l-1.373,1.87h.987a.345.345,0,0,1,0,.69h-1.3v.345h1.3a.345.345,0,0,1,0,.69h-1.3v.9a.345.345,0,1,1-.69,0v-.9h-1.3a.345.345,0,1,1,0-.69h1.3v-.345h-1.3a.345.345,0,1,1,0-.69h.994l-1.373-1.87a.35.35,0,0,1,.076-.483.372.372,0,0,1,.207-.069.35.35,0,0,1,.276.138l1.477,2.008,1.47-2a.331.331,0,0,1,.276-.138.326.326,0,0,1,.207.069.342.342,0,0,1,.076.476Zm-2.036-3.334a5.489,5.489,0,1,0,5.489,5.488A5.494,5.494,0,0,0,1103.86,492.374Z" transform="translate(-69.268 0)" fill="#fff"/>
    <g id="グループ化_358" data-name="グループ化 358" transform="translate(1018.313 497.268)">
      <rect id="長方形_1241" data-name="長方形 1241" width="32.875" height="1.373" transform="translate(0 29.293)" fill="#fff"/>
      <path id="パス_168" data-name="パス 168" d="M1031.219,549.047h-2.744a1.376,1.376,0,0,0-1.373,1.373v24.7h4.117Z" transform="translate(-1025.917 -546.303)" fill="#fff"/>
      <path id="パス_169" data-name="パス 169" d="M1224.659,550.421a1.376,1.376,0,0,0-1.373-1.373h-2.744v26.071h4.117Z" transform="translate(-1193.286 -546.304)" fill="#fff"/>
      <path id="パス_170" data-name="パス 170" d="M1085.669,541.039h-4.117v-4.8h4.117Zm0,6.86h-4.117v-4.8h4.117Zm0,6.86h-4.117v-4.8h4.117Zm-6.175-13.721h-4.117v-4.8h4.117Zm0,6.86h-4.117v-4.8h4.117Zm0,6.86h-4.117v-4.8h4.117Zm-6.175-13.721H1069.2v-4.8h4.117Zm0,6.861H1069.2v-4.8h4.117Zm0,6.861H1069.2v-4.8h4.117Zm13.721-26.07h-3.472a5.556,5.556,0,0,1,.042.686,6.175,6.175,0,1,1-12.35,0,5.58,5.58,0,0,1,.042-.686h-3.471V557.5h19.211Z" transform="translate(-1061.156 -528.689)" fill="#fff"/>
    </g>
  </g>
</svg>
