<svg xmlns="http://www.w3.org/2000/svg" width="41.229" height="35.414" viewBox="0 0 41.229 35.414">
  <g id="グループ化_381" data-name="グループ化 381" transform="translate(-299.832 -1217.699)">
    <path id="パス_171" data-name="パス 171" d="M340.991,1225.113l-.951-.751a.234.234,0,0,0-.3.051l-4.258,5.208a2.01,2.01,0,0,0-.751-.151,2.279,2.279,0,0,0-1,.25l-5.561-9.116a2.867,2.867,0,0,0,.1-.652,2.254,2.254,0,0,0-4.508,0c0,.2.051.35.051.552l-6.862,10.218a2.027,2.027,0,0,0-.951-.2,2.424,2.424,0,0,0-1.352.45l-5.51-5.76a1.364,1.364,0,0,0,.051-.45,2.254,2.254,0,1,0-4.508,0,1.827,1.827,0,0,0,.151.751l-4.962,6.461a.236.236,0,0,0,.051.3l.951.751a.236.236,0,0,0,.3-.051l4.659-6.21a2.325,2.325,0,0,0,1.052.25,2.239,2.239,0,0,0,1.3-.4l5.561,5.811c0,.1-.051.25-.051.351a2.254,2.254,0,0,0,4.508,0,1.983,1.983,0,0,0-.2-.9l6.711-10.018a2.418,2.418,0,0,0,1.2.35,2.128,2.128,0,0,0,1.1-.3l5.561,9.016a2.088,2.088,0,0,0-.15.8,2.254,2.254,0,1,0,4.508,0,1.849,1.849,0,0,0-.3-1.053l4.309-5.26c.149-.1.149-.2.049-.3Z" transform="translate(0)" fill="#fff"/>
    <path id="パス_172" data-name="パス 172" d="M312.11,1269.384H307a.684.684,0,0,1-.7-.7V1251a.684.684,0,0,1,.7-.7h5.109a.684.684,0,0,1,.7.7l0,17.682a.684.684,0,0,1-.7.7Z" transform="translate(-3.229 -16.271)" fill="#fff"/>
    <path id="パス_173" data-name="パス 173" d="M331.411,1273.127H326.3a.684.684,0,0,1-.7-.7V1258.5a.684.684,0,0,1,.7-.7h5.109a.684.684,0,0,1,.7.7l0,13.926a.717.717,0,0,1-.7.7Z" transform="translate(-12.862 -20.014)" fill="#fff"/>
    <path id="長方形_1242" data-name="長方形 1242" d="M1.4,0H5.111a1.4,1.4,0,0,1,1.4,1.4V21.24a1.4,1.4,0,0,1-1.4,1.4H1.4A1.4,1.4,0,0,1,0,21.24V1.4A1.4,1.4,0,0,1,1.4,0Z" transform="translate(322.908 1230.474)" fill="#fff"/>
    <path id="長方形_1243" data-name="長方形 1243" d="M1.4,0h3.71a1.4,1.4,0,0,1,1.4,1.4V15.181a1.4,1.4,0,0,1-1.4,1.4H1.4A1.4,1.4,0,0,1,0,15.18V1.4A1.4,1.4,0,0,1,1.4,0Z" transform="translate(333.277 1236.534)" fill="#fff"/>
  </g>
</svg>
