<svg xmlns="http://www.w3.org/2000/svg" width="49.124" height="42.908" viewBox="0 0 49.124 42.908">
  <g id="グループ化_357" data-name="グループ化 357" transform="translate(-205.5 -204.5)">
    <path id="パス_160" data-name="パス 160" d="M239.723,244.823H208.137V207.085h31.588l0,18.869,2.638-2.585V206.723a2.252,2.252,0,0,0-2.274-2.223H207.774a2.25,2.25,0,0,0-2.274,2.223v38.461a2.252,2.252,0,0,0,2.274,2.223h32.31a2.25,2.25,0,0,0,2.274-2.223l0-5.634-2.638,2.638Z" fill="#fff"/>
    <path id="パス_161" data-name="パス 161" d="M222.19,223.187h18.3a1.292,1.292,0,1,0,0-2.585h-18.3a1.292,1.292,0,1,0,0,2.585Z" transform="translate(-7.438 -7.778)" fill="#fff"/>
    <path id="パス_162" data-name="パス 162" d="M222.19,238.483h18.3a1.292,1.292,0,1,0,0-2.585h-18.3a1.292,1.292,0,0,0,0,2.585Z" transform="translate(-7.438 -15.166)" fill="#fff"/>
    <path id="パス_163" data-name="パス 163" d="M241.835,252.394a1.281,1.281,0,0,0-1.292-1.292H222.19a1.292,1.292,0,1,0,0,2.585h18.3a1.293,1.293,0,0,0,1.345-1.292Z" transform="translate(-7.438 -22.51)" fill="#fff"/>
    <path id="パス_164" data-name="パス 164" d="M220.9,267.641a1.281,1.281,0,0,0,1.292,1.292h15.045l.57-2.638-15.614,0a1.358,1.358,0,0,0-1.292,1.343Z" transform="translate(-7.438 -29.85)" fill="#fff"/>
    <path id="パス_165" data-name="パス 165" d="M293.962,236.247l-3.1-3.1a.906.906,0,0,0-1.292,0l-2.068,2.068,4.394,4.394,2.068-2.068A.905.905,0,0,0,293.962,236.247Z" transform="translate(-39.609 -13.706)" fill="#fff"/>
    <rect id="長方形_1240" data-name="長方形 1240" width="14.631" height="6.204" transform="translate(236.052 233.369) rotate(-45.011)" fill="#fff"/>
    <path id="パス_166" data-name="パス 166" d="M258.215,269.972l3.98-.931a1.044,1.044,0,0,0,.465-.258l1.189-1.19-4.394-4.394-1.189,1.19a1,1,0,0,0-.258.465l-.931,3.98a.943.943,0,0,0,1.139,1.139Z" transform="translate(-24.902 -28.354)" fill="#fff"/>
  </g>
</svg>
