<svg xmlns="http://www.w3.org/2000/svg" width="40.689" height="44.014" viewBox="0 0 40.689 44.014">
  <g id="グループ化_359" data-name="グループ化 359" transform="translate(-1018.313 -492.374)">
    <path id="パス_167" data-name="パス 167" d="M1107.684,496.5l-1.7,2.315h1.221a.427.427,0,0,1,0,.854h-1.614v.427h1.614a.427.427,0,0,1,0,.854h-1.614v1.11a.427.427,0,1,1-.854,0v-1.11h-1.615a.427.427,0,1,1,0-.854h1.615v-.427h-1.615a.427.427,0,1,1,0-.854h1.23l-1.7-2.315a.433.433,0,0,1,.094-.6.46.46,0,0,1,.256-.085.433.433,0,0,1,.342.171l1.828,2.486,1.819-2.477a.409.409,0,0,1,.342-.171.4.4,0,0,1,.256.085.423.423,0,0,1,.094.589Zm-2.52-4.126a6.793,6.793,0,1,0,6.793,6.793A6.8,6.8,0,0,0,1105.164,492.374Z" transform="translate(-66.703 0)" fill="#fff"/>
    <g id="グループ化_358" data-name="グループ化 358" transform="translate(1018.313 498.432)">
      <rect id="長方形_1241" data-name="長方形 1241" width="40.689" height="1.699" transform="translate(0 36.257)" fill="#fff"/>
      <path id="パス_168" data-name="パス 168" d="M1032.2,549.047h-3.4a1.7,1.7,0,0,0-1.7,1.7v30.57h5.1Z" transform="translate(-1025.636 -545.651)" fill="#fff"/>
      <path id="パス_169" data-name="パス 169" d="M1225.637,550.747a1.7,1.7,0,0,0-1.7-1.7h-3.4v32.269h5.1Z" transform="translate(-1186.807 -545.652)" fill="#fff"/>
      <path id="パス_170" data-name="パス 170" d="M1089.909,543.974h-5.1V538.03h5.1Zm0,8.491h-5.1v-5.944h5.1Zm0,8.491h-5.1v-5.944h5.1Zm-7.643-16.983h-5.1V538.03h5.1Zm0,8.491h-5.1v-5.944h5.1Zm0,8.491h-5.1v-5.944h5.1Zm-7.643-16.983h-5.1v-5.944h5.1Zm0,8.491h-5.1v-5.944h5.1Zm0,8.491h-5.1v-5.944h5.1Zm16.983-32.267h-4.3a6.887,6.887,0,0,1,.052.849,7.643,7.643,0,1,1-15.286,0,6.911,6.911,0,0,1,.052-.849h-4.3v35.665h23.777Z" transform="translate(-1059.57 -528.689)" fill="#fff"/>
    </g>
  </g>
</svg>
