<svg xmlns="http://www.w3.org/2000/svg" width="49.563" height="43.861" viewBox="0 0 49.563 43.861">
  <g id="グループ化_356" data-name="グループ化 356" transform="translate(-251.906 -1003.667)">
    <path id="パス_155" data-name="パス 155" d="M298.762,1042.09l-1.717,1.717-3.593-2.342a1.69,1.69,0,0,0-1.717,0l-3.905,2.5-3.749-2.5a1.564,1.564,0,0,0-1.876,0l-3.746,2.5-3.749-2.5a1.69,1.69,0,0,0-1.717,0l-2.186,1.563,0-33.894a6.243,6.243,0,0,0-.469-2.342h25.3a3.134,3.134,0,0,1,3.124,3.123Zm-36.549-10.309a6.545,6.545,0,0,0,.625-2.342v-20.305a2.344,2.344,0,0,1,4.687,0v22.647Zm-7.183-2.342v-16.556l2.186,1.563a1.652,1.652,0,0,0,2.03-.156l.469-.469V1029.6a2.4,2.4,0,0,1-2.343,2.342,2.545,2.545,0,0,1-2.342-2.5Zm40.608-25.771H265.18a5.533,5.533,0,0,0-5.466,5.466v.156L258,1011.007l-3.593-2.342a1.42,1.42,0,0,0-1.563,0,1.188,1.188,0,0,0-.935,1.25v19.524a5.532,5.532,0,0,0,5.466,5.466,1.41,1.41,0,0,0,.781-.156v.156h9.371v10.934a1.643,1.643,0,0,0,.782,1.407,1.421,1.421,0,0,0,1.563,0l3.749-2.5,3.749,2.5a1.691,1.691,0,0,0,1.717,0l3.749-2.5,3.749,2.5a1.691,1.691,0,0,0,1.717,0l3.749-2.5,3.749,2.5a1.651,1.651,0,0,0,2.029-.156l3.124-3.124a1.419,1.419,0,0,0,.469-1.094v-32.956a5.62,5.62,0,0,0-5.781-6.247Z" fill="#fff"/>
    <path id="パス_156" data-name="パス 156" d="M305.542,1015.57H286.8a1.563,1.563,0,0,0,0,3.127h18.742a1.563,1.563,0,0,0,0-3.127Z" transform="translate(-11.465 -4.094)" fill="#fff"/>
    <path id="パス_157" data-name="パス 157" d="M286.8,1028.215h12.495a1.563,1.563,0,0,0,0-3.127H286.8a1.563,1.563,0,0,0,0,3.127Z" transform="translate(-11.465 -7.369)" fill="#fff"/>
    <path id="パス_158" data-name="パス 158" d="M305.542,1034.617H286.8a1.563,1.563,0,0,0,0,3.127h18.742a1.563,1.563,0,0,0,0-3.127Z" transform="translate(-11.465 -10.646)" fill="#fff"/>
    <path id="パス_159" data-name="パス 159" d="M300.855,1044.145H286.8a1.563,1.563,0,1,0,0,3.126h14.058a1.563,1.563,0,1,0,0-3.126Z" transform="translate(-11.465 -13.924)" fill="#fff"/>
  </g>
</svg>
