<svg xmlns="http://www.w3.org/2000/svg" width="41.146" height="45.122" viewBox="0 0 41.146 45.122">
  <g id="グループ化_361" data-name="グループ化 361" transform="translate(-566.199 -1186.199)">
    <path id="パス_174" data-name="パス 174" d="M591.689,1186.2a9.893,9.893,0,1,0,9.893,9.893A9.909,9.909,0,0,0,591.689,1186.2Z" transform="translate(-7.725)" fill="#fff"/>
    <path id="パス_175" data-name="パス 175" d="M586.487,1237.6l-1.514,1.715.5,2.019-3.584,2.523,1.11-4.593-1.514-1.715a.3.3,0,0,1-.052-.2l.909-2.22c.051-.052.1-.1.152-.1h2.876c.051,0,.152.052.152.1l.958,2.22c.053.152.053.2,0,.252Zm6.612-5.2H574.83a8.627,8.627,0,0,0-8.631,8.631V1249h14.435l.757-3.229,4.341-3.08.605,2.472-5.4,3.837h2.171l3.584-2.523L587.3,1249h2.827v-.809l-.958-1.665a1.282,1.282,0,0,1,0-1.211l.958-1.666v-2.019a1.234,1.234,0,0,1,.605-1.06l1.715-1.009.958-1.666a1.23,1.23,0,0,1,1.061-.605h1.967l1.715-.958a1.292,1.292,0,0,1,1.211,0l1.463.858a8.5,8.5,0,0,0-7.72-4.795Z" transform="translate(0 -22.883)" fill="#fff"/>
    <path id="パス_176" data-name="パス 176" d="M624.134,1249.867v-3.837a3.887,3.887,0,0,1,3.886,3.886Zm2.979,1.161a4.355,4.355,0,0,1-4.138,4.542,4.556,4.556,0,0,1-4.542-4.542,4.387,4.387,0,0,1,4.542-4.138h.1v4.037h4.037Zm4.238-.455-.857-1.463v-1.666a1.129,1.129,0,0,0-.5-.909l-1.414-.806-.857-1.463a1.057,1.057,0,0,0-.909-.5h-1.666l-1.463-.809a.921.921,0,0,0-1.009,0l-1.463.809h-1.665a1.127,1.127,0,0,0-.909.5l-.809,1.414-1.463.858a1.057,1.057,0,0,0-.5.909v1.715l-.809,1.414a.979.979,0,0,0-.152.5.86.86,0,0,0,.152.5l.809,1.414v1.715a1.129,1.129,0,0,0,.5.909l1.463.858.809,1.414a1.058,1.058,0,0,0,.909.5h1.665l1.463.808a.914.914,0,0,0,1.009,0l1.463-.808h1.666a1.131,1.131,0,0,0,.909-.5l.857-1.463,1.414-.808a1.058,1.058,0,0,0,.5-.909V1253.1l.857-1.463A1.294,1.294,0,0,0,631.352,1250.573Z" transform="translate(-24.121 -28.036)" fill="#fff"/>
  </g>
</svg>
