<svg xmlns="http://www.w3.org/2000/svg" width="45.124" height="38.76" viewBox="0 0 45.124 38.76">
  <g id="グループ化_360" data-name="グループ化 360" transform="translate(-299.832 -1217.699)">
    <path id="パス_171" data-name="パス 171" d="M344.879,1225.813l-1.041-.822a.256.256,0,0,0-.33.056l-4.66,5.7a2.2,2.2,0,0,0-.822-.165,2.493,2.493,0,0,0-1.1.274l-6.087-9.977a3.137,3.137,0,0,0,.109-.713,2.467,2.467,0,0,0-4.934,0c0,.218.056.383.056.6l-7.51,11.183a2.218,2.218,0,0,0-1.041-.219,2.653,2.653,0,0,0-1.48.493l-6.031-6.3a1.493,1.493,0,0,0,.056-.493,2.467,2.467,0,0,0-4.934,0,2,2,0,0,0,.165.822l-5.431,7.071a.258.258,0,0,0,.056.33l1.041.822a.258.258,0,0,0,.33-.056l5.1-6.8a2.544,2.544,0,0,0,1.152.274,2.452,2.452,0,0,0,1.427-.439l6.087,6.36c0,.11-.056.274-.056.384a2.467,2.467,0,0,0,4.934,0,2.171,2.171,0,0,0-.218-.987l7.345-10.965a2.647,2.647,0,0,0,1.315.383,2.328,2.328,0,0,0,1.206-.33l6.087,9.868a2.285,2.285,0,0,0-.164.878,2.467,2.467,0,1,0,4.934,0,2.024,2.024,0,0,0-.33-1.152l4.716-5.756c.163-.109.163-.218.053-.327Z" transform="translate(0)" fill="#fff"/>
    <path id="パス_172" data-name="パス 172" d="M312.659,1271.187h-5.591a.749.749,0,0,1-.766-.766v-19.353a.749.749,0,0,1,.766-.767h5.591a.749.749,0,0,1,.766.767l0,19.353a.749.749,0,0,1-.769.766Z" transform="translate(-2.923 -14.728)" fill="#fff"/>
    <path id="パス_173" data-name="パス 173" d="M331.96,1274.575h-5.591a.749.749,0,0,1-.766-.766v-15.241a.749.749,0,0,1,.766-.767h5.591a.749.749,0,0,1,.766.767l0,15.241a.784.784,0,0,1-.769.766Z" transform="translate(-11.642 -18.116)" fill="#fff"/>
    <path id="長方形_1242" data-name="長方形 1242" d="M1.4,0H5.726a1.4,1.4,0,0,1,1.4,1.4v21.98a1.4,1.4,0,0,1-1.4,1.4H1.4a1.4,1.4,0,0,1-1.4-1.4V1.4A1.4,1.4,0,0,1,1.4,0Z" transform="translate(325.088 1231.681)" fill="#fff"/>
    <path id="長方形_1243" data-name="長方形 1243" d="M1.4,0H5.727a1.4,1.4,0,0,1,1.4,1.4V16.747a1.4,1.4,0,0,1-1.4,1.4H1.4a1.4,1.4,0,0,1-1.4-1.4V1.4A1.4,1.4,0,0,1,1.4,0Z" transform="translate(336.437 1238.313)" fill="#fff"/>
  </g>
</svg>
