<svg xmlns="http://www.w3.org/2000/svg" width="39.745" height="35.173" viewBox="0 0 39.745 35.173">
  <g id="グループ化_374" data-name="グループ化 374" transform="translate(-251.906 -1003.668)">
    <path id="パス_155" data-name="パス 155" d="M289.48,1034.479l-1.377,1.377-2.881-1.878a1.356,1.356,0,0,0-1.377,0l-3.132,2-3.006-2a1.255,1.255,0,0,0-1.5,0l-3,2-3.006-2a1.356,1.356,0,0,0-1.377,0l-1.753,1.254,0-27.18a5.006,5.006,0,0,0-.376-1.878h20.29a2.513,2.513,0,0,1,2.505,2.5Zm-29.309-8.267a5.248,5.248,0,0,0,.5-1.878v-16.283a1.879,1.879,0,0,1,3.759,0v18.161Zm-5.76-1.878v-13.276l1.753,1.254a1.325,1.325,0,0,0,1.628-.125l.376-.376v12.65a1.926,1.926,0,0,1-1.879,1.878,2.041,2.041,0,0,1-1.878-2Zm32.564-20.666H262.55a4.437,4.437,0,0,0-4.383,4.383v.125l-1.377,1.377-2.881-1.878a1.139,1.139,0,0,0-1.253,0,.953.953,0,0,0-.75,1v15.656a4.436,4.436,0,0,0,4.383,4.383,1.131,1.131,0,0,0,.627-.125v.125h7.515v8.768a1.318,1.318,0,0,0,.627,1.129,1.14,1.14,0,0,0,1.253,0l3.006-2,3.006,2a1.356,1.356,0,0,0,1.377,0l3.006-2,3.006,2a1.356,1.356,0,0,0,1.377,0l3.006-2,3.006,2a1.324,1.324,0,0,0,1.627-.125l2.505-2.505a1.138,1.138,0,0,0,.376-.877v-26.428a4.507,4.507,0,0,0-4.636-5.01Z" transform="translate(0 0)" fill="#fff"/>
    <path id="パス_156" data-name="パス 156" d="M301.519,1015.57H286.488a1.254,1.254,0,1,0,0,2.507h15.029a1.254,1.254,0,0,0,0-2.507Z" transform="translate(-15.796 -5.641)" fill="#fff"/>
    <path id="パス_157" data-name="パス 157" d="M286.488,1027.6h10.02a1.254,1.254,0,1,0,0-2.507h-10.02a1.254,1.254,0,1,0,0,2.507Z" transform="translate(-15.796 -10.152)" fill="#fff"/>
    <path id="パス_158" data-name="パス 158" d="M301.519,1034.617H286.488a1.254,1.254,0,1,0,0,2.507h15.029a1.254,1.254,0,0,0,0-2.507Z" transform="translate(-15.796 -14.668)" fill="#fff"/>
    <path id="パス_159" data-name="パス 159" d="M297.761,1044.145H286.488a1.254,1.254,0,1,0,0,2.507h11.273a1.254,1.254,0,0,0,0-2.507Z" transform="translate(-15.796 -19.184)" fill="#fff"/>
  </g>
</svg>
