<svg xmlns="http://www.w3.org/2000/svg" width="37.953" height="33.244" viewBox="0 0 37.953 33.244">
  <g id="グループ化_394" data-name="グループ化 394" transform="translate(-145.414 -827.582)">
    <path id="パス_183" data-name="パス 183" d="M178.98,860.826H149.8a4.393,4.393,0,0,1-4.387-4.388l0-17.606a4.405,4.405,0,0,1,4.388-4.412h5.657v-2.45a4.393,4.393,0,0,1,4.387-4.388h9.087a4.392,4.392,0,0,1,4.385,4.388v2.476h5.659a4.392,4.392,0,0,1,4.387,4.386v17.606A4.393,4.393,0,0,1,178.98,860.826ZM149.8,836.932a1.891,1.891,0,0,0-1.876,1.9l0,17.606a1.879,1.879,0,0,0,1.876,1.876H178.98a1.879,1.879,0,0,0,1.876-1.876V838.832a1.877,1.877,0,0,0-1.876-1.874h-6.914a1.256,1.256,0,0,1-1.256-1.256c0-.011,0-.024,0-.035s0-.029,0-.044V831.97a1.878,1.878,0,0,0-1.874-1.877h-9.087a1.879,1.879,0,0,0-1.876,1.877v3.705a1.256,1.256,0,0,1-1.256,1.256Z" fill="#00abdc"/>
    <path id="パス_184" data-name="パス 184" d="M182.112,864.882H146.675a1.256,1.256,0,0,1,0-2.512h35.438a1.256,1.256,0,1,1,0,2.512Z" transform="translate(-0.002 -15.132)" fill="#00abdc"/>
    <path id="パス_185" data-name="パス 185" d="M178.749,842.18h-6.2a1.256,1.256,0,0,1,0-2.511h6.2a1.256,1.256,0,0,1,0,2.511Z" transform="translate(-11.257 -5.257)" fill="#00abdc"/>
  </g>
</svg>
