<svg xmlns="http://www.w3.org/2000/svg" width="25.409" height="43.003" viewBox="0 0 25.409 43.003">
  <path id="パス_182" data-name="パス 182" d="M95.75,1091.272H99.66v9.773H95.75Zm4.887-12.705h3.909v6.841h-3.909Zm-9.773,0h3.909v6.841H90.864Zm8.8-1.955a.977.977,0,0,0-.977.977v8.8a.977.977,0,0,0,.977.977h5.864a.977.977,0,0,0,.977-.977v-8.8a.978.978,0,0,0-.886-.977.713.713,0,0,0-.091,0Zm-9.865,0a.978.978,0,0,0-.885.977v8.8a.977.977,0,0,0,.977.977H95.75a.977.977,0,0,0,.977-.977v-8.8a.977.977,0,0,0-.977-.977H89.887A.721.721,0,0,0,89.795,1076.613Zm10.842-10.75h3.909v6.841h-3.909Zm-9.773,0h3.909v6.841H90.864Zm8.8-1.955a.977.977,0,0,0-.977.977v8.8a.977.977,0,0,0,.977.977h5.864a.977.977,0,0,0,.977-.977v-8.8a.978.978,0,0,0-.886-.977.713.713,0,0,0-.091,0Zm-9.865,0a.978.978,0,0,0-.885.977v8.8a.977.977,0,0,0,.977.977H95.75a.977.977,0,0,0,.977-.977v-8.8a.977.977,0,0,0-.977-.977H89.887A.721.721,0,0,0,89.795,1063.908Zm-2.84-1.955h21.5v39.092h-6.841v-10.75a.977.977,0,0,0-.977-.977H94.773a.721.721,0,0,0-.092,0,.978.978,0,0,0-.885.977v10.75H86.955ZM85.885,1060a.978.978,0,0,0-.885.977v41.047a.976.976,0,0,0,.977.977h23.455a.977.977,0,0,0,.977-.977v-41.047a.977.977,0,0,0-.977-.977H85.977A.721.721,0,0,0,85.885,1060Z" transform="translate(-85 -1059.997)" fill="#00abdc"/>
</svg>
