<svg xmlns="http://www.w3.org/2000/svg" width="44.954" height="44.953" viewBox="0 0 44.954 44.953">
  <g id="グループ化_260" data-name="グループ化 260" transform="translate(-229.027 224.79)">
    <path id="パス_130" data-name="パス 130" d="M272.15-181.662H259.493v-24.07H272.15l0,24.07Zm-26.813-24.983v-9.33h12.329v34.313H245.337Zm-14.485.913h12.657v24.07H230.852Zm1.827-4.368h1.829v2.541h-1.829Zm6.283,0h1.829v2.541h-1.829Zm9.008-12.86h7.061v5.154l-7.061,0Zm14.24,12.86h1.829v2.541h-1.829Zm6.281,0h1.829v2.541h-1.829Zm4.572,2.539h-.913v-3.454a.915.915,0,0,0-.914-.915H267.58a.913.913,0,0,0-.913.915v3.454h-.8v-3.454a.915.915,0,0,0-.913-.915H261.3a.914.914,0,0,0-.914.915v3.454H259.5l0-9.33a.913.913,0,0,0-.913-.913h-1.719v-6.07a.914.914,0,0,0-.913-.914l-8.893,0a.913.913,0,0,0-.914.913v6.07h-1.719a.913.913,0,0,0-.913.913v9.33h-.89v-3.454a.915.915,0,0,0-.914-.915h-3.658a.914.914,0,0,0-.913.915v3.454h-.8v-3.454a.915.915,0,0,0-.913-.915h-3.656a.914.914,0,0,0-.914.915v3.454h-.913a.914.914,0,0,0-.913.915v25.9a.913.913,0,0,0,.913.914h43.127a.913.913,0,0,0,.913-.914l0-25.9a.915.915,0,0,0-.914-.915Z" transform="translate(0 0)" fill="#00abdc"/>
    <path id="パス_131" data-name="パス 131" d="M243.483-179.556h-6.1v-2.084h6.1Zm.913-3.913h-7.924a.913.913,0,0,0-.913.913v3.913a.913.913,0,0,0,.913.913H244.4a.912.912,0,0,0,.913-.913v-3.913A.913.913,0,0,0,244.4-183.469Z" transform="translate(-3.254 -20.583)" fill="#00abdc"/>
    <path id="パス_132" data-name="パス 132" d="M243.483-164.644h-6.1v-2.084h6.1Zm.913-3.911h-7.924a.913.913,0,0,0-.913.913v3.913a.913.913,0,0,0,.913.913H244.4a.913.913,0,0,0,.913-.913v-3.913A.913.913,0,0,0,244.4-168.555Z" transform="translate(-3.254 -28.012)" fill="#00abdc"/>
    <path id="パス_133" data-name="パス 133" d="M243.483-149.732h-6.1v-2.084h6.1Zm.913-3.913h-7.924a.913.913,0,0,0-.913.913v3.913a.913.913,0,0,0,.913.913H244.4a.913.913,0,0,0,.913-.913v-3.913A.913.913,0,0,0,244.4-153.645Z" transform="translate(-3.254 -35.439)" fill="#00abdc"/>
    <path id="パス_134" data-name="パス 134" d="M300.549-179.556h-6.1v-2.084h6.1Zm.915-3.913h-7.926a.913.913,0,0,0-.913.913v3.913a.913.913,0,0,0,.913.913h7.924a.912.912,0,0,0,.913-.913v-3.913a.911.911,0,0,0-.911-.913Z" transform="translate(-31.68 -20.583)" fill="#00abdc"/>
    <path id="パス_135" data-name="パス 135" d="M300.549-164.644h-6.1v-2.084h6.1Zm.915-3.911h-7.926a.913.913,0,0,0-.913.913v3.913a.913.913,0,0,0,.913.913h7.924a.913.913,0,0,0,.913-.913v-3.913a.911.911,0,0,0-.911-.913Z" transform="translate(-31.68 -28.012)" fill="#00abdc"/>
    <path id="パス_136" data-name="パス 136" d="M300.549-149.732h-6.1v-2.084h6.1Zm.915-3.913h-7.926a.913.913,0,0,0-.913.913v3.913a.913.913,0,0,0,.913.913h7.924a.913.913,0,0,0,.913-.913v-3.913a.911.911,0,0,0-.911-.913Z" transform="translate(-31.68 -35.439)" fill="#00abdc"/>
    <path id="パス_137" data-name="パス 137" d="M272.928-203.207h-6.959a.913.913,0,0,0-.913.913.913.913,0,0,0,.913.914h6.959a.913.913,0,0,0,.913-.914A.914.914,0,0,0,272.928-203.207Z" transform="translate(-17.947 -10.751)" fill="#00abdc"/>
    <path id="パス_138" data-name="パス 138" d="M272.928-195.105h-6.959a.912.912,0,0,0-.913.913.915.915,0,0,0,.913.916h6.959a.914.914,0,0,0,.913-.916A.913.913,0,0,0,272.928-195.105Z" transform="translate(-17.947 -14.787)" fill="#00abdc"/>
    <path id="パス_139" data-name="パス 139" d="M272.928-187.012h-6.959a.913.913,0,0,0-.913.913.913.913,0,0,0,.913.914h6.959a.913.913,0,0,0,.913-.914A.914.914,0,0,0,272.928-187.012Z" transform="translate(-17.947 -18.818)" fill="#00abdc"/>
    <path id="パス_140" data-name="パス 140" d="M272.928-178.914h-6.959a.913.913,0,0,0-.913.913.913.913,0,0,0,.913.914h6.959a.912.912,0,0,0,.913-.914A.914.914,0,0,0,272.928-178.914Z" transform="translate(-17.947 -22.852)" fill="#00abdc"/>
    <path id="パス_141" data-name="パス 141" d="M272.928-170.816h-6.959a.913.913,0,0,0-.913.913.913.913,0,0,0,.913.914h6.959a.913.913,0,0,0,.913-.914A.914.914,0,0,0,272.928-170.816Z" transform="translate(-17.947 -26.886)" fill="#00abdc"/>
    <path id="パス_142" data-name="パス 142" d="M272.928-162.719h-6.959a.913.913,0,0,0-.913.913.913.913,0,0,0,.913.914h6.959a.913.913,0,0,0,.913-.914A.914.914,0,0,0,272.928-162.719Z" transform="translate(-17.947 -30.919)" fill="#00abdc"/>
    <path id="パス_143" data-name="パス 143" d="M272.928-154.621h-6.959a.913.913,0,0,0-.913.913.913.913,0,0,0,.913.914h6.959a.913.913,0,0,0,.913-.914A.914.914,0,0,0,272.928-154.621Z" transform="translate(-17.947 -34.953)" fill="#00abdc"/>
    <path id="パス_144" data-name="パス 144" d="M272.928-146.52h-6.959a.913.913,0,0,0-.913.913.913.913,0,0,0,.913.914h6.959a.913.913,0,0,0,.913-.914A.913.913,0,0,0,272.928-146.52Z" transform="translate(-17.947 -38.988)" fill="#00abdc"/>
  </g>
</svg>
