<svg xmlns="http://www.w3.org/2000/svg" width="34.743" height="45.68" viewBox="0 0 34.743 45.68">
  <g id="グループ化_393" data-name="グループ化 393" transform="translate(-618.233 -1183.605)">
    <path id="パス_177" data-name="パス 177" d="M620.163,1207.41H623.7v19.946h-3.541Zm5.47-11.307,9.972-4.988,9.974,4.988v31.252h-9.01v-4.5a.965.965,0,0,0-1.929,0v4.506l-9.007,0Zm25.414,16.776v14.478h-3.539V1212.88Zm-32.814-6.435v21.876a.965.965,0,0,0,.965.965h32.814a.965.965,0,0,0,.965-.965v-16.407a.965.965,0,0,0-.965-.965h-4.5v-15.441a.964.964,0,0,0-.532-.862l-10.406-5.205v-4.872a.965.965,0,0,0-1.929,0v4.874l-10.4,5.2a.965.965,0,0,0-.532.862v9.972l-4.506,0a.965.965,0,0,0-.965.965Z" fill="#00abdc"/>
    <path id="パス_178" data-name="パス 178" d="M640.461,1217.421H651.4a.965.965,0,0,0,0-1.929H640.461a.965.965,0,1,0,0,1.929Z" transform="translate(-10.324 -15.482)" fill="#00abdc"/>
    <path id="パス_179" data-name="パス 179" d="M640.461,1228.054H651.4a.965.965,0,0,0,0-1.929H640.461a.965.965,0,1,0,0,1.929Z" transform="translate(-10.324 -20.645)" fill="#00abdc"/>
    <path id="パス_180" data-name="パス 180" d="M640.461,1238.687H651.4a.965.965,0,0,0,0-1.929H640.461a.965.965,0,1,0,0,1.929Z" transform="translate(-10.324 -25.807)" fill="#00abdc"/>
    <path id="パス_181" data-name="パス 181" d="M640.461,1249.312H651.4a.965.965,0,0,0,0-1.929H640.461a.965.965,0,1,0,0,1.929Z" transform="translate(-10.324 -30.966)" fill="#00abdc"/>
  </g>
</svg>
