<svg xmlns="http://www.w3.org/2000/svg" width="35" height="35" fill="none"><path fill="#0457A7" d="M20.832 25.833a5 5 0 0 1 5 5V32.5a1.667 1.667 0 1 1-3.333 0v-1.667a1.666 1.666 0 0 0-1.667-1.666h-6.666a1.67 1.67 0 0 0-1.667 1.666V32.5a1.667 1.667 0 0 1-3.333 0v-1.667a5 5 0 0 1 5-5zm-3.333-11.666a5 5 0 1 1-.001 10 5 5 0 0 1 .001-10m-8.162-1.659a1.668 1.668 0 0 1-.171 3.325H5.832A1.667 1.667 0 0 0 4.166 17.5v1.667a1.667 1.667 0 0 1-3.334 0V17.5a5 5 0 0 1 5-5h3.334zm8.162 4.992a1.668 1.668 0 1 0 0 3.335 1.668 1.668 0 0 0 0-3.335m11.667-5a5 5 0 0 1 5 5v1.667a1.667 1.667 0 0 1-3.334 0V17.5a1.67 1.67 0 0 0-1.666-1.667h-3.334a1.666 1.666 0 0 1 0-3.333zM9.66.858a5.002 5.002 0 0 1 3.041 8.51 5 5 0 0 1-3.04 1.44l-.495.025A5 5 0 0 1 4.19 6.328l-.024-.495a5 5 0 0 1 5-5zm16.667 0a5 5 0 0 1 0 9.95l-.495.025a5 5 0 0 1 0-10zM9.166 4.168a1.667 1.667 0 0 0-1.667 1.665l.008.165A1.667 1.667 0 0 0 9.166 7.5l.164-.008a1.667 1.667 0 0 0 0-3.317zm16.666 0a1.666 1.666 0 0 0 0 3.332l.165-.008a1.667 1.667 0 0 0 0-3.317z"/></svg>