<svg xmlns="http://www.w3.org/2000/svg" width="40.268" height="35.173" viewBox="0 0 40.268 35.173">
  <g id="グループ化_370" data-name="グループ化 370" transform="translate(-205.5 -204.5)">
    <path id="パス_160" data-name="パス 160" d="M233.553,237.554H207.662V206.619h25.893l0,15.468,2.162-2.119V206.323a1.846,1.846,0,0,0-1.864-1.823H207.364a1.845,1.845,0,0,0-1.864,1.823V237.85a1.846,1.846,0,0,0,1.864,1.823h26.486a1.845,1.845,0,0,0,1.864-1.823l0-4.618-2.162,2.162Z" transform="translate(0)" fill="#fff"/>
    <path id="パス_161" data-name="パス 161" d="M221.957,222.721h15a1.059,1.059,0,1,0,0-2.119h-15a1.059,1.059,0,1,0,0,2.119Z" transform="translate(-8.873 -9.278)" fill="#fff"/>
    <path id="パス_162" data-name="パス 162" d="M221.957,238.017h15a1.059,1.059,0,1,0,0-2.119h-15a1.059,1.059,0,1,0,0,2.119Z" transform="translate(-8.873 -18.093)" fill="#fff"/>
    <path id="パス_163" data-name="パス 163" d="M238.061,252.161A1.05,1.05,0,0,0,237,251.1H221.957a1.059,1.059,0,1,0,0,2.119h15a1.06,1.06,0,0,0,1.1-1.059Z" transform="translate(-8.873 -26.854)" fill="#fff"/>
    <path id="パス_164" data-name="パス 164" d="M220.9,267.4a1.05,1.05,0,0,0,1.059,1.059H234.29l.467-2.162-12.8,0a1.113,1.113,0,0,0-1.059,1.1Z" transform="translate(-8.873 -35.609)" fill="#fff"/>
    <path id="パス_165" data-name="パス 165" d="M292.8,235.639l-2.543-2.543a.743.743,0,0,0-1.059,0l-1.7,1.7,3.6,3.6,1.7-1.7A.742.742,0,0,0,292.8,235.639Z" transform="translate(-47.251 -16.35)" fill="#fff"/>
    <rect id="長方形_1240" data-name="長方形 1240" width="11.993" height="5.086" transform="translate(230.544 228.165) rotate(-45.011)" fill="#fff"/>
    <path id="パス_166" data-name="パス 166" d="M258.005,268.751l3.263-.763a.856.856,0,0,0,.381-.212l.975-.975-3.6-3.6-.975.975a.822.822,0,0,0-.212.381l-.763,3.263a.773.773,0,0,0,.934.934Z" transform="translate(-29.706 -33.824)" fill="#fff"/>
  </g>
</svg>
