<svg xmlns="http://www.w3.org/2000/svg" width="35.235" height="38.64" viewBox="0 0 35.235 38.64">
  <g id="グループ化_361" data-name="グループ化 361" transform="translate(-566.199 -1186.199)">
    <path id="パス_174" data-name="パス 174" d="M590.268,1186.2a8.472,8.472,0,1,0,8.472,8.472A8.486,8.486,0,0,0,590.268,1186.2Z" transform="translate(-8.856)" fill="#fff"/>
    <path id="パス_175" data-name="パス 175" d="M583.572,1236.85l-1.3,1.469.432,1.729-3.069,2.161.951-3.933-1.3-1.469a.255.255,0,0,1-.044-.172l.778-1.9c.044-.044.086-.086.13-.086h2.463c.044,0,.13.044.13.086l.82,1.9c.045.13.045.174,0,.216Zm5.663-4.452H573.59a7.388,7.388,0,0,0-7.391,7.391v6.829H578.56l.648-2.765,3.718-2.637.518,2.117-4.624,3.286h1.859l3.069-2.161.518,2.161h2.421v-.692l-.82-1.426a1.1,1.1,0,0,1,0-1.037l.82-1.427v-1.729a1.057,1.057,0,0,1,.518-.908l1.469-.864.82-1.427a1.053,1.053,0,0,1,.909-.518h1.685l1.469-.821a1.106,1.106,0,0,1,1.037,0l1.253.735a7.279,7.279,0,0,0-6.611-4.106Z" transform="translate(0 -26.232)" fill="#fff"/>
    <path id="パス_176" data-name="パス 176" d="M622.807,1248.853v-3.286a3.329,3.329,0,0,1,3.327,3.327Zm2.551.994a3.729,3.729,0,0,1-3.544,3.89,3.9,3.9,0,0,1-3.89-3.89,3.757,3.757,0,0,1,3.89-3.543h.086v3.458h3.458Zm3.63-.39-.734-1.253v-1.427a.967.967,0,0,0-.432-.779l-1.21-.69-.734-1.252a.905.905,0,0,0-.778-.432h-1.427l-1.253-.693a.789.789,0,0,0-.864,0l-1.253.693h-1.426a.965.965,0,0,0-.778.432l-.693,1.21-1.252.734a.9.9,0,0,0-.432.778v1.469l-.692,1.21a.839.839,0,0,0-.13.432.736.736,0,0,0,.13.432l.692,1.211V1253a.966.966,0,0,0,.432.779l1.252.734.693,1.21a.906.906,0,0,0,.778.432H620.3l1.253.692a.783.783,0,0,0,.864,0l1.253-.692H625.1a.968.968,0,0,0,.778-.432l.734-1.253,1.21-.692a.906.906,0,0,0,.432-.779v-1.382l.734-1.252A1.108,1.108,0,0,0,628.988,1249.457Z" transform="translate(-27.652 -32.14)" fill="#fff"/>
  </g>
</svg>
