<svg xmlns="http://www.w3.org/2000/svg" width="31.267" height="33.133" viewBox="0 0 31.267 33.133">
  <g id="グループ化_354" data-name="グループ化 354" transform="translate(-320.271 -374.64)">
    <path id="パス_147" data-name="パス 147" d="M489.978,380.88l-1.825,2.485h1.311a.458.458,0,1,1,0,.917h-1.733v.458h1.733a.458.458,0,1,1,0,.917h-1.733v1.192a.458.458,0,1,1-.917,0v-1.192h-1.733a.458.458,0,1,1,0-.917h1.733v-.458h-1.733a.458.458,0,1,1,0-.917h1.32l-1.825-2.485a.465.465,0,0,1,.1-.642.494.494,0,0,1,.275-.092.465.465,0,0,1,.367.183L487.282,383l1.953-2.659a.439.439,0,0,1,.367-.183.433.433,0,0,1,.275.092.454.454,0,0,1,.1.633Zm-2.705-6.239a8.822,8.822,0,1,0,8.822,8.822A8.83,8.83,0,0,0,487.273,374.641Z" transform="translate(-148.955)" fill="#fff"/>
    <path id="パス_148" data-name="パス 148" d="M348.572,722.93a35.779,35.779,0,0,1-3.879,1.048,4.57,4.57,0,0,1-3.18,1.991,7.084,7.084,0,0,1-1.258.105,31.957,31.957,0,0,1-3.879-.21.948.948,0,0,1-.314-.035.781.781,0,0,1-.7-.663.714.714,0,0,1,.768-.768c.105,0,.244.035.349.035a20.313,20.313,0,0,0,4.752.105c2.061-.385,2.656-1.642,2.515-2.69a1.691,1.691,0,0,0-1.782-1.608,32.447,32.447,0,0,1-4.822-.139,33.164,33.164,0,0,0-5.241-.035,20.219,20.219,0,0,0-7.442,3.18c-1.362.909-2.865,2.027-3.774,2.69a1.015,1.015,0,0,0-.21,1.433l4.018,5.2a1.009,1.009,0,0,0,1.433.175l1.467-1.153a1.288,1.288,0,0,1,1.223-.21,32.625,32.625,0,0,0,7.476,1.537c4.161.28,12.093-4.611,14.364-6.184a2.127,2.127,0,0,0-1.887-3.807Z" transform="translate(0 -325.195)" fill="#fff"/>
  </g>
</svg>
