<?xml version="1.0" encoding="utf-8"?>
<!-- Generator: Adobe Illustrator 23.0.2, SVG Export Plug-In . SVG Version: 6.00 Build 0)  -->
<svg version="1.1" id="レイヤー_1" xmlns="http://www.w3.org/2000/svg" xmlns:xlink="http://www.w3.org/1999/xlink" x="0px"
	 y="0px" viewBox="0 0 516.9 402.2" style="enable-background:new 0 0 516.9 402.2;" xml:space="preserve">
<style type="text/css">
	.st0{fill:#FFFFFF;}
	.st1{fill:#D1DBEA;}
	.st2{fill:#001F46;}
	.st3{fill:#999999;}
	.st4{fill:#CCCCCC;}
	.st5{fill:#367082;}
	.st6{fill:#666666;}
	.st7{fill:#E2C59C;}
	.st8{fill:#0E2832;}
	.st9{fill:#163F59;}
	.st10{fill:#FFD296;}
	.st11{fill:#E9D6B8;}
	.st12{fill:#D0DEE6;}
	.st13{fill:#B6C2C9;}
	.st14{fill:#D7DFE2;}
	.st15{fill:#B3B3B3;}
	.st16{fill-rule:evenodd;clip-rule:evenodd;fill:#D1DBEA;}
	.st17{fill:#C1C8D3;}
	.st18{fill:#718F2C;}
	.st19{fill:#D82E1E;}
	.st20{fill:#FFAE2A;}
	.st21{fill:#2C7EEA;}
	.st22{fill:#194866;}
	.st23{fill:#E4EFFF;}
	.st24{clip-path:url(#SVGID_4_);}
	.st25{fill:#CA8EDE;}
	.st26{fill:#AFBEDD;}
	.st27{clip-path:url(#SVGID_8_);}
	.st28{fill:#F4DA80;}
	.st29{clip-path:url(#SVGID_12_);}
	.st30{fill:#AEBDDC;}
	.st31{fill:#CFD9E8;}
	.st32{clip-path:url(#SVGID_14_);}
	.st33{fill:#D0DAE9;}
	.st34{clip-path:url(#SVGID_16_);}
	.st35{fill:#A3CF6F;}
	.st36{fill:#98C168;}
	.st37{clip-path:url(#SVGID_18_);}
	.st38{fill:#D8E5ED;}
	.st39{fill:#879BA6;}
	.st40{fill:#D9E1E4;}
</style>
<path class="st0" d="M483.9,160.9c0.3-2.6,0.5-5.1,0.5-7.8c0-36.3-29.6-65.8-66.2-65.8c-6.2,0-12.2,0.9-17.9,2.5
	C393.8,42.7,353.2,6.4,304,6.4c-53.7,0-97.2,43.2-97.2,96.6c0,0.2,0,0.4,0,0.6c-29.6,3.4-52.5,28.3-52.5,58.5
	c0,32.6,26.5,58.9,59.3,58.9h99.8h29.2h26.1h58.2h53.4v-0.1c0.9,0.1,1.7,0.1,2.6,0.1c16.7,0,30.3-13.5,30.3-30.1
	C513.3,174.6,500.2,161.4,483.9,160.9z"/>
<path class="st1" d="M215.6,140.9h-2c-0.6,0-1-0.4-1-1s0.5-1,1-1h2c0.6,0,1,0.5,1,1S216,140.9,215.6,140.9z M215.6,147.8h-2
	c-0.6,0-1-0.4-1-1s0.5-1,1-1h2c0.6,0,1,0.5,1,1C216.5,147.4,216,147.8,215.6,147.8z M215.6,154.7h-2c-0.6,0-1-0.4-1-1s0.5-1,1-1h2
	c0.6,0,1,0.5,1,1C216.5,154.3,216,154.7,215.6,154.7z M208,140.9h-2c-0.6,0-1-0.4-1-1s0.4-1,1-1h2c0.6,0,1,0.5,1,1
	S208.6,140.9,208,140.9z M208,147.8h-2c-0.6,0-1-0.4-1-1s0.4-1,1-1h2c0.6,0,1,0.5,1,1C208.9,147.4,208.6,147.8,208,147.8z
	 M208,154.7h-2c-0.6,0-1-0.4-1-1s0.4-1,1-1h2c0.6,0,1,0.5,1,1C208.9,154.3,208.6,154.7,208,154.7z M200.5,140.9h-2c-0.6,0-1-0.4-1-1
	s0.5-1,1-1h2c0.6,0,1,0.5,1,1S201,140.9,200.5,140.9z M200.5,147.8h-2c-0.6,0-1-0.4-1-1s0.5-1,1-1h2c0.6,0,1,0.5,1,1
	C201.5,147.4,201,147.8,200.5,147.8z M200.5,154.7h-2c-0.6,0-1-0.4-1-1s0.5-1,1-1h2c0.6,0,1,0.5,1,1
	C201.5,154.3,201,154.7,200.5,154.7z M217.9,133.5H196v-7.1h21.9V133.5z M222.2,157.1V123c0-0.6-0.5-1-1-1h-28.4c-0.6,0-1,0.5-1,1
	v34.2c0,0.6,0.5,1,1,1h28.4C221.8,158.1,222.2,157.7,222.2,157.1L222.2,157.1z"/>
<path class="st1" d="M198.6,188.4h-2.8v2.8h-0.9v-2.8H192v-0.9h2.8v-2.8h0.9v2.8h2.8v0.9H198.6z M199.5,181.4H191
	c-1.3,0-2.3,1-2.3,2.3v8.5c0,1.3,1,2.3,2.3,2.3h8.5c1.3,0,2.3-1,2.3-2.3v-8.5C201.9,182.4,200.8,181.4,199.5,181.4z"/>
<path class="st1" d="M214.8,180.2l-0.7,0.7l-2-2l-2,2l-0.7-0.7l2-2l-2-2l0.7-0.7l2,2l2-2l0.7,0.7l-2,2L214.8,180.2z M216.4,171.6
	h-8.5c-1.3,0-2.3,1-2.3,2.3v8.5c0,1.3,1,2.3,2.3,2.3h8.5c1.3,0,2.3-1,2.3-2.3V174C218.7,172.7,217.7,171.6,216.4,171.6z"/>
<path class="st1" d="M216,194.3h-6.6v-0.9h6.6V194.3z M216.9,187.2h-8.5c-1.3,0-2.3,1-2.3,2.3v8.5c0,1.3,1,2.3,2.3,2.3h8.5
	c0.6,0,1.2-0.2,1.7-0.7c0.4-0.4,0.7-1,0.7-1.7v-8.5C219.3,188.2,218.2,187.2,216.9,187.2L216.9,187.2z"/>
<path class="st1" d="M198.3,170.4h-6.6v-0.9h6.6V170.4z M195,172.6L195,172.6c-0.4,0-0.7-0.2-0.8-0.6c-0.1-0.3-0.1-0.7,0.2-1
	c0.3-0.3,0.6-0.3,1-0.2c0.3,0.1,0.6,0.5,0.6,0.8C195.9,172.2,195.5,172.6,195,172.6L195,172.6z M195,167.2c0.4,0,0.7,0.2,0.8,0.6
	c0.1,0.3,0.1,0.7-0.2,1c-0.3,0.3-0.6,0.3-1,0.2c-0.3-0.1-0.6-0.5-0.6-0.8C194.1,167.6,194.5,167.2,195,167.2L195,167.2z
	 M199.3,163.3h-8.5c-1.3,0-2.3,1-2.3,2.3v8.5c0,1.3,1,2.3,2.3,2.3h8.5c0.6,0,1.2-0.2,1.7-0.7c0.4-0.4,0.7-1,0.7-1.7v-8.5
	C201.6,164.3,200.6,163.3,199.3,163.3L199.3,163.3z"/>
<g>
	<g>
		<g>
			<path class="st2" d="M92.3,318.9c-1.8,0-4.7-0.4-7.2-2.6c-3.6-3.2-5.2-8.8-4.7-16.7c0.4-5.3,2.5-10.7,4.7-16.5
				c3.7-9.6,8-20.5,5.8-34.9l4.1-0.6c2.4,15.5-2.3,27.5-6,37.1c-2.2,5.6-4.1,10.5-4.4,15.2c-0.4,6.4,0.7,11,3.2,13.2
				c2.4,2.1,5.4,1.6,5.5,1.5l0.8,4.1C94,318.8,93.3,318.9,92.3,318.9z"/>
		</g>
		<g>
			<g>
				<path class="st3" d="M124.2,352l4.1,6.2l-34.1,10.9c0,0-2.3-2.2,6.1-6.6C110,357.5,124.2,352,124.2,352z"/>
				<path class="st3" d="M130.3,352l-4.1,6.2l34.1,10.9c0,0,2.3-2.2-6.1-6.6C144.5,357.5,130.3,352,130.3,352z"/>
			</g>
			<rect x="123.7" y="333.6" class="st3" width="7.1" height="25.4"/>
			<g>
				<path class="st4" d="M123.8,353.3l3.5,5.9L98,369.6c0,0-1.9-2.1,5.2-6.3C111.6,358.5,123.8,353.3,123.8,353.3z"/>
				<path class="st4" d="M130.7,353.3l-3.5,5.9l29.2,10.4c0,0,1.9-2.1-5.2-6.3C142.9,358.5,130.7,353.3,130.7,353.3z"/>
			</g>
			<path class="st2" d="M101.3,372c0,1.4-1.1,2.5-2.5,2.5s-2.5-1.1-2.5-2.5s1.1-2.5,2.5-2.5S101.3,370.6,101.3,372z"/>
			<path class="st2" d="M157.9,372c0,1.4-1.1,2.5-2.5,2.5s-2.5-1.1-2.5-2.5s1.1-2.5,2.5-2.5C156.8,369.5,157.9,370.6,157.9,372z"/>
			<path class="st5" d="M95.4,372c0,1.4-1.1,2.5-2.5,2.5s-2.5-1.1-2.5-2.5s1.1-2.5,2.5-2.5C94.2,369.5,95.4,370.6,95.4,372z"/>
			<path class="st5" d="M163.9,372c0,1.4-1.1,2.5-2.5,2.5s-2.5-1.1-2.5-2.5s1.1-2.5,2.5-2.5S163.9,370.6,163.9,372z"/>
		</g>
		<rect x="124.5" y="324.3" class="st2" width="5.2" height="9.1"/>
		<path class="st2" d="M133.7,319.5c0,2.8-2.3,5.1-5.1,5.1h-2.9c-2.8,0-5.1-2.3-5.1-5.1l0,0c0-2.8,2.3-5.1,5.1-5.1h2.9
			C131.4,314.4,133.7,316.7,133.7,319.5L133.7,319.5z"/>
		<path class="st3" d="M165.9,314.8c0.1-0.6,0.2-4.3,0.2-5c0-4.1-2.7-7.4-5.9-7.4h-66c-3.3,0-5.9,3.3-5.9,7.4c0,0.6,0.1,4.4,0.2,5
			H165.9z"/>
		<path class="st2" d="M87.6,316.8c0,1.3,0.7,2.3,1.6,2.3H165c0.9,0,1.6-1,1.6-2.3l0,0c0-1.3-0.7-2.3-1.6-2.3H89.2
			C88.3,314.6,87.6,315.6,87.6,316.8L87.6,316.8z"/>
		<g>
			<path class="st3" d="M91.3,276.7c1.6,0.1,12,0.3,13.8,0.3c11.3,0.1,21.1-2,21.6-4.8c2.2-11.6,2.3-23.5,0.3-35.1
				c-0.5-2.8-10.4-4.9-22-4.8c-1.8,0-12.4,0.2-14,0.3C94.5,247.2,94.6,262.3,91.3,276.7z"/>
			<path class="st5" d="M89.7,232.7c-1.3,0-2.2,0.6-2,1.3c3.2,13.6,3.3,27.7,0.4,41.3c-0.2,0.7,0.7,1.3,2,1.3l0,0
				c1.2,0,2.4-0.6,2.5-1.3c3-13.6,2.9-27.8-0.3-41.4C92.2,233.3,91,232.7,89.7,232.7L89.7,232.7z"/>
			<path class="st6" d="M89.2,276.7c0.3,0.1,2.6,0.2,3,0.2c2.5,0,5-2.1,5.5-4.9c2.1-11.4,2-23.1-0.2-34.5c-0.5-2.7-3.1-4.9-5.6-4.9
				c-0.4,0-2.7,0.1-3,0.2C92.4,247.2,92.6,262.2,89.2,276.7z"/>
		</g>
	</g>
	<g>
		<g>
			<g>
				<g>
					<path class="st7" d="M157.9,243.7c0,0,0.1,2.9,14.1,2.9s34.5-3.4,34.5-3.4l-32.3-3C174.3,240.1,161.9,239.5,157.9,243.7z"/>
					<path class="st7" d="M195.5,244.1c6.7,0.2,9.4,3.6,12,4.8c2.6,1.1,5.2,2.8,5.2,2.8c-1.4-2.9-3.5-3-4.6-4c-1-1-0.8-0.5,1.6-0.6
						c1.3-0.1,3.6,2.4,5.3,3.8c1.4,1.2,2.4,1.3,2.4,1.3s-1.6-2.5-3.8-4.5c-2.6-2.4-5.8-4.5-6.6-4.8c-1.4-0.6-5.8-0.9-9-0.6
						C194.4,242.7,190.7,244,195.5,244.1z"/>
					<path class="st7" d="M206.7,243c0,0,5.1,1.5,5.9,2.2c0.6,0.5,3.1,3.3,3.1,3.3s-1.9-0.4-3-1.4C211.7,245.9,206.7,243,206.7,243z
						"/>
				</g>
				<path class="st8" d="M164.3,237.8c0,0-12.9,0.4-12.3,8c0.3,4.4,3.2,6,7.1,5.8c7.2-0.3,15.5-1.1,15.5-1.1l4.1-11.7L164.3,237.8z"
					/>
			</g>
			<path class="st8" d="M161.5,238.8L150.3,199c0,0-1.7-5.8-4.8-4.8c-4.5,1.4-2.4,6.2-2.2,9c0.6,5.7,0,8.2,3.6,22
				c2.2,8.6,4.1,18.4,6.1,24c1.4,3.9,4.1-1.5,8.1-2.9C168.4,243.7,161.5,238.8,161.5,238.8z"/>
		</g>
		<path class="st9" d="M139.7,186.2c-1.9,8.7-10.7,14.1-19.5,12.1s-14.4-10.6-12.5-19.2c1.9-8.6,10.7-14.1,19.5-12.1
			C136,168.9,141.6,177.5,139.7,186.2z"/>
		<path class="st9" d="M154.8,177.3c-1.5,6.6-8.1,10.8-14.7,9.3l-1.7-6.4c-6.6-1.5-10.8-8.1-9.3-14.7l1-4.5
			c1.5-6.6,8.1-10.8,14.7-9.3l3,0.7c6.6,1.5,10.8,8.1,9.3,14.7L154.8,177.3z"/>
		<path class="st10" d="M153.9,158.5c-0.3,1.1-0.6,2.2-1,3.3c-2.9,7.5-9,12.3-14.2,11.8c-0.9,3.5-2.4,6.4-3.8,8.9
			c-1.6,2.8-5.9,5.3-5.9,5.3c-2.1,5.2,18.7,22.6,19.6,22.2c1.9-1-1.5-13.5-4.9-17.3c-1.6-1.8-3.2-4-3.3-5.2
			c-0.1-4.3,1.2-5.2,3.3-7.2c3.6-2.7,7.8-1.8,7.8-1.8c0.4,0.1,0.8,0,1.1-0.2c0.4-0.7,0.7-1.6,0.9-2.4l2.2-9.9
			C156.4,163.3,155.6,160.6,153.9,158.5z"/>
		<path class="st1" d="M132.4,269.2c0,0,5.3,4.8,6.8,5.3c2,0.6,7.6-1.9,7.6-1.9s-1.6-25-1-35c0.6-9.9,2.9-12.8,2.6-15.9
			c-0.4-4.9,3.5-7.4,2.4-11.1c-1.2-3.7-4.1-17.2-4.3-15.3c-1.7,15.9-7.8,3.6-9,1.7C136.8,196,132.4,269.2,132.4,269.2z"/>
		<path class="st8" d="M143.5,191.1c0,0,7.1,5.2,7,7.6c-0.1,2.4,3.6,9.5,2.1,20.1c-1.7,12.1-2.4,20.3-2,28s3.9,14.4,4,24
			c0.1,7.5-1.6,8.1-1.6,8.1s-3.3,1.2-6.1-1.3s-2.3-28.1-1.9-34.5c0.4-6.4,2.4-21.6,2.9-26c0.6-5.5-0.3-10.8-0.6-12.4
			c-1-5.4-2.1-8.8-3-10.8c-0.1-0.3-2-1.8-2.1-2.1C141.8,190.6,142.9,190.4,143.5,191.1z"/>
		<path class="st8" d="M141.6,188.5c0,0-1.5-0.3-0.2,1.4c0.7,0.9,0.7,1.7,0.7,1.7s0.6-0.7,1.6,0.3c0.9,0.9,2.2,1.9,2.2,1.9
			s-0.9-2.5-1.1-2.7C144.2,190.5,141.6,188.5,141.6,188.5z"/>
		<path class="st9" d="M135,208c-2,9-11.1,14.7-20.4,12.6c-9.2-2.1-15.1-11.1-13-20.1c2-9,11.1-14.7,20.4-12.6
			C131.2,190,137,199,135,208z"/>
		<polygon class="st10" points="170.2,354.8 167,379.4 180.9,385.7 188.6,387.3 174.9,377.2 179.4,355 		"/>
		<path class="st9" d="M166.1,383.1l3,0.8l2-1.8l11.1,5.4l9.8,2.2c0,0,0.1-0.8-0.2-1.2c-1.2-1.6-8.1-5-8.1-5s-0.1,2.3-1.1,2.3
			c-1,0.1-9.4-4.2-11.4-5.4c-3.4-2.1-4-3.3-4.3-3.2C166.3,377.6,166.1,383.1,166.1,383.1z"/>
		<polygon class="st10" points="203.6,320.7 214.6,341.6 229.8,340.9 237.4,338.8 220.6,336 211.4,318.1 		"/>
		<path class="st9" d="M215.5,345.3l3-0.7l1-2.5l13.6-0.2l8.1-1.8c0,0-1-1.1-1.6-1.3c-1.8-0.7-8.2-1.1-8.2-1.1s0.7,1.8-0.2,2.3
			c-0.8,0.5-10.2,0.8-12.5,0.7c-3.9-0.3-5.1-1.1-5.2-0.9C213.1,340.4,215.5,345.3,215.5,345.3z"/>
		<path class="st8" d="M123.3,258.1l8.2,3.6l3.6,10.7l52.8-8.7c0,0,5.4-1.7,8.8,6.8c4.9,12.1,17.3,49.6,17.3,49.6l-7.8,8.2
			l-24.6-42.4c0,0-50.4,23.7-67.1,18.5c-6.4-2-11.3-13.2-10.3-24.6c0.7-8.9,2.5-17.1,2.5-17.1L123.3,258.1z"/>
		<path class="st8" d="M130.5,304.2l40.4-2.9l-3.5,62.3l11.9,0.4l8.7-73c0,0-2.4-10.9-10.1-9.2C170.2,283.4,151.6,297.7,130.5,304.2
			z"/>
		<path class="st8" d="M135.6,273.9c0,0,1-25.3,1.7-37.4c0.7-12,0.6-35.2,0.7-38.1c0.2-2.9-0.6-7-0.6-7s-3.6-6.2-7.7-5.7
			c-3.6,0.5-9.1,5.5-12.6,7.8c-3.4,2.3-3,44.6-3.2,46.7c-0.6,7.7-5.2,15.3-8.7,22.7c-2.2,4.7-2.7,12.2-2.7,12.2
			S123.1,271.3,135.6,273.9z"/>
		<polygon class="st8" points="130.9,183.9 133.8,186.7 137.9,191.1 135.8,196 128.6,185.9 		"/>
		<g>
			<path class="st10" d="M125.4,250.1c0,0,0.4,3.1,17,1.3s40.5-8.3,40.5-8.3l-38.6,1C144.3,244,129.6,245.1,125.4,250.1z"/>
			<path class="st11" d="M170,245.6c7.9-0.7,11.6,2.7,14.8,3.5c3.2,0.9,6.5,2.3,6.5,2.3c-2-2.9-4.6-2.8-5.9-3.7
				c-1.4-0.9-1-0.4,1.8-0.8c1.6-0.2,4.6,2.1,6.7,3.4c1.8,1.1,3,1.1,3,1.1s-2.2-2.4-5-4.3c-3.3-2.3-7.4-4.1-8.3-4.3
				c-1.7-0.5-7-0.2-10.8,0.6C168.6,244.2,164.3,246.1,170,245.6z"/>
			<path class="st11" d="M183.1,242.9c0,0,6.2,0.9,7.3,1.5c0.8,0.4,4.1,3.1,4.1,3.1s-2.3-0.2-3.7-1.2
				C189.4,245.4,183.1,242.9,183.1,242.9z"/>
		</g>
		<path class="st8" d="M132.2,242.9l-1.8-39.2c0,0-2.1-8.2-5.2-10.1c-3.7-2.2-8.7,1.9-8.7,1.9s-2.6,6.1-0.8,35
			c1.2,19.3,2.9,29.3,12.1,27.9c8.6-1.3,18.2-3.2,18.2-3.2l3.4-13.2L132.2,242.9z"/>
	</g>
	<g>
		<path class="st12" d="M177.6,252.6C177.5,252.6,177.5,252.6,177.6,252.6v-2h80.5v1.9c0,0,0,0,0,0.1l-0.2,0.4c-1,1.7-2.9,2-5,2
			h-70.1c-2.1,0-4-0.3-5-2L177.6,252.6z"/>
		<path class="st13" d="M197,253L197,253l-0.2,0.3c-0.3,0.4-0.7,0.8-1.2,1h-12.2c-2,0-3.8-0.2-4.8-1.6l-0.2-0.3l0,0v-1H197V253z"/>
		<g>
			<rect x="207.8" y="251.1" class="st13" width="40.2" height="1.4"/>
		</g>
		<g>
			<path class="st14" d="M197.4,250.6l10.4-39.6c0.3-1,1.3-1.9,2.4-1.9h56.5c1,0,1.7,0.8,1.4,1.9l-10.4,39.6H197.4z"/>
			<path class="st13" d="M229.3,229.8c-0.5,2,0.7,3.7,2.7,3.7s4.1-1.6,4.6-3.7c0.5-2-0.7-3.7-2.7-3.7
				C231.9,226.2,229.9,227.8,229.3,229.8z"/>
		</g>
	</g>
	<g>
		<polygon class="st4" points="233.9,390.9 242.1,390.9 228.5,259.2 216.6,259.2 		"/>
		<polygon class="st15" points="217.4,265.3 222.6,305.2 228.8,262.2 228.5,259.2 218.1,259.2 		"/>
		<polygon class="st4" points="147.4,390.9 139.1,390.9 152.7,259.2 164.7,259.2 		"/>
		<polygon class="st15" points="163.9,265.3 147.9,305.9 152.4,262.2 152.7,259.2 163.2,259.2 		"/>
		<rect x="141.2" y="254.9" class="st6" width="99.3" height="7.7"/>
		<rect x="235.9" y="254.9" class="st3" width="35.7" height="7.7"/>
	</g>
</g>
<path class="st16" d="M257.2,142v25.8l1.6-1.6l1.6,1.6l1.6-1.6l1.6,1.6l1.6-1.6l1.6,1.6l1.6-1.6l1.6,1.6l1.6-1.6l1.6,1.6V142H257.2z
	 M259.6,161.2h5.7v-1.6h-5.7V161.2z M259.6,156.4h11.3v-1.6h-11.3V156.4z M259.6,151.5h11.3v-1.6h-11.3V151.5z M259.6,146.6h11.3
	V145h-11.3V146.6z M256.7,167.6L256.7,167.6L256.7,167.6L256.7,167.6z"/>
<path class="st16" d="M257.2,176.1v25.8l1.6-1.6l1.6,1.6l1.6-1.6l1.6,1.6l1.6-1.6l1.6,1.6l1.6-1.6l1.6,1.6l1.6-1.6l1.6,1.6v-25.8
	H257.2z M259.6,195.3h5.7v-1.6h-5.7V195.3z M259.6,190.5h11.3v-1.6h-11.3V190.5z M259.6,185.6h11.3V184h-11.3V185.6z M259.6,180.8
	h11.3v-1.6h-11.3V180.8z M256.7,201.8L256.7,201.8L256.7,201.8L256.7,201.8z"/>
<path class="st16" d="M233,169.4v25.8l1.6-1.6l1.6,1.6l1.6-1.6l1.6,1.6l1.6-1.6l1.6,1.6l1.6-1.6l1.6,1.6l1.6-1.6l1.6,1.6v-25.8H233z
	 M235.5,188.7h5.7v-1.6h-5.7V188.7z M235.5,183.8h11.3v-1.6h-11.3V183.8z M235.5,179h11.3v-1.6h-11.3V179z M235.5,174.1h11.3v-1.6
	h-11.3V174.1z M232.6,195.1L232.6,195.1L232.6,195.1L232.6,195.1z"/>
<path class="st16" d="M280.5,151.9v25.8l1.6-1.6l1.6,1.6l1.6-1.6l1.6,1.6l1.6-1.6l1.6,1.6l1.6-1.6l1.6,1.6l1.6-1.6l1.6,1.6v-25.8
	H280.5z M282.9,171.2h5.7v-1.6h-5.7V171.2z M282.9,166.3h11.3v-1.6h-11.3V166.3z M282.9,161.5h11.3v-1.6h-11.3V161.5z M282.9,156.6
	h11.3V155h-11.3V156.6z M280,177.6L280,177.6L280,177.6L280,177.6z"/>
<path class="st16" d="M283,182.7v25.8l1.6-1.6l1.6,1.6l1.6-1.6l1.6,1.6l1.6-1.6l1.6,1.6l1.6-1.6l1.6,1.6l1.6-1.6l1.6,1.6v-25.8H283z
	 M285.4,202h5.7v-1.6h-5.7V202z M285.4,197.1h11.3v-1.6h-11.3V197.1z M285.4,192.3h11.3v-1.6h-11.3V192.3z M285.4,187.4h11.3v-1.6
	h-11.3V187.4z M282.5,208.4L282.5,208.4L282.5,208.4L282.5,208.4z"/>
<path class="st16" d="M233,135.3v25.8l1.6-1.6l1.6,1.6l1.6-1.6l1.6,1.6l1.6-1.6l1.6,1.6l1.6-1.6l1.6,1.6l1.6-1.6l1.6,1.6v-25.8H233z
	 M235.5,154.6h5.7V153h-5.7V154.6z M235.5,149.7h11.3v-1.6h-11.3V149.7z M235.5,144.8h11.3v-1.6h-11.3V144.8z M235.5,140h11.3v-1.6
	h-11.3V140z M232.6,161L232.6,161L232.6,161L232.6,161z"/>
<g>
	<g>
		<path class="st17" d="M266.3,128.5c0,1.5-1.2,2.7-2.7,2.7H240c-1.5,0-2.7-1.2-2.7-2.7V94c0-1.5,1.2-2.7,2.7-2.7h16.4l10,10
			L266.3,128.5L266.3,128.5z"/>
		<path class="st1" d="M267.9,126.9c0,1.5-1.2,2.7-2.7,2.7h-23.6c-1.5,0-2.7-1.2-2.7-2.7V92.3c0-1.5,1.2-2.7,2.7-2.7H258l10,10
			L267.9,126.9L267.9,126.9z"/>
		<polygon class="st1" points="258.8,98.7 267.9,107.7 267.9,99.6 267,98.7 		"/>
		<path class="st18" d="M257.9,89.6v7.3c0,1.5,1.2,2.7,2.7,2.7h7.3L257.9,89.6z"/>
	</g>
	<path class="st0" d="M263.7,123.8c0,0.2-0.1,0.4-0.2,0.6c-0.1,0.1-0.3,0.2-0.6,0.2h-18.4c-0.4,0-0.8-0.4-0.8-0.8s0.4-0.8,0.8-0.8
		h18.4c0.2,0,0.4,0.1,0.6,0.2C263.6,123.3,263.7,123.5,263.7,123.8L263.7,123.8z"/>
	<path class="st0" d="M244.5,118.7h11c0.4,0,0.8,0.4,0.8,0.8s-0.4,0.8-0.8,0.8h-11c-0.4,0-0.8-0.4-0.8-0.8S244,118.7,244.5,118.7z"
		/>
	<path class="st0" d="M249.9,102.8c0.2-0.1,0.4-0.2,0.6-0.1c0.2,0,0.4,0.1,0.5,0.3l2.9,4l2.9-4c0.3-0.4,0.7-0.4,1.1-0.2
		c0.4,0.3,0.4,0.7,0.2,1.1l-3.4,4.7v0.2h1.9c0.4,0,0.8,0.4,0.8,0.8s-0.4,0.8-0.8,0.8h-1.9v0.8h1.9c0.4,0,0.8,0.4,0.8,0.8
		s-0.4,0.8-0.8,0.8h-1.9v1.4c0,0.4-0.4,0.8-0.8,0.8s-0.8-0.4-0.8-0.8v-1.4h-2c-0.4,0-0.8-0.4-0.8-0.8s0.4-0.8,0.8-0.8h2v-0.8h-2
		c-0.4,0-0.8-0.4-0.8-0.8s0.4-0.8,0.8-0.8h2v-0.2l-3.4-4.7C249.5,103.5,249.6,103,249.9,102.8L249.9,102.8z"/>
</g>
<g>
	<g>
		<path class="st17" d="M325.8,85c0,1.5-1.2,2.7-2.7,2.7h-23.6c-1.5,0-2.7-1.2-2.7-2.7V50.4c0-1.5,1.2-2.7,2.7-2.7h16.4l10,10
			L325.8,85L325.8,85z"/>
		<path class="st1" d="M327.5,83.3c0,1.5-1.2,2.7-2.7,2.7h-23.6c-1.5,0-2.7-1.2-2.7-2.7V48.8c0-1.5,1.2-2.7,2.7-2.7h16.4l10,10
			L327.5,83.3L327.5,83.3z"/>
		<polygon class="st1" points="318.4,55.1 327.5,64.1 327.5,56.1 326.5,55.1 		"/>
		<path class="st19" d="M317.4,46v7.3c0,1.5,1.2,2.7,2.7,2.7h7.3L317.4,46z"/>
	</g>
	<path class="st0" d="M323.2,80.2c0,0.2-0.1,0.4-0.2,0.6c-0.1,0.1-0.3,0.2-0.6,0.2H304c-0.4,0-0.8-0.4-0.8-0.8s0.4-0.8,0.8-0.8h18.4
		c0.2,0,0.4,0.1,0.6,0.2S323.2,80,323.2,80.2L323.2,80.2z"/>
	<path class="st0" d="M304,75.1h11c0.4,0,0.8,0.4,0.8,0.8s-0.4,0.8-0.8,0.8h-11c-0.4,0-0.8-0.4-0.8-0.8S303.6,75.1,304,75.1z"/>
	<path class="st0" d="M309.4,59.2c0.2-0.1,0.4-0.2,0.6-0.1c0.2,0,0.4,0.1,0.5,0.3l2.9,4l2.9-4c0.3-0.4,0.7-0.4,1.1-0.2
		c0.4,0.3,0.4,0.7,0.2,1.1l-3.4,4.7v0.2h1.9c0.4,0,0.8,0.4,0.8,0.8s-0.4,0.8-0.8,0.8h-1.9v0.8h1.9c0.4,0,0.8,0.4,0.8,0.8
		s-0.4,0.8-0.8,0.8h-1.9v1.4c0,0.4-0.4,0.8-0.8,0.8s-0.8-0.4-0.8-0.8v-1.4h-2c-0.4,0-0.8-0.4-0.8-0.8s0.4-0.8,0.8-0.8h2v-0.8h-2
		c-0.4,0-0.8-0.4-0.8-0.8s0.4-0.8,0.8-0.8h2V65l-3.4-4.7C309,60,309.1,59.5,309.4,59.2L309.4,59.2z"/>
</g>
<g>
	<g>
		<path class="st17" d="M284.5,81.1c0,1.5-1.2,2.7-2.7,2.7h-23.6c-1.5,0-2.7-1.2-2.7-2.7V46.6c0-1.5,1.2-2.7,2.7-2.7h16.4l10,10
			L284.5,81.1L284.5,81.1z"/>
		<path class="st1" d="M286.1,79.5c0,1.5-1.2,2.7-2.7,2.7h-23.6c-1.5,0-2.7-1.2-2.7-2.7V44.9c0-1.5,1.2-2.7,2.7-2.7h16.4l10,10
			L286.1,79.5L286.1,79.5z"/>
		<polygon class="st1" points="277,51.3 286.1,60.3 286.1,52.2 285.2,51.3 		"/>
		<path class="st20" d="M276.1,42.2v7.3c0,1.5,1.2,2.7,2.7,2.7h7.3L276.1,42.2z"/>
	</g>
	<path class="st0" d="M281.9,76.3c0,0.2-0.1,0.4-0.2,0.6c-0.1,0.1-0.3,0.2-0.6,0.2h-18.4c-0.4,0-0.8-0.4-0.8-0.8s0.4-0.8,0.8-0.8
		h18.4c0.2,0,0.4,0.1,0.6,0.2C281.8,75.9,281.9,76.1,281.9,76.3L281.9,76.3z"/>
	<path class="st0" d="M262.7,71.2h11c0.4,0,0.8,0.4,0.8,0.8s-0.4,0.8-0.8,0.8h-11c-0.4,0-0.8-0.4-0.8-0.8S262.2,71.2,262.7,71.2z"/>
	<path class="st0" d="M268.1,55.3c0.2-0.1,0.4-0.2,0.6-0.1c0.2,0,0.4,0.1,0.5,0.3l2.9,4l2.9-4c0.3-0.4,0.7-0.4,1.1-0.2
		c0.4,0.3,0.4,0.7,0.2,1.1l-3.4,4.7v0.2h1.9c0.4,0,0.8,0.4,0.8,0.8s-0.4,0.8-0.8,0.8h-1.9v0.8h1.9c0.4,0,0.8,0.4,0.8,0.8
		s-0.4,0.8-0.8,0.8h-1.9v1.4c0,0.4-0.4,0.8-0.8,0.8s-0.8-0.4-0.8-0.8v-1.4h-2c-0.4,0-0.8-0.4-0.8-0.8s0.4-0.8,0.8-0.8h2v-0.8h-2
		c-0.4,0-0.8-0.4-0.8-0.8s0.4-0.8,0.8-0.8h2v-0.2l-3.4-4.7C267.7,56.1,267.7,55.6,268.1,55.3L268.1,55.3z"/>
</g>
<g>
	<g>
		<path class="st17" d="M306,129.6c0,1.5-1.2,2.7-2.7,2.7h-23.6c-1.5,0-2.7-1.2-2.7-2.7V95.1c0-1.5,1.2-2.7,2.7-2.7H296l10,10V129.6
			z"/>
		<path class="st1" d="M307.6,128c0,1.5-1.2,2.7-2.7,2.7h-23.6c-1.5,0-2.7-1.2-2.7-2.7V93.4c0-1.5,1.2-2.7,2.7-2.7h16.4l10,10
			L307.6,128L307.6,128z"/>
		<polygon class="st1" points="298.5,99.8 307.6,108.8 307.6,100.7 306.7,99.8 		"/>
		<path class="st21" d="M297.6,90.7V98c0,1.5,1.2,2.7,2.7,2.7h7.3L297.6,90.7z"/>
	</g>
	<path class="st0" d="M303.4,124.9c0,0.2-0.1,0.4-0.2,0.6c-0.1,0.1-0.3,0.2-0.6,0.2h-18.4c-0.4,0-0.8-0.4-0.8-0.8s0.4-0.8,0.8-0.8
		h18.4c0.2,0,0.4,0.1,0.6,0.2S303.4,124.7,303.4,124.9L303.4,124.9z"/>
	<path class="st0" d="M284.2,119.8h11c0.4,0,0.8,0.4,0.8,0.8s-0.4,0.8-0.8,0.8h-11c-0.4,0-0.8-0.4-0.8-0.8S283.7,119.8,284.2,119.8z
		"/>
	<path class="st0" d="M289.6,103.9c0.2-0.1,0.4-0.2,0.6-0.1c0.2,0,0.4,0.1,0.5,0.3l2.9,4l2.9-4c0.3-0.4,0.7-0.4,1.1-0.2
		c0.4,0.3,0.4,0.7,0.2,1.1l-3.4,4.7v0.2h1.9c0.4,0,0.8,0.4,0.8,0.8s-0.4,0.8-0.8,0.8h-1.9v0.8h1.9c0.4,0,0.8,0.4,0.8,0.8
		s-0.4,0.8-0.8,0.8h-1.9v1.4c0,0.4-0.4,0.8-0.8,0.8s-0.8-0.4-0.8-0.8v-1.4h-2c-0.4,0-0.8-0.4-0.8-0.8s0.4-0.8,0.8-0.8h2v-0.8h-2
		c-0.4,0-0.8-0.4-0.8-0.8s0.4-0.8,0.8-0.8h2v-0.2l-3.4-4.7C289.2,104.6,289.2,104.1,289.6,103.9L289.6,103.9z"/>
</g>
<g>
	<path class="st9" d="M36,393.4c0.5,0.5,0.4,2.2,0.4,2.2s-7.7,1.9-10.3,1.6c-0.7-0.1-1.8-0.6-3-1.1c-0.2-0.1-0.6-0.7-0.8-0.8
		c-0.3-0.2-0.5,0.2-0.8,0c-0.7-0.4-1.3-0.7-1.3-0.8c-1.1-3.9-0.4-5.6-0.4-5.6s6.4-3.2,7.8-1.7C31.1,390.9,34.9,392.2,36,393.4z"/>
	<path class="st9" d="M55.8,386.9l1.2,6.4h3.1c0,0,0.3-0.9,0.9-0.9c0.4,0,1,0.9,1.6,0.9c1.3,0,2.8,0,3.4,0c1.2,0,12.5,0,12.5,0
		s0.3-1.4-0.1-1.8c-0.2-0.2-1.2-0.6-1.9-0.9c-3.2-1-12.5-3.9-14.1-7.1C60.4,379.6,55.8,386.9,55.8,386.9z"/>
	<g>
		<path class="st9" d="M61.2,217.6l0.9,82.1l-17.3,9.6c0,0-10.4-19.6-11.7-44.6c-0.6-10.6-0.8-34.4,5.1-42.5
			C46.1,211.2,61.2,217.6,61.2,217.6z"/>
		<path class="st22" d="M56,215.3l0.5,28.5l-4.1,31.5l-4.8,29.6l-19.7,82.8l-8.4,1.7c0,0-6-59.7,2.3-78.3c4.4-9.8,2-30.3,1.9-52.5
			c0-4-3.3-12.7-3.4-16.3c-0.3-14.4,5.8-25.9,5.8-25.9L56,215.3z"/>
		<path class="st0" d="M61.5,218.8L23.9,218l-16-53.7c0,0-10.4-32.5,9.5-32.9c20-0.4,42.9-0.4,42.9-0.4S76.8,161.2,61.5,218.8z"/>
		<path class="st20" d="M41,138.5c0,0,17.5,30.2,12.5,63.5c-0.4,2.6-3.5,4.5-3.5,4.5l-4.3-3.8C45.7,202.8,46.1,165,41,138.5z"/>
		<path class="st0" d="M53.2,133c0,0-6.8,4,4.4,32.8C68.8,194.7,73,190.9,73,190.9l5.7-1l8.6-18.9l-7.1-7l-1.1,0.7
			c0,0-1.7-0.8-2.2-2.8s-4.5-10.3-9.1-27.3C65.7,126.7,54.5,132.2,53.2,133z"/>
		<path class="st9" d="M61.8,387c0,0-3.6,5.1-6.2,0.3c-6-11.1-15-38.6-15.3-51c-0.4-17.9,2.6-30.4,2.6-30.4l19.1-6.2L61.8,387z"/>
		<path class="st10" d="M48.3,194.8l31.8-19.9c0,0,4.1,1.4,1.6,3c-0.3,0.2-1-1.1-2,0.3c-3.9,5.4-10.6,18.4-16.1,22.8
			c-7.3,5.8-17.9,9.7-17.9,9.7L48.3,194.8z"/>
		<path class="st10" d="M80.7,169.9l-38.4,20.7c0,0-1.1,4.2,1.6,3c0.3-0.1-0.3-1.4,1.3-1.5c6.7-0.3,21.2,1.2,27.9-1
			c2.7-0.9,4.9-1.9,6.8-2.8c3.9-2,7.5-8.5,5.8-12.6L80.7,169.9z"/>
		<polygon class="st1" points="40.4,137.7 39.5,144.3 28,133.5 28,131.8 		"/>
		<polygon class="st1" points="44,133.4 46,142 41,137.7 		"/>
		<path class="st1" d="M68.4,168.3l4.4-3.8l1.9-1.4c0.7,1.5,2.3,2,2.3,2l-3.8,2.1l-4,3.4l-3.9,6.2L68.4,168.3z"/>
		<path class="st0" d="M31.1,156.7l22.5,32.9l-0.8,2.9l2.9,0.2l-7.3,14.6l-14.1-1.6L4.4,160.2c0,0-4.3-12.2,3.9-26.3
			C14.4,123.7,29.2,154.1,31.1,156.7z"/>
		<path class="st1" d="M40.8,203c0,0,8.2-7.6,12.3-11.7l-0.3,1.3l2.9,0.2l-2.6,5l-4.7,6.6l-3.2-0.8l0.9-2.3L40.8,203z"/>
		<path class="st10" d="M26.6,123.8c0.4,2.1,1.2,5.3,2,7.1c1.3,2.9,12.6,6.7,14.3,7.1c1.7,0.4-0.4-8.8-0.4-10.8c0-1.6-1-1.1,0.2-3.4
			C42.7,123.8,26.6,123.8,26.6,123.8z"/>
	</g>
	<g>
		<path class="st10" d="M46.1,120.5c0.3,1.9-0.9,3.6-2.7,3.9l-14.6,2.3c-1.8,0.3-3.5-1-3.8-2.9l-3.6-22.7c-0.3-1.9,0.9-3.6,2.7-3.9
			l14.5-2.3c1.8-0.3,3.5,1,3.8,2.9L46.1,120.5z"/>
		<path class="st9" d="M43.2,102c0,0,1.6-2.4,1.8-3.7c0.1-0.7-0.9-3-2.7-3.7s-2.8,1.3-2.8,1.3s2.8,1,3,1.5
			C42.7,97.9,43.2,102,43.2,102z"/>
		<path class="st22" d="M21.5,110.9c0,0-3.5-7.9-3.5-10.4s0-4.2,2.9-5c4.4-1.1,4.6-0.2,6.5-1.9c1.9-1.7,5.3-5.6,6.6-6.1
			c2.1-0.9,5.7-0.7,6.5,3.4c0.6,3.1,2.7,3.5,2.6,3.6c-0.1,0.4-0.9,0.9-2.2,1.8c-3.7,2.7-6.1,3.5-9.3,3.1c-3.2-0.3-9.3-1.1-9.6,1.3
			c-0.3,2.4,1.1,9.4,0.9,9.9C22.8,111.4,22.1,111.2,21.5,110.9z"/>
		<path class="st10" d="M27.1,116.6c0.1,0.6-0.3,1.2-0.9,1.3l-3.1,0.5c-0.6,0.1-1.2-0.3-1.3-0.9l-0.9-5.7c-0.1-0.6,0.3-1.2,0.9-1.3
			l3.1-0.5c0.6-0.1,1.2,0.3,1.2,0.9L27.1,116.6z"/>
		<path class="st10" d="M45.9,113.6c0.1,0.6-0.3,1.2-0.9,1.3l-3.1,0.5c-0.6,0.1-1.2-0.3-1.3-0.9l-0.9-5.7c-0.1-0.6,0.3-1.2,0.9-1.3
			l3.1-0.5c0.6-0.1,1.2,0.3,1.2,0.9L45.9,113.6z"/>
		<path class="st10" d="M37.2,120.2l4.5-0.7c0.6-0.1,1-0.7,0.9-1.3l-0.1-0.6l-6.6,1.1l0.1,0.6C36.1,119.9,36.6,120.3,37.2,120.2z"/>
	</g>
</g>
<g>
	<g>
		<g>
			<circle id="SVGID_1_" class="st23" cx="430.5" cy="143.6" r="28.2"/>
		</g>
		<g>
			<defs>
				<circle id="SVGID_2_" cx="430.5" cy="143.6" r="28.2"/>
			</defs>
			<clipPath id="SVGID_4_">
				<use xlink:href="#SVGID_2_"  style="overflow:visible;"/>
			</clipPath>
			<g class="st24">
				<g>
					<path class="st0" d="M392.5,197.9l-12.8,21.5c0,0-0.1-15,3.4-23.7S392.8,197.6,392.5,197.9z"/>
					<path class="st25" d="M418,150c0,0-6.3,0.2-18,14.8c-1.1,1.3-2.2,3.1-3.3,4.7C382.5,189,384.8,190,384.8,190l-1.9,5.2l8,5.1
						l23.5-30.9L418,150z"/>
					<path class="st25" d="M414.4,169.4l-19.9,26.1l-0.1-0.1l1.5-5.3c0,0-2.4-0.8,10.4-21.2c4.2-6.7,7.8-11.3,10.8-14.4L414.4,169.4
						z"/>
					<polygon class="st26" points="387.4,192.6 392.9,195.6 394.1,196.6 392.1,200.7 386.4,195.7 					"/>
				</g>
				<path class="st10" d="M425.2,148.6c0.2,2.9,1.8,5.3,3.4,5.4c1.5,0,3.1,0,4.6,0c1.6-0.1,3.1-2.6,3.4-5.4
					c0.4-4.7,0.8-9.4,1.1-14.1c0.3-2.8-0.9-8.5-3.3-10.2c-2.2-1.5-4.8-1.5-7,0c-2.4,1.7-3.5,7.3-3.3,10.2
					C424.5,139.2,424.9,143.9,425.2,148.6z"/>
				<path class="st0" d="M456.3,196L444,216c0,0,18.3-8.8,17.3-16.9C460.4,190.8,456.3,196,456.3,196z"/>
				<path class="st25" d="M412.5,152.7l5-2.6l6.1-0.3l8.7,2.7l7.3-1.6l9.8,4.2c0,0,4.4,4.2,0.3,17.8c-4.1,13.6-2.5,29.3-2.5,29.3
					l-32,1.3C415.1,203.6,415.9,160.2,412.5,152.7z"/>
				<path class="st25" d="M443.1,155.8c0,0,2.6-2.1,6-0.7c1.4,0.6,3.1,2.4,4.7,4.3c9.1,11.3,13.5,25.4,14.5,28.1
					c0.9,2.7,2.2,10.9-1.6,13.3c-3.8,2.4-3.8,2.4-3.8,2.4l-8.3-4.7l1.7-2.5l0.6-1.5c0,0-4.4-9.7-9.1-18.4
					C443.1,167.3,443.1,155.8,443.1,155.8z"/>
				<polygon class="st25" points="432.7,152.1 436.2,155.9 439.7,150.9 437.6,147.8 				"/>
				<polygon class="st25" points="424.8,147.6 431.6,151.9 428.4,155.8 423.1,149.8 				"/>
				<rect x="430.4" y="151.9" class="st25" width="3" height="51.3"/>
				<path class="st26" d="M456.3,196c0,0-0.6,0-1.2,1.1c-0.5,1-1.9,2-1,2.3c0.8,0.3,4.9,4.3,5.5,4.7c0.6,0.5,2.8-0.3,2.8-0.3
					s1.5-0.7,1.3-1.1C463.6,202.5,457.2,196.2,456.3,196z"/>
				<g>
					<path class="st9" d="M430.3,123.5v-3.2H429h-3.5h-2.1c-2.3,0-4.2,1.9-4.2,4.2v3.2h1.3h3.5h2.1
						C428.5,127.7,430.3,125.8,430.3,123.5z"/>
					<path class="st10" d="M436.9,142.9c0,2.1-1.7,3.7-3.7,3.7h-8.5c-2.1,0-3.7-1.7-3.7-3.7V126c0-2.1,1.7-3.7,3.7-3.7h8.5
						c2.1,0,3.7,1.7,3.7,3.7V142.9z"/>
					<path class="st9" d="M430.6,120.3c1.5,0,2.8,0.8,3.5,1.9h1.4c1.8,0,3.3,1.5,3.3,3.3v8h-2.3v-3.3c0-1.3-1-2.3-2.3-2.3h-1.3h-3.5
						h-2.1c-2.3,0-4.2-1.9-4.2-4.2v-3.4C423.1,120.3,430.6,120.3,430.6,120.3z"/>
					<path class="st10" d="M435.8,135.6c0-1.1,0.9-2,2-2h0.2c1.1,0,2,0.9,2,2v2.4c0,1.1-0.9,2-2,2h-0.2c-0.8,0-1.5-0.5-1.8-1.2"/>
				</g>
			</g>
		</g>
	</g>
</g>
<g>
	<g>
		<g>
			<path id="SVGID_3_" class="st23" d="M332.4,143.6c0,15.5,12.6,28.1,28.2,28.1c15.5,0,28.2-12.6,28.2-28.1s-12.6-28.2-28.2-28.2
				C345.1,115.4,332.4,128.1,332.4,143.6z"/>
		</g>
		<g>
			<defs>
				<path id="SVGID_6_" d="M332.4,143.6c0,15.5,12.6,28.1,28.2,28.1c15.5,0,28.2-12.6,28.2-28.1s-12.6-28.2-28.2-28.2
					C345.1,115.4,332.4,128.1,332.4,143.6z"/>
			</defs>
			<clipPath id="SVGID_8_">
				<use xlink:href="#SVGID_6_"  style="overflow:visible;"/>
			</clipPath>
			<g class="st27">
				<polygon class="st22" points="381.3,155.6 375.9,169.2 394,199.1 405.2,198.4 403.8,186.9 				"/>
				<g>
					<g>
						<path class="st10" d="M356.1,136.3c0.5,1.5,0,3-1.1,3.3l0,0c-1,0.3-2.3-0.7-2.7-2.2l-0.6-1.9c-0.5-1.5,0-3,1.1-3.3l0,0
							c1-0.3,2.3,0.7,2.7,2.2L356.1,136.3z"/>
						<path class="st10" d="M366.4,150.4c-0.1,2.8-1.5,5.3-3.1,5.5c-1.5,0.1-3,0.1-4.5,0.2c-1.6,0-3.2-2.4-3.5-5.2
							c-0.6-4.6-1.1-9.2-1.7-13.8c-0.4-2.8,0.5-8.3,2.8-10.1c2.1-1.6,4.6-1.7,6.9-0.3c2.5,1.5,3.8,7,3.7,9.8
							C366.7,141.1,366.6,145.8,366.4,150.4z"/>
						<path class="st10" d="M368.4,143.2c-0.6,2.6-1.7,3.3-3.5,3.7c-1.8,0.3-2.2,0.5-4,0.7c-1.9,0.2-4-2.3-4.5-4.6
							c-0.9-3.8-3.1-6.9-4-10.6c-0.6-2.3,0.3-4.4,3-6.2c2.5-1.6,5.4-4.8,8.2-3.9c3,1,4.9,5.4,4.8,7.8
							C368.4,133.9,368.4,139.2,368.4,143.2z"/>
						<path class="st9" d="M350.8,129.4l1.5,2.9c0,0,2.8-3.5,4.8-6.3c0.6-0.9,7.4-1.3,9.1-1c1.2,0.2,1.4,1.7,1.8,2.6
							c1.1,3.2-0.7-5.5-0.7-5.5s-2.5-4-6.8-4.2c-2.4-0.1-3.4,1.3-4.2,3.2c-0.2,0.4,2.6-0.8,2.1-0.8c-0.1,0-2.8,2.6-2.9,2.7
							c-0.4,0.9-0.8,1.9-1.4,2.7C351.9,129,350.8,129.4,350.8,129.4z"/>
						<polygon class="st10" points="361,130.7 362.9,130.9 362.4,132.1 363.9,132.6 365.6,138.2 363.2,138.5 362.7,135 361.1,133.3 
							357.3,133.2 						"/>
					</g>
					<path class="st28" d="M380,157l-14.3-6.1l-4.8,2.9l-8.7-2.2c0,0-10.2,6.1-11.2,6.1s0.3,57.1,0.3,57.1l25.8,8.2l9.9-6.5L380,157
						z"/>
					<polygon class="st22" points="369.8,218.3 368.1,164.1 366.1,151.2 381.4,155.5 382.4,221.5 					"/>
					<polygon class="st22" points="354.9,150.8 350.9,158.4 348.4,214.7 348.1,219 331.1,217.2 336.9,164.8 339.9,154.1 					"/>
					<polygon class="st9" points="371.2,192.6 375.6,170.6 372.9,166.5 375.3,155.9 372.9,152.5 365.8,150.2 368.1,175 369.5,207.6 
											"/>
					<path class="st9" d="M354.9,150.7c0.3,1-3.6,8.2-3.6,8.2l-2.2,40.9l-5.1-30.2l1.4-5.4l-1.4-3.4l4.2-8.6L354.9,150.7z"/>
					<polygon class="st28" points="361.3,153.5 364.8,157.4 367.5,150.8 366.7,149 					"/>
					<polygon class="st28" points="354.9,148.9 360,153.5 356.7,157.5 353.8,151 					"/>
				</g>
			</g>
		</g>
	</g>
</g>
<g>
	<g>
		<g>
			<circle id="SVGID_5_" class="st23" cx="348.9" cy="215.8" r="28.2"/>
		</g>
		<g>
			<defs>
				<circle id="SVGID_10_" cx="348.9" cy="215.8" r="28.2"/>
			</defs>
			<clipPath id="SVGID_12_">
				<use xlink:href="#SVGID_10_"  style="overflow:visible;"/>
			</clipPath>
			<g class="st29">
				<path class="st9" d="M355.2,207c1,0,1.9,0.1,2.9,0.3c-0.2,0.9-0.3,1.9-0.3,2.9c0,7.9,5.8,14.4,13.5,15.8
					c-1.4,7.5-8.1,13.1-16.1,13.1c-9,0-16.4-7.2-16.4-16C338.9,214.2,346.2,207,355.2,207z"/>
				<path class="st9" d="M334.6,207.7c1.9-1,4.2-1.7,6.5-1.7c7.4,0,13.5,5.9,13.5,13.2s-6,13.2-13.5,13.2c-7.3,0-13.2-5.7-13.4-12.7
					C331.6,217,334.2,212.7,334.6,207.7z"/>
				<path class="st9" d="M334.6,205.9c0,6.9,5.3,12.6,11.8,12.6s11.8-5.6,11.8-12.6c0-6.9-5.3-12.6-11.8-12.6
					C339.8,193.4,334.6,199,334.6,205.9z"/>
				<path class="st10" d="M361.5,226.3c0,0-5.6,10.8-12.1,12.3s-15.6,0.1-16.5-2.5s1.4-7.8,2.9-9.1s6.4-2.6,7.7-5
					c1.1-2,0.7-5.6,0-8.4c-0.7-2.8-3-3-0.7-4.3c2.2-1.3,1.3-2.6,3.6-2.2c2.2,0.4,3.6-0.5,3.6,1.7c0,3.9-0.3,9.4,1.9,12
					C354,223.5,356.4,224.3,361.5,226.3z"/>
				<path class="st10" d="M341.9,198.5c0.2-0.1,0.4-0.1,0.6-0.1c0.4,2.3,2.2,5,5.1,7.2c0.7,0.5,1.4,1,2.1,1.4v2.2
					c0,3.2-2.7,5.8-6.1,5.8s-6.1-2.6-6.1-5.8v-4.9C339.2,203.1,340.8,201,341.9,198.5z"/>
				<path class="st10" d="M341.8,272.8c1.2,5.5,0.1,6.3,3.2,1.6l23.2-36.5c3.1-4.6,1.3-10.1-4.1-11.2l-28.9-5.3
					c-5.4-1.1-7.2,4.2-5.9,9.7L341.8,272.8z"/>
				<path class="st30" d="M364.6,228.3c-3.9,13.3,4.2,39,4.2,39s2.7,1.4,3.7-0.8c1.3-2.8,0.9-11-0.6-30
					C371,224.6,365.3,226.1,364.6,228.3z"/>
				<path class="st0" d="M329,242.3c1.2-4.6,2.4-9.2,3.6-13.8c0.3-1,0.6-1.9,1.1-2.7c10.2,2.4,20.7,3.8,31.3,4.1
					c0.1,0.4,0.1,0.9,0.1,1.3c0.3,5-0.1,10,0.1,14.9c0.1,2.1-1.5,4.1-3.3,5.5c0.2,0.4,0.3,0.8,0.3,1.2l0.4,2.4
					c0.1,2-1.3,8.8-3.2,8.9l-20.1,1.1c-1.9,0.1-4.3-4-4.4-6l-2.8-9.7c0-0.2,0-0.3,0-0.5C330,247.2,328.3,244.7,329,242.3z"/>
				<path class="st30" d="M357.4,224.7c0,0,10.4-0.3,12.2,4.7c1.8,5-2.6,12.3-2.6,12.3s-2.6,9.3-3.4,14.3c-0.7,5,2.5,9.8,1.5,8.8
					c-0.2-0.2-2.6,0-6.3-1.7c-3.8-1.8-1.7-8.6-1.3-10.8c0.4-2.2,2.2-13.1,1.8-14.9C358.9,235.5,357.4,224.7,357.4,224.7z"/>
				<path class="st30" d="M327.6,228.8c0,0-0.8-4.2,0.9-5.8c2.5-2.4,8.6-2.1,10.6-1.5s3.3,1.2,3.3,1.2s-6.9,2.8-6.6,17.1
					c0,2.4,0.7,7.4,1.5,11.2s1.1,11.2,1.1,11.2s-4.1,0.8-4.3,1.5c-0.2,0.6-0.4-4.4-3.3-9.2C328,249.7,327.6,228.8,327.6,228.8z"/>
				<path class="st31" d="M336.7,221.1c-3.8,3.2-6.2,5.9-5.6,22.5c0.1,2.7,0,7.6,0.5,12.2c-0.2-0.5-1.4-2.6-1.6-3.1
					c-3.8-9.6-2.4-23.9-2.4-23.9s-0.8-4.2,0.9-5.8C330.3,221.2,334,220.9,336.7,221.1z"/>
			</g>
		</g>
	</g>
</g>
<g>
	<g>
		<g>
			<circle id="SVGID_7_" class="st23" cx="418.9" cy="215.8" r="28.2"/>
		</g>
		<g>
			<defs>
				<circle id="SVGID_13_" cx="418.9" cy="215.8" r="28.2"/>
			</defs>
			<clipPath id="SVGID_14_">
				<use xlink:href="#SVGID_13_"  style="overflow:visible;"/>
			</clipPath>
			<g class="st32">
				<g>
					<path class="st0" d="M456.9,270.1l12.8,21.5c0,0,0.1-15-3.4-23.7C462.8,259.2,456.6,269.8,456.9,270.1z"/>
					<path class="st33" d="M431.4,222.2c0,0,6.3,0.2,18,14.8c1.1,1.3,2.2,3.1,3.3,4.7c14.2,19.5,11.9,20.5,11.9,20.5l1.9,5.2l-8,5.1
						L435,241.6L431.4,222.2z"/>
					<path class="st26" d="M435,241.6l19.9,26.1l0.1-0.1l-1.5-5.3c0,0,2.4-0.8-10.4-21.2c-4.2-6.7-7.8-11.3-10.8-14.4L435,241.6z"/>
					<polygon class="st26" points="462.1,264.8 456.6,267.8 455.3,268.8 457.3,272.9 463,267.9 					"/>
				</g>
				<path class="st10" d="M424.2,220.8c-0.2,2.9-1.8,5.3-3.4,5.4c-1.5,0-3.1,0-4.6,0c-1.6-0.1-3.1-2.6-3.4-5.4
					c-0.4-4.7-0.8-9.4-1.1-14.1c-0.3-2.8,0.9-8.5,3.3-10.2c2.2-1.5,4.8-1.5,7,0c2.4,1.7,3.5,7.3,3.3,10.2
					C425,211.4,424.6,216.1,424.2,220.8z"/>
				<path class="st0" d="M393.1,268.2l12.3,20c0,0-18.3-8.8-17.3-16.9C389,263,393.1,268.2,393.1,268.2z"/>
				<path class="st33" d="M437,224.9l-5-2.6l-6.1-0.3l-8.7,2.7l-7.3-1.6l-9.8,4.2c0,0-4.4,4.2-0.3,17.8s2.5,29.3,2.5,29.3l32,1.3
					C434.3,275.8,433.5,232.4,437,224.9z"/>
				<path class="st33" d="M406.4,228c0,0-2.6-2.1-6-0.7c-1.4,0.6-3.1,2.4-4.7,4.3c-9.1,11.3-13.5,25.4-14.5,28.1
					c-0.9,2.7-2.2,10.9,1.6,13.3c3.8,2.4,3.8,2.4,3.8,2.4l8.3-4.7l-1.7-2.5l-0.6-1.5c0,0,4.4-9.7,9.1-18.4
					C406.4,239.5,406.4,228,406.4,228z"/>
				<polygon class="st26" points="416.7,224.3 413.2,228.1 409.7,223.1 411.8,220 				"/>
				<polygon class="st26" points="424.6,219.8 417.9,224.1 421.1,228 426.3,222 				"/>
				<rect x="416" y="224.1" class="st26" width="3" height="51.3"/>
				<path class="st26" d="M393.1,268.2c0,0,0.6,0,1.2,1.1c0.5,1,1.9,2,1,2.3c-0.8,0.3-4.9,4.3-5.5,4.7c-0.6,0.5-2.8-0.3-2.8-0.3
					s-1.5-0.7-1.3-1.1C385.9,274.7,392.2,268.4,393.1,268.2z"/>
				<g>
					<path class="st9" d="M419.1,195.7v-3.2h1.3h3.5h2.1c2.3,0,4.2,1.9,4.2,4.2v3.2h-1.3h-3.5h-2.1C421,199.9,419.1,198,419.1,195.7
						z"/>
					<path class="st10" d="M412.5,215.1c0,2.1,1.7,3.7,3.7,3.7h8.5c2.1,0,3.7-1.7,3.7-3.7v-16.9c0-2.1-1.7-3.7-3.7-3.7h-8.5
						c-2.1,0-3.7,1.7-3.7,3.7V215.1z"/>
					<path class="st9" d="M418.8,192.5c-1.5,0-2.8,0.8-3.5,1.9h-1.4c-1.8,0-3.3,1.5-3.3,3.3v8h2.3v-3.3c0-1.3,1-2.3,2.3-2.3h1.3h3.5
						h2.1c2.3,0,4.2-1.9,4.2-4.2v-3.4H418.8z"/>
					<path class="st10" d="M413.6,207.8c0-1.1-0.9-2-2-2h-0.2c-1.1,0-2,0.9-2,2v2.4c0,1.1,0.9,2,2,2h0.2c0.8,0,1.5-0.5,1.8-1.2"/>
				</g>
			</g>
		</g>
	</g>
</g>
<g>
	<g>
		<g>
			<path id="SVGID_9_" class="st23" d="M475.3,69.2c0,15.5-12.6,28.1-28.2,28.1c-15.5,0-28.2-12.6-28.2-28.1S431.5,41,447.1,41
				C462.7,41,475.3,53.6,475.3,69.2z"/>
		</g>
		<g>
			<defs>
				<path id="SVGID_15_" d="M475.3,69.2c0,15.5-12.6,28.1-28.2,28.1c-15.5,0-28.2-12.6-28.2-28.1S431.5,41,447.1,41
					C462.7,41,475.3,53.6,475.3,69.2z"/>
			</defs>
			<clipPath id="SVGID_16_">
				<use xlink:href="#SVGID_15_"  style="overflow:visible;"/>
			</clipPath>
			<g class="st34">
				<polygon class="st22" points="426.5,81.1 431.8,94.8 413.8,124.6 402.6,124 404,112.4 				"/>
				<g>
					<g>
						<path class="st10" d="M451.7,61.8c-0.5,1.5,0,3,1.1,3.3l0,0c1,0.3,2.3-0.7,2.7-2.2l0.6-1.9c0.5-1.5,0-3-1.1-3.3l0,0
							c-1-0.3-2.3,0.7-2.7,2.2L451.7,61.8z"/>
						<path class="st10" d="M441.4,75.9c0.1,2.8,1.5,5.3,3.1,5.5c1.5,0.1,3,0.1,4.5,0.2c1.6,0,3.2-2.4,3.5-5.2
							c0.6-4.6,1.1-9.2,1.7-13.8c0.4-2.8-0.5-8.3-2.8-10.1c-2.1-1.6-4.6-1.7-6.9-0.3c-2.5,1.5-3.8,7-3.7,9.8
							C441,66.7,441.2,71.3,441.4,75.9z"/>
						<path class="st10" d="M439.3,68.7c0.6,2.6,1.7,3.3,3.5,3.7c1.8,0.3,2.2,0.5,4,0.7c1.9,0.2,4-2.3,4.5-4.6
							c0.9-3.8,3.1-6.9,4-10.6c0.6-2.3-0.3-4.4-3-6.2c-2.5-1.6-5.4-4.8-8.2-3.9c-3,1-4.9,5.4-4.8,7.8
							C439.4,59.5,439.3,64.8,439.3,68.7z"/>
						<path class="st9" d="M457,55l-1.5,2.9c0,0-2.8-3.5-4.8-6.3c-0.6-0.9-7.4-1.3-9.1-1c-1.2,0.2-1.4,1.7-1.8,2.6
							c-1.1,3.2,0.7-5.5,0.7-5.5s2.5-4,6.8-4.2c2.4-0.1,3.4,1.3,4.2,3.2c0.2,0.4-2.6-0.8-2.1-0.8c0.1,0,2.8,2.6,2.9,2.7
							c0.4,0.9,0.8,1.9,1.4,2.7C455.8,54.6,457,55,457,55z"/>
						<polygon class="st10" points="446.8,56.3 444.9,56.5 445.4,57.6 443.9,58.1 442.1,63.8 444.6,64.1 445.1,60.6 446.7,58.9 
							450.4,58.7 						"/>
					</g>
					<path class="st35" d="M427.8,82.5l14.3-6.1l4.8,2.9l8.7-2.2c0,0,10.2,6.1,11.2,6.1s-0.3,57.1-0.3,57.1l-25.8,8.2l-9.9-6.5
						L427.8,82.5z"/>
					<polygon class="st22" points="438,143.9 439.7,89.6 441.7,76.8 426.4,81 425.4,147.1 					"/>
					<polygon class="st22" points="452.9,76.4 456.9,84 459.4,140.3 459.7,144.6 476.7,142.8 470.9,90.3 467.8,79.7 					"/>
					<polygon class="st9" points="436.6,118.2 432.2,96.1 434.9,92 432.5,81.5 434.9,78.1 442,75.7 439.7,100.5 438.3,133.1 					
						"/>
					<path class="st9" d="M452.9,76.2c-0.3,1,3.6,8.2,3.6,8.2l2.2,40.9l5.1-30.2l-1.4-5.4l1.4-3.4l-4.2-8.6L452.9,76.2z"/>
					<polygon class="st36" points="446.4,79 443,82.9 440.3,76.3 441.1,74.6 					"/>
					<polygon class="st36" points="452.9,74.5 447.8,79 451.1,83.1 454,76.5 					"/>
				</g>
			</g>
		</g>
	</g>
</g>
<g>
	<g>
		<g>
			<circle id="SVGID_11_" class="st23" cx="377.2" cy="69.2" r="28.2"/>
		</g>
		<g>
			<defs>
				<circle id="SVGID_17_" cx="377.2" cy="69.2" r="28.2"/>
			</defs>
			<clipPath id="SVGID_18_">
				<use xlink:href="#SVGID_17_"  style="overflow:visible;"/>
			</clipPath>
			<g class="st37">
				<path class="st9" d="M391.6,59.3c0,6.9-5.3,12.6-11.8,12.6S368,66.3,368,59.3c0-6.9,5.3-12.6,11.8-12.6
					C386.4,46.7,391.6,52.3,391.6,59.3z"/>
				<path class="st10" d="M364.7,79.6c0,0,5.6,10.8,12.1,12.3s15.6,0.1,16.5-2.5s-1.4-7.8-2.9-9.1c-1.5-1.3-6.4-2.6-7.7-5
					c-1.1-2-0.7-5.6,0-8.4s3-3,0.7-4.3c-2.2-1.3-1.3-2.6-3.6-2.2c-2.2,0.4-3.6-0.5-3.6,1.7c0,3.9,0.3,9.4-1.9,12
					C372.2,76.8,369.8,77.6,364.7,79.6z"/>
				<path class="st10" d="M384.3,51.8c-0.2-0.1-0.4-0.1-0.6-0.1c-0.4,2.3-2.2,5-5.1,7.2c-0.7,0.5-1.4,1-2.1,1.4v2.2
					c0,3.2,2.7,5.8,6.1,5.8s6.1-2.6,6.1-5.8v-4.9C387,56.4,385.4,54.4,384.3,51.8z"/>
				<path class="st10" d="M384.4,126.1c-1.2,5.5-0.1,6.3-3.2,1.6L358,91.3c-3.1-4.6-1.3-10.1,4.1-11.2l28.9-5.3
					c5.4-1.1,7.2,4.2,5.9,9.7L384.4,126.1z"/>
				<path class="st30" d="M361.6,81.6c3.9,13.3-4.2,39-4.2,39s-2.7,1.4-3.7-0.8c-1.3-2.8-0.9-11,0.6-30
					C355.2,78,360.9,79.4,361.6,81.6z"/>
				<path class="st33" d="M397.2,95.7c-1.2-4.6-2.4-9.2-3.6-13.8c-0.3-1-0.6-1.9-1.1-2.7c-10.2,2.4-20.7,3.8-31.3,4.1
					c-0.1,0.4-0.1,0.9-0.1,1.3c-0.3,5,0.1,10-0.1,14.9c-0.1,2.1,1.5,4.1,3.3,5.5c-0.2,0.4-0.3,0.8-0.3,1.2l-0.4,2.4
					c-0.1,2,1.3,8.8,3.2,8.9l20.1,1.1c1.9,0.1,4.3-4,4.4-6l2.8-9.7c0-0.2,0-0.3,0-0.5C396.1,100.5,397.9,98,397.2,95.7z"/>
				<path class="st9" d="M368.8,78c0,0-10.4-0.3-12.2,4.7c-1.8,5,2.6,12.3,2.6,12.3s2.6,9.3,3.4,14.3c0.7,5-2.5,9.8-1.5,8.8
					c0.2-0.2,2.6,0,6.3-1.7c3.8-1.8,1.7-8.6,1.3-10.8c-0.4-2.2-2.2-13.1-1.8-14.9C367.3,88.8,368.8,78,368.8,78z"/>
				<path class="st9" d="M398.6,82.2c0,0,0.8-4.2-0.9-5.8c-2.5-2.4-8.6-2.1-10.6-1.5s-3.3,1.2-3.3,1.2s6.9,2.8,6.6,17.1
					c0,2.4-0.7,7.4-1.5,11.2c-0.8,3.8-1.1,11.2-1.1,11.2s4.1,0.8,4.3,1.5c0.2,0.6,0.4-4.4,3.3-9.2C398.2,103,398.6,82.2,398.6,82.2z
					"/>
				<path class="st9" d="M389.5,74.4c3.8,3.2,6.2,5.9,5.6,22.5c-0.1,2.7,0,7.6-0.5,12.2c0.2-0.5,1.4-2.6,1.6-3.1
					c3.8-9.6,2.4-23.9,2.4-23.9s0.8-4.2-0.9-5.8C395.9,74.6,392.2,74.3,389.5,74.4z"/>
			</g>
		</g>
	</g>
</g>
<g>
	<path class="st13" d="M384.2,102.5L384.2,102.5v-1l-41.7-0.8v1l0,0l0.1,0.2c0.5,0.9,1.5,1.1,2.6,1.1l36.3,0.7c1.1,0,2.1-0.1,2.6-1
		L384.2,102.5z"/>
	<path class="st38" d="M374.1,102.5L374.1,102.5l0.1,0.2c0.2,0.2,0.4,0.4,0.6,0.5l6.3,0.1c1.1,0,2-0.1,2.5-0.8l0.1-0.1l0,0v-0.5
		l-9.7-0.2L374.1,102.5z"/>
	<g>
		
			<rect x="357.8" y="91.2" transform="matrix(1.812340e-02 -0.9998 0.9998 1.812340e-02 250.0004 457.8437)" class="st39" width="0.7" height="20.8"/>
	</g>
	<g>
		<path class="st40" d="M373.9,101.2l-5-20.6c-0.1-0.5-0.7-1-1.2-1l-29.3-0.5c-0.5,0-0.9,0.4-0.7,1l5,20.6L373.9,101.2z"/>
		<path class="st13" d="M357.6,90.2c0.3,1.1-0.4,1.9-1.4,1.9s-2.1-0.9-2.4-1.9c-0.3-1.1,0.4-1.9,1.4-1.9
			C356.3,88.3,357.3,89.2,357.6,90.2z"/>
	</g>
</g>
<g>
	<path class="st13" d="M459.9,102.5L459.9,102.5v-1l-41.7-0.8v1l0,0l0.1,0.2c0.5,0.9,1.5,1.1,2.6,1.1l36.3,0.7c1.1,0,2.1-0.1,2.6-1
		L459.9,102.5z"/>
	<path class="st38" d="M449.9,102.5L449.9,102.5l0.1,0.2c0.2,0.2,0.4,0.4,0.6,0.5l6.3,0.1c1.1,0,2-0.1,2.5-0.8l0.1-0.1l0,0v-0.5
		l-9.7-0.2L449.9,102.5z"/>
	<g>
		
			<rect x="433.5" y="91.2" transform="matrix(1.812340e-02 -0.9998 0.9998 1.812340e-02 324.4262 533.5097)" class="st39" width="0.7" height="20.8"/>
	</g>
	<g>
		<path class="st40" d="M449.7,101.2l-5-20.6c-0.1-0.5-0.7-1-1.2-1l-29.3-0.5c-0.5,0-0.9,0.4-0.7,1l5,20.6L449.7,101.2z"/>
		<path class="st13" d="M433.3,90.2c0.3,1.1-0.4,1.9-1.4,1.9s-2.1-0.9-2.4-1.9c-0.3-1.1,0.4-1.9,1.4-1.9
			C432,88.3,433,89.2,433.3,90.2z"/>
	</g>
</g>
<g>
	<path class="st13" d="M367.5,176.6L367.5,176.6v-1l-41.7-0.8v1l0,0l0.1,0.2c0.5,0.9,1.5,1.1,2.6,1.1l36.3,0.7c1.1,0,2.1-0.1,2.6-1
		L367.5,176.6z"/>
	<path class="st38" d="M357.5,176.6L357.5,176.6l0.1,0.2c0.2,0.2,0.4,0.4,0.6,0.5l6.3,0.1c1.1,0,2-0.1,2.5-0.8l0.1-0.1l0,0V176
		l-9.7-0.2L357.5,176.6z"/>
	<g>
		
			<rect x="341" y="165.3" transform="matrix(1.812340e-02 -0.9998 0.9998 1.812340e-02 159.5713 513.8103)" class="st39" width="0.7" height="20.8"/>
	</g>
	<g>
		<path class="st40" d="M357.3,175.3l-5-20.6c-0.1-0.5-0.7-1-1.2-1l-29.3-0.5c-0.5,0-0.9,0.4-0.7,1l5,20.6L357.3,175.3z"/>
		<path class="st13" d="M340.9,164.3c0.3,1.1-0.4,1.9-1.4,1.9s-2.1-0.9-2.4-1.9c-0.3-1.1,0.4-1.9,1.4-1.9
			C339.6,162.4,340.7,163.2,340.9,164.3z"/>
	</g>
</g>
<g>
	<path class="st13" d="M443.3,176.6L443.3,176.6v-1l-41.7-0.8v1l0,0l0.1,0.2c0.5,0.9,1.5,1.1,2.6,1.1l36.3,0.7c1.1,0,2.1-0.1,2.6-1
		L443.3,176.6z"/>
	<path class="st38" d="M433.2,176.6L433.2,176.6l0.1,0.2c0.2,0.2,0.4,0.4,0.6,0.5l6.3,0.1c1.1,0,2-0.1,2.5-0.8l0.1-0.1l0,0V176
		l-9.7-0.2L433.2,176.6z"/>
	<g>
		
			<rect x="416.8" y="165.3" transform="matrix(1.812340e-02 -0.9998 0.9998 1.812340e-02 233.8952 589.5726)" class="st39" width="0.7" height="20.8"/>
	</g>
	<g>
		<path class="st40" d="M433,175.3l-5-20.6c-0.1-0.5-0.7-1-1.2-1l-29.3-0.5c-0.5,0-0.9,0.4-0.7,1l5,20.6L433,175.3z"/>
		<path class="st13" d="M416.7,164.3c0.3,1.1-0.4,1.9-1.4,1.9s-2.1-0.9-2.4-1.9c-0.3-1.1,0.4-1.9,1.4-1.9
			C415.3,162.4,416.4,163.2,416.7,164.3z"/>
	</g>
</g>
<g>
	<path class="st13" d="M355.9,249L355.9,249v-1l-41.7-0.8v1l0,0l0.1,0.2c0.5,0.9,1.5,1.1,2.6,1.1l36.3,0.7c1.1,0,2.1-0.1,2.6-1
		L355.9,249z"/>
	<path class="st38" d="M345.8,249L345.8,249l0.1,0.2c0.2,0.2,0.4,0.4,0.6,0.5l6.3,0.1c1.1,0,2-0.1,2.5-0.8l0.1-0.1l0,0v-0.5
		l-9.7-0.2L345.8,249z"/>
	<g>
		
			<rect x="329.4" y="237.7" transform="matrix(1.812340e-02 -0.9998 0.9998 1.812340e-02 75.6764 573.2914)" class="st39" width="0.7" height="20.8"/>
	</g>
	<g>
		<path class="st40" d="M345.6,247.7l-5-20.6c-0.1-0.5-0.7-1-1.2-1l-29.3-0.5c-0.5,0-0.9,0.4-0.7,1l5,20.6L345.6,247.7z"/>
		<path class="st13" d="M329.3,236.7c0.3,1.1-0.4,1.9-1.4,1.9s-2.1-0.9-2.4-1.9c-0.3-1.1,0.4-1.9,1.4-1.9
			C328,234.8,329,235.6,329.3,236.7z"/>
	</g>
</g>
<g>
	<path class="st13" d="M431.6,249L431.6,249v-1l-41.7-0.8v1l0,0l0.1,0.2c0.5,0.9,1.5,1.1,2.6,1.1l36.3,0.7c1.1,0,2.1-0.1,2.6-1
		L431.6,249z"/>
	<path class="st38" d="M421.6,249L421.6,249l0.1,0.2c0.2,0.2,0.4,0.4,0.6,0.5l6.3,0.1c1.1,0,2-0.1,2.5-0.8l0.1-0.1l0,0v-0.5
		l-9.7-0.2L421.6,249z"/>
	<g>
		
			<rect x="405.1" y="237.7" transform="matrix(1.812340e-02 -0.9998 0.9998 1.812340e-02 150.1022 648.9574)" class="st39" width="0.7" height="20.8"/>
	</g>
	<g>
		<path class="st40" d="M421.4,247.7l-5-20.6c-0.1-0.5-0.7-1-1.2-1l-29.3-0.5c-0.5,0-0.9,0.4-0.7,1l5,20.6L421.4,247.7z"/>
		<path class="st13" d="M405,236.7c0.3,1.1-0.4,1.9-1.4,1.9s-2.1-0.9-2.4-1.9c-0.3-1.1,0.4-1.9,1.4-1.9
			C403.7,234.8,404.8,235.6,405,236.7z"/>
	</g>
</g>
</svg>
