<svg xmlns="http://www.w3.org/2000/svg" width="65.471" height="72.005" viewBox="0 0 65.471 72.005">
  <g id="グループ化_163" data-name="グループ化 163" transform="translate(-47.75 302.523)">
    <rect id="長方形_1191" data-name="長方形 1191" width="17.968" height="2.679" transform="translate(63.687 -292.954)" fill="#fff"/>
    <rect id="長方形_1192" data-name="長方形 1192" width="17.968" height="2.679" transform="translate(63.687 -281.157)" fill="#fff"/>
    <rect id="長方形_1193" data-name="長方形 1193" width="17.968" height="2.679" transform="translate(63.687 -287.092)" fill="#fff"/>
    <rect id="長方形_1194" data-name="長方形 1194" width="33.503" height="2.682" transform="translate(63.687 -269.327)" fill="#fff"/>
    <rect id="長方形_1195" data-name="長方形 1195" width="33.503" height="2.679" transform="translate(63.687 -275.295)" fill="#fff"/>
    <path id="パス_114" data-name="パス 114" d="M100.624-251.121H69.512l4,2.676H96.928Z" transform="translate(-5.195 -12.27)" fill="#fff"/>
    <path id="パス_115" data-name="パス 115" d="M91.517-240.651l3.7-2.676H81.132l3.994,2.676Z" transform="translate(-7.969 -14.131)" fill="#fff"/>
    <path id="パス_116" data-name="パス 116" d="M108.653-236.924,86.825-250.568l21.828-15.823ZM58-235.086l20.888-13.052h3.206l20.882,13.052Zm-5.68-31.3,21.828,15.823L52.318-236.924Zm5.867-31.638H87.153v15.648h15.654v14.613L82-252.71l-3.036,0L58.185-266.65Zm50.468,22.687-1.377-1v-6.042l-4.428-4.431-.042-.06-11.164,0v-11.173l-.065-.045-4.428-4.431H53.695v26.182l-1.377,1-4.568,3.313v41.514h65.471v-41.514Z" fill="#fff"/>
  </g>
</svg>
