<svg xmlns="http://www.w3.org/2000/svg" width="76.942" height="71.989" viewBox="0 0 76.942 71.989">
  <path id="パス_113" data-name="パス 113" d="M17.427-251.38H-1.426v5.293H17.427Zm0,12.127H-1.426v5.293H17.427ZM36.28-228.117H-1.426v5.293H36.28Zm2.494-51.347a1.88,1.88,0,0,1,1.792,1.957v9.849q.613-.59,1.241-1.181l4.051-3.928v-5.374c0-.084-.084-.469-.111-.688a7.009,7.009,0,0,0-1.764-3.61,7.081,7.081,0,0,0-3.475-2.121,10.42,10.42,0,0,0-1.6-.22h-43c-.249.028-.523.028-.716.055-.357.054-.715.138-1.046.219-.249.084-.523.192-.716.249-.249.084-.5.249-.745.358a7.218,7.218,0,0,0-3.528,4.659c-.055.357-.112.745-.165,1.1v58.708a11.114,11.114,0,0,0,.165,1.1c.084.358.219.688.33,1.046a4.971,4.971,0,0,1,.25.55A7.329,7.329,0,0,0-5.3-212.957c.385.055.772.139,1.157.165H38.967c.084,0,.715-.084,1.046-.138a6.853,6.853,0,0,0,1.184-.33,7.135,7.135,0,0,0,2.783-1.876,7.2,7.2,0,0,0,1.653-3.086c.084-.415.165-.827.219-1.242v-26.175L40.56-240.5v20.4a1.963,1.963,0,0,1-1.737,1.984H-4.011a1.9,1.9,0,0,1-1.71-1.957l.012-57.409a2.589,2.589,0,0,0,.027-.442,1.887,1.887,0,0,1,1.737-1.545Zm-2.452,4.824H-1.464v16.87H30.321l6-5.78Zm-5.293,5.32v6.23H3.825v-6.23Zm.183,30.733-6.425-6.426-3.445,9.84,9.756-3.308ZM26.7-247.066l6.447,6.447,7.417-7.174v.027l5.293-5.118v-.028l1.723-1.665,18.357-17.75-6.281-6.5L41.3-261.135Z" transform="translate(11.004 284.781)" fill="#fff" fill-rule="evenodd"/>
</svg>
