<svg width="24" height="24" viewBox="0 0 24 24" fill="none" xmlns="http://www.w3.org/2000/svg">
<path d="M24 11.7492C24 5.26034 18.6274 0 12 0C5.37264 0 0 5.26034 0 11.7492C0 17.2591 3.87456 21.8826 9.10128 23.1525V15.3397H6.62688V11.7492H9.10128V10.202C9.10128 6.2031 10.9498 4.34955 14.9597 4.34955C15.72 4.34955 17.0318 4.4957 17.5685 4.64139V7.89592C17.2853 7.86678 16.7933 7.85221 16.1822 7.85221C14.2147 7.85221 13.4544 8.58207 13.4544 10.4793V11.7492H17.3741L16.7006 15.3397H13.4544V23.4123C19.3963 22.7097 24.0005 17.7563 24.0005 11.7492H24Z" fill="#2F2F2F"/>
</svg>
