<svg xmlns="http://www.w3.org/2000/svg" width="15" height="15" viewBox="0 0 15 15">
  <g id="グループ化_176" data-name="グループ化 176" transform="translate(8.273 388.815)">
    <path id="パス_118" data-name="パス 118" d="M23.939-361.418c-.151-.135-.891-.789-1.035-.889s-.253-.164-.415-.023-.6.442-.736.526-.24.074-.389-.059a4.932,4.932,0,0,1-1.165-1.242,5.5,5.5,0,0,1-.641-1.462c-.052-.2.065-.269.175-.332s.229-.152.344-.23a1.207,1.207,0,0,0,.254-.241.323.323,0,0,0,.068-.305c-.02-.1-.135-1.044-.186-1.43s-.21-.367-.313-.395-.212-.076-.329-.108a.669.669,0,0,0-.523.088,2.016,2.016,0,0,0-1,1.276,3.475,3.475,0,0,0,.219,1.979,7.377,7.377,0,0,0,2.258,3.423c1.58,1.178,1.643.948,1.97,1.005a1.816,1.816,0,0,0,1.4-.5,1.466,1.466,0,0,0,.329-.794c-.024-.083-.128-.158-.278-.291Z" transform="translate(-21.868 -17.656)" fill="#fff"/>
    <path id="パス_119" data-name="パス 119" d="M5.176-381.453a6.2,6.2,0,0,1-1.015,3.407l.755,2.377-2.28-.772a6.091,6.091,0,0,1-3.6,1.178,6.174,6.174,0,0,1-6.145-6.19,6.175,6.175,0,0,1,6.145-6.19,6.173,6.173,0,0,1,6.141,6.19Zm-13.449,0a7.337,7.337,0,0,0,7.308,7.365,7.218,7.218,0,0,0,3.771-1.057l3.922,1.33-1.3-4.076a7.388,7.388,0,0,0,.907-3.56,7.334,7.334,0,0,0-7.3-7.363,7.335,7.335,0,0,0-7.308,7.362Z" transform="translate(0)" fill="#fff"/>
  </g>
</svg>
