<svg xmlns="http://www.w3.org/2000/svg" width="15.731" height="15.679" viewBox="0 0 15.731 15.679">
  <g id="グループ化_400" data-name="グループ化 400" transform="translate(-322.145 -431.141)">
    <path id="パス_147" data-name="パス 147" d="M334.782,460.819a1.119,1.119,0,0,1-1.153,1.1h-9.281a1.154,1.154,0,0,1-1.154-1.1v-5.191h11.589Zm-11.589-7.761a1.119,1.119,0,0,1,1.153-1.1h9.333a1.154,1.154,0,0,1,1.154,1.1v1.521H323.193Zm10.488-2.2h-9.333a2.206,2.206,0,0,0-2.2,2.15v7.761a2.172,2.172,0,0,0,2.2,2.15h9.333a2.206,2.206,0,0,0,2.2-2.15v-7.708A2.251,2.251,0,0,0,333.681,450.855Z" transform="translate(0 -16.096)" fill="#00abdc"/>
    <path id="パス_148" data-name="パス 148" d="M345.283,441.576a.5.5,0,0,1-.524-.524v-7.761a1.107,1.107,0,0,0-1.1-1.1h-9.649a1.107,1.107,0,0,0-1.1,1.1.524.524,0,1,1-1.048,0,2.16,2.16,0,0,1,2.15-2.15h9.648a2.16,2.16,0,0,1,2.15,2.15v7.761a.5.5,0,0,1-.525.525Z" transform="translate(-7.932)" fill="#00abdc"/>
    <path id="パス_149" data-name="パス 149" d="M332.954,462.19a.477.477,0,0,1-.367-.157.568.568,0,0,1-.157-.367.477.477,0,0,1,.157-.367.506.506,0,0,1,.734,0,.409.409,0,0,1,.158.367.477.477,0,0,1-.157.367.6.6,0,0,1-.368.157Z" transform="translate(-8.397 -24.494)" fill="#00abdc"/>
    <circle id="楕円形_45" data-name="楕円形 45" cx="0.524" cy="0.524" r="0.524" transform="translate(325.658 436.648)" fill="#00abdc"/>
    <path id="パス_150" data-name="パス 150" d="M350.669,462.19a.477.477,0,0,1-.367-.157.567.567,0,0,1-.157-.367.477.477,0,0,1,.157-.367.506.506,0,0,1,.734,0,.508.508,0,0,1,0,.734A.785.785,0,0,1,350.669,462.19Z" transform="translate(-22.861 -24.494)" fill="#00abdc"/>
  </g>
</svg>
