<svg xmlns="http://www.w3.org/2000/svg" width="19.585" height="24.23" viewBox="0 0 19.585 24.23">
  <g id="グループ化_135" data-name="グループ化 135" transform="translate(95 359)">
    <path id="パス_103" data-name="パス 103" d="M-90.43-342.679a.98.98,0,0,0-.979.979.98.98,0,0,0,.979.979h10.445a.98.98,0,0,0,.979-.979.98.98,0,0,0-.979-.979Zm0-5.223a.98.98,0,0,0-.979.979.98.98,0,0,0,.979.979h10.445a.98.98,0,0,0,.979-.979.98.98,0,0,0-.979-.979Zm0-5.223a.98.98,0,0,0-.979.979.98.98,0,0,0,.979.979h3.264a.98.98,0,0,0,.979-.979.98.98,0,0,0-.979-.979Zm9.14-2.54,2.54,2.54h-2.54Zm-11.751-1.377h9.793v4.9a1.018,1.018,0,0,0,.979.979h4.9v14.437H-93.041ZM-94.021-359a1.059,1.059,0,0,0-.979.979v22.272a1.018,1.018,0,0,0,.979.979h17.627a1.018,1.018,0,0,0,.979-.979v-16.4a1,1,0,0,0-.286-.694l-5.876-5.876A1,1,0,0,0-82.27-359Z" transform="translate(0 0)" fill="#06bcf0"/>
  </g>
</svg>
