<?xml version="1.0" encoding="UTF-8"?>
<svg width="16px" height="16px" viewBox="0 0 16 16" version="1.1" xmlns="http://www.w3.org/2000/svg" xmlns:xlink="http://www.w3.org/1999/xlink">
    <!-- Generator: Sketch 48.1 (47250) - http://www.bohemiancoding.com/sketch -->
    <title>icon-link</title>
    <desc>Created with Sketch.</desc>
    <defs></defs>
    <g id="Page-1" stroke="none" stroke-width="1" fill="none" fill-rule="evenodd">
        <g id="icon-link" fill="#F3FF5A" fill-rule="nonzero">
            <path d="M12.637,13.582 C12.6320543,13.8814538 12.5072744,14.1664277 12.2905778,14.3731634 C12.0738812,14.579899 11.7833551,14.6911408 11.484,14.682 L2.203,14.682 C1.58616967,14.6826757 1.07786346,14.198155 1.049,13.582 L1.049,8.391 L12.638,8.391 L12.637,13.582 Z M1.048,5.821 C1.05294573,5.52154619 1.17772562,5.2365723 1.3944222,5.02983663 C1.61111877,4.82310096 1.90164487,4.71185923 2.201,4.721 L11.534,4.721 C12.1508303,4.72032432 12.6591365,5.20484498 12.688,5.821 L12.688,7.342 L1.048,7.342 L1.048,5.821 Z M11.536,3.621 L2.203,3.621 C1.00852981,3.62386395 0.033318653,4.57691122 0.003,5.771 L0.003,13.532 C0.00879747083,14.1091113 0.244044597,14.660186 0.656808051,15.0635685 C1.06957151,15.466951 1.6259079,15.6894692 2.203,15.682 L11.536,15.682 C12.7304702,15.679136 13.7056813,14.7260888 13.736,13.532 L13.736,5.824 C13.71219,4.61798204 12.7419486,3.64509457 11.536,3.618 L11.536,3.621 Z" id="パス_147"></path>
            <path d="M15.206,10.435 C15.0650115,10.4419467 14.9276556,10.3889741 14.8278408,10.2891592 C14.7280259,10.1893444 14.6750533,10.0519885 14.682,9.911 L14.682,2.15 C14.6781805,1.54407593 14.1879241,1.05381954 13.582,1.05 L3.933,1.05 C3.32707593,1.05381954 2.83681954,1.54407593 2.833,2.15 C2.833,2.43939721 2.59839721,2.674 2.309,2.674 C2.01960279,2.674 1.785,2.43939721 1.785,2.15 C1.79047416,0.964862666 2.74986267,0.0054741629 3.935,-5.68434189e-14 L13.583,-5.68434189e-14 C14.7681373,0.0054741629 15.7275258,0.964862666 15.733,2.15 L15.733,9.911 C15.7402628,10.0523403 15.6872867,10.1901377 15.5872122,10.2902122 C15.4871377,10.3902867 15.3493403,10.4432628 15.208,10.436 L15.206,10.435 Z" id="パス_148"></path>
            <path d="M2.045,6.398 C1.9499886,6.29869033 1.89420815,6.16829907 1.888,6.031 C1.88416968,5.89159822 1.94153522,5.7575017 2.045,5.664 C2.14053855,5.5633462 2.27322391,5.50634896 2.412,5.50634896 C2.55077609,5.50634896 2.68346145,5.5633462 2.779,5.664 C2.89190484,5.75053289 2.95173878,5.88951427 2.937,6.031 C2.94083032,6.17040178 2.88346478,6.3044983 2.78,6.398 C2.67890836,6.49089477 2.54901626,6.54631069 2.412,6.555 C2.27259822,6.55883032 2.1385017,6.50146478 2.045,6.398 Z" id="パス_149"></path>
            <circle id="楕円形_45" cx="4.037" cy="6.031" r="1"></circle>
            <path d="M5.296,6.398 C5.20091145,6.29874131 5.14511799,6.16831967 5.139,6.031 C5.13516968,5.89159822 5.19253522,5.7575017 5.296,5.664 C5.39153855,5.5633462 5.52422391,5.50634896 5.663,5.50634896 C5.80177609,5.50634896 5.93446145,5.5633462 6.03,5.664 C6.13012618,5.7598286 6.18675222,5.89240572 6.18675222,6.031 C6.18675222,6.16959428 6.13012618,6.3021714 6.03,6.398 C5.92323826,6.48108186 5.79681773,6.53516367 5.663,6.555 C5.52359822,6.55883032 5.3895017,6.50146478 5.296,6.398 Z" id="パス_150"></path>
        </g>
    </g>
</svg>