<svg xmlns="http://www.w3.org/2000/svg" width="24" height="24" viewBox="0 0 24 24">
  <path id="パス_106" data-name="パス 106" d="M-76.355-299.715a.976.976,0,0,1,0-1.415l4.371-4.37-4.345-4.345a1,1,0,0,1-.3-.707,1,1,0,0,1,.3-.708.977.977,0,0,1,1.415,0l5.052,5.053a.977.977,0,0,1,0,1.415l-5.078,5.078a1.023,1.023,0,0,1-1.414,0ZM-61.5-305.5a12.011,12.011,0,0,0-12-12,12.011,12.011,0,0,0-12,12,12.011,12.011,0,0,0,12,12A12.011,12.011,0,0,0-61.5-305.5Z" transform="translate(85.5 317.5)" fill="#d7e24d"/>
</svg>
