<svg xmlns="http://www.w3.org/2000/svg" width="30" height="30" viewBox="0 0 30 30">
  <path id="パス_107" data-name="パス 107" d="M-74.069-295.269a1.221,1.221,0,0,1,0-1.769l5.463-5.462-5.431-5.431a1.245,1.245,0,0,1-.379-.884,1.246,1.246,0,0,1,.379-.885,1.221,1.221,0,0,1,1.769,0l6.315,6.316a1.221,1.221,0,0,1,0,1.769l-6.348,6.348a1.278,1.278,0,0,1-1.768,0ZM-55.5-302.5a15.014,15.014,0,0,0-15-15,15.014,15.014,0,0,0-15,15,15.014,15.014,0,0,0,15,15A15.014,15.014,0,0,0-55.5-302.5Z" transform="translate(85.5 317.5)" fill="#00abdc" opacity="0.6"/>
</svg>
