<svg xmlns="http://www.w3.org/2000/svg" width="33" height="33" viewBox="0 0 33 33">
  <path id="パス_106" data-name="パス 106" d="M-72.926-293.046a1.343,1.343,0,0,1,0-1.946l6.01-6.008-5.974-5.974a1.37,1.37,0,0,1-.416-.973,1.371,1.371,0,0,1,.416-.973,1.343,1.343,0,0,1,1.946,0L-64-301.973a1.343,1.343,0,0,1,0,1.946l-6.983,6.983a1.406,1.406,0,0,1-1.945,0ZM-52.5-301A16.515,16.515,0,0,0-69-317.5,16.515,16.515,0,0,0-85.5-301,16.515,16.515,0,0,0-69-284.5,16.515,16.515,0,0,0-52.5-301Z" transform="translate(85.5 317.5)" fill="#d7e24d"/>
</svg>
