<svg xmlns="http://www.w3.org/2000/svg" width="177.221" height="41.629" viewBox="0 0 177.221 41.629">
  <g id="グループ化_74" data-name="グループ化 74" transform="translate(-132.594 -206.293)">
    <g id="グループ化_72" data-name="グループ化 72" transform="translate(132.594 220.944)">
      <g id="グループ化_71" data-name="グループ化 71">
        <path id="パス_39" data-name="パス 39" d="M132.594,255.007a.841.841,0,0,1,.189-.467.571.571,0,0,1,.463-.2H139.4a.65.65,0,0,1,.654.571l3.982,11.348,3.478-11.325a.714.714,0,0,1,.7-.572h6.226a.623.623,0,0,1,.442.19.643.643,0,0,1,.224.472v18.461a.525.525,0,0,1-.6.588h-3.64c-.417,0-.636-.222-.679-.663l.019-11.069L146.382,273.5a.9.9,0,0,1-.2.362.457.457,0,0,1-.334.211h-3.58a.493.493,0,0,1-.347-.2.644.644,0,0,1-.2-.369l-4.392-11.159v11.069a.606.606,0,0,1-.668.663h-3.486c-.391,0-.585-.222-.585-.663Z" transform="translate(-132.594 -254.333)" fill="#000"/>
        <path id="パス_40" data-name="パス 40" d="M231.211,271.538a10.028,10.028,0,0,1-2.979,1.9,9.1,9.1,0,0,1-3.5.685,10.236,10.236,0,0,1-7.118-2.838,10.028,10.028,0,0,1-2.2-3.139,9.451,9.451,0,0,1-.813-3.926,10.23,10.23,0,0,1,1.242-4.888,9.985,9.985,0,0,1,1.444-1.995,9.191,9.191,0,0,1,1.9-1.557,9.343,9.343,0,0,1,2.287-1.007,9.211,9.211,0,0,1,2.6-.362,8.934,8.934,0,0,1,2.422.331,9.472,9.472,0,0,1,2.2.932,9.6,9.6,0,0,1,1.888,1.446,9.709,9.709,0,0,1,1.473,1.843,8.889,8.889,0,0,1,.957,2.135,8.118,8.118,0,0,1,.337,2.34c0,.521-.005.948-.021,1.278a1.44,1.44,0,0,1-.232.791,1.133,1.133,0,0,1-.7.407,6.766,6.766,0,0,1-1.438.111H220.138a3.742,3.742,0,0,0,.609,1.611,3.78,3.78,0,0,0,1.061,1.03,4.222,4.222,0,0,0,1.277.549,5.387,5.387,0,0,0,1.279.166,5.8,5.8,0,0,0,1.113-.112,7.868,7.868,0,0,0,1.107-.3,5.982,5.982,0,0,0,.978-.436,3.2,3.2,0,0,0,.714-.519,3.313,3.313,0,0,1,.415-.292.716.716,0,0,1,.366-.1.7.7,0,0,1,.4.136,3.117,3.117,0,0,1,.461.388l1.592,1.807a1.011,1.011,0,0,1,.213.354,1.194,1.194,0,0,1,.046.323.835.835,0,0,1-.167.52A1.956,1.956,0,0,1,231.211,271.538ZM223.975,259a2.91,2.91,0,0,0-1.137.231,4.436,4.436,0,0,0-1.029.626,5.3,5.3,0,0,0-.865.889,5.23,5.23,0,0,0-.625,1.007h7.689a8.784,8.784,0,0,0-.687-1.083,4.659,4.659,0,0,0-.84-.874,3.681,3.681,0,0,0-1.083-.588A4.4,4.4,0,0,0,223.975,259Z" transform="translate(-189.576 -254.383)" fill="#000"/>
        <path id="パス_41" data-name="パス 41" d="M283.529,255.476a1.139,1.139,0,0,1,.39-.859,1.468,1.468,0,0,1,.811-.256H287a.835.835,0,0,1,.452.1.967.967,0,0,1,.28.271,1.816,1.816,0,0,1,.194.376,3.373,3.373,0,0,0,.2.423c.019.039.059.454.118.609s.127.326.2.513.138.359.2.525.108.273.127.325q.452-.5.867-1.046a9.2,9.2,0,0,1,.881-1.016,4.211,4.211,0,0,1,1.037-.766,2.84,2.84,0,0,1,1.352-.3,7.807,7.807,0,0,1,1.452.121,6.2,6.2,0,0,1,1.212.353,7.184,7.184,0,0,1,1.137.594q.562.362,1.226.842a1.042,1.042,0,0,1,.391,1.657l-1.368,2.33a1.237,1.237,0,0,1-.738.558,1.422,1.422,0,0,1-.948-.136,4.745,4.745,0,0,0-1.318-.941,3.591,3.591,0,0,0-1.525-.308,2.927,2.927,0,0,0-1.032.167,2.675,2.675,0,0,0-.805.466,4.184,4.184,0,0,0-.676.722c-.21.281-.42.59-.63.933V272.93a1.215,1.215,0,0,1-.28.865,1.236,1.236,0,0,1-.924.294H284.7a1.03,1.03,0,0,1-1.172-1.159Z" transform="translate(-237.473 -254.346)" fill="#000"/>
        <path id="パス_42" data-name="パス 42" d="M338.8,255.422a1.094,1.094,0,0,1,.111-.488,1.053,1.053,0,0,1,.28-.369,1.467,1.467,0,0,1,.811-.256h2.271a.835.835,0,0,1,.453.1.932.932,0,0,1,.278.271,1.71,1.71,0,0,1,.2.376,3.962,3.962,0,0,0,.2.423,3.023,3.023,0,0,1,.121.292c.063.155.127.659.2.846s.138.359.2.525.108.273.129.325q.449-.5.865-1.046a9.25,9.25,0,0,1,.878-1.016,4.294,4.294,0,0,1,1.04-.766,2.842,2.842,0,0,1,1.353-.3,7.818,7.818,0,0,1,1.452.121,6.16,6.16,0,0,1,1.212.353,7.131,7.131,0,0,1,1.137.594c.375.241.784.521,1.224.842a1.042,1.042,0,0,1,.393,1.657l-1.371,2.33a1.225,1.225,0,0,1-.735.558,1.421,1.421,0,0,1-.948-.136,4.788,4.788,0,0,0-1.315-.941,3.615,3.615,0,0,0-1.528-.308,2.914,2.914,0,0,0-1.032.167,2.7,2.7,0,0,0-.806.466,4.2,4.2,0,0,0-.676.722c-.21.281-.42.59-.63.933v11.162a1.214,1.214,0,0,1-.281.865,1.227,1.227,0,0,1-.927.293H339.97a1.029,1.029,0,0,1-1.172-1.159Z" transform="translate(-275.878 -254.309)" fill="#000"/>
        <path id="パス_43" data-name="パス 43" d="M391.3,255.769a1.18,1.18,0,0,1-.008-1.032c.156-.286.5-.428,1.032-.428h3.718a.832.832,0,0,1,.614.234,1.469,1.469,0,0,1,.364.577l4.353,12.432,4.246-12.432a1.21,1.21,0,0,1,.42-.645,1.315,1.315,0,0,1,.708-.166h3.867a1.589,1.589,0,0,1,.662.113.694.694,0,0,1,.337.3.708.708,0,0,1,.07.421,1.985,1.985,0,0,1-.121.458c-.383.943-.878,2.293-1.328,3.411s-.922,2.282-1.407,3.491-.981,2.437-1.481,3.686-.991,2.473-1.468,3.677-.935,2.361-1.377,3.468-.843,2.127-1.212,3.055-.684,1.743-.954,2.446-.477,1.242-.617,1.624l.046-.075a1.314,1.314,0,0,1-.377.655.95.95,0,0,1-.663.246h-3.472a1.261,1.261,0,0,1-.927-.263,1.083,1.083,0,0,1-.247-.775.684.684,0,0,1,.051-.3.677.677,0,0,1,.083-.136l2.363-6.139Z" transform="translate(-312.275 -254.309)" fill="#000"/>
      </g>
    </g>
    <g id="グループ化_73" data-name="グループ化 73" transform="translate(230.197 206.293)">
      <path id="パス_44" data-name="パス 44" d="M491.228,230.084a4.867,4.867,0,0,0-2.266-1.77,11.277,11.277,0,0,0-5.246-.912c-.2.011-.409.024-.614.039.291-.144.582-.29.87-.435,1.714-.868,3.419-1.823,5.073-2.848.714-.4,1.547-.908,2.476-1.522a16.709,16.709,0,0,0,2.643-2.153,8.447,8.447,0,0,0,1.87-2.741,4.2,4.2,0,0,0-.1-3.407,6.289,6.289,0,0,0-2.269-2.76,8.967,8.967,0,0,0-3.112-1.284,12.7,12.7,0,0,0-3.381-.279c-.129.005-.254.009-.383.017a8.8,8.8,0,0,1,1.01-.481c.841-.258,1.118-.1,1.573-.28.5-.193.811-.342.948-.819a1.387,1.387,0,0,0-.557-1.737,2.373,2.373,0,0,0-1.554-.419,11.355,11.355,0,0,0-1.894.342l-.024.011a9.224,9.224,0,0,0-2.848,1.724c-.813.715-1.592,1.462-2.314,2.224l-.479.573a44.528,44.528,0,0,0-4.337,1.611c-1.466.633-2.9,1.313-4.284,2.023-1.972,1.025-3.95,2.152-5.876,3.352a41.169,41.169,0,0,0-5.512,4.1l-.035.031a1.768,1.768,0,0,0-.447,1.863,1.682,1.682,0,0,0,1.536,1.218,1.9,1.9,0,0,0,1.374-.4,7,7,0,0,0,.956-.859c.278-.3.55-.6.811-.9a4.642,4.642,0,0,1,.6-.6,38.935,38.935,0,0,1,3.839-2.859,38.131,38.131,0,0,1,4.146-2.347c.892-.466,1.851-.936,2.851-1.4.224-.1.453-.206.684-.307-.418.591-.816,1.193-1.2,1.8-.856,1.342-1.71,2.724-2.538,4.1-.862,1.41-1.692,2.87-2.465,4.334-.714,1.357-1.394,2.762-2.021,4.18l-.417.1c-.3.074-.647.151-1.048.226a7.452,7.452,0,0,0-1.277.361,4.51,4.51,0,0,0-1.094.6,1.6,1.6,0,0,0-.67,1.257,1.492,1.492,0,0,0,.805,1.615,2.464,2.464,0,0,0,1.468.158l.172-.02c.108-.027.216-.055.32-.086-.366,1.017-.741,2.175-1.12,3.455a15.826,15.826,0,0,0-.647,4h-.32c-4.788-.237-6.6-.731-8.257-1.351a5.687,5.687,0,0,1-.7-.381,8.24,8.24,0,0,0-1.131-.582,1.98,1.98,0,0,0-1.441-.073c-.339.118-.905.487-.905,1.608a2.074,2.074,0,0,0,.841,1.668,5.155,5.155,0,0,0,1.578.827,31.036,31.036,0,0,0,7.959,1.409,19.3,19.3,0,0,0,2.761-.117c.081.244.167.483.259.712a5.436,5.436,0,0,0,.749,1.3,1.974,1.974,0,0,0,1.455.845c.049,0,.1,0,.151,0a2.042,2.042,0,0,0,1.153-.334,1.636,1.636,0,0,0,.735-1.159,1.618,1.618,0,0,0-.649-1.476,2.4,2.4,0,0,1-.189-.189,63.483,63.483,0,0,0,9.411-1.841,62.033,62.033,0,0,0,6.008-1.815A14.657,14.657,0,0,0,490.2,237.4a6.549,6.549,0,0,0,1.49-2.286,5.95,5.95,0,0,0,.4-2.589A5.093,5.093,0,0,0,491.228,230.084Zm-18.843-1.231c.267-.532.555-1.073.862-1.611l.021-.036a60.909,60.909,0,0,1,3.225-5.669c1.182-1.84,2.468-3.652,3.818-5.388l.013-.021c.3-.412.625-.822.965-1.217.3-.345.612-.687.94-1.021a18.936,18.936,0,0,1,4.165-.574,10.143,10.143,0,0,1,4.044.706,7.406,7.406,0,0,1,.83.428,5.692,5.692,0,0,1,.833.6,2.549,2.549,0,0,1,.546.659.89.89,0,0,1,.116.55,2.783,2.783,0,0,1-.736,1.516,18.385,18.385,0,0,1-1.436,1.493,26.253,26.253,0,0,1-3.405,2.576,42.507,42.507,0,0,1-3.8,2.144c-2.015,1.047-4.111,2.05-6.223,2.981-1.579.694-3.187,1.34-4.8,1.93C472.372,228.878,472.38,228.866,472.386,228.853Zm-3.839,12.808a46.878,46.878,0,0,1,.862-5.358,30.3,30.3,0,0,1,1.107-3.356l2.319-.9a39.02,39.02,0,0,1,4.869-.941c1.651-.211,3.289-.357,4.868-.435a19.7,19.7,0,0,1,2.274.171,8.992,8.992,0,0,1,2.419.622,2.728,2.728,0,0,1,1.358,1.1c.258.45-.051,1.173-.358,1.705a6.194,6.194,0,0,1-1.738,1.919,16.516,16.516,0,0,1-2.565,1.55,22.362,22.362,0,0,1-2.875,1.168c-1.016.332-1.956.616-2.788.845l-.03.006a40.253,40.253,0,0,1-5.17,1.271C471.593,241.3,470.069,241.509,468.546,241.661Z" transform="translate(-452.463 -206.293)" fill="#009dd5"/>
      <path id="パス_45" data-name="パス 45" d="M621.679,268.682a1.8,1.8,0,0,0,1.107.236,1.66,1.66,0,0,0,1-.524,2.853,2.853,0,0,0,.771-1.361,2.008,2.008,0,0,1,1.522-1.047,1.6,1.6,0,0,0,1.112-.462,1.654,1.654,0,0,0,.413-.972v-.064a1.457,1.457,0,0,0-1.07-1.432,3.279,3.279,0,0,0-1.336-.064,5.946,5.946,0,0,0-2.125.789,6.243,6.243,0,0,0-1.423,1.227,4.173,4.173,0,0,0-.889,1.735l-.008.032A1.7,1.7,0,0,0,621.679,268.682Z" transform="translate(-569.373 -245.663)" fill="#009dd5"/>
      <path id="パス_46" data-name="パス 46" d="M605.3,294.565c-1,.406-3.591,1.611-3.685,1.658-.849.425-1.735.853-2.637,1.274a11.414,11.414,0,0,1-2.926.914,4.108,4.108,0,0,1-.585.045,2.086,2.086,0,0,1-1.859-.894,3.91,3.91,0,0,1-.6-2.2,10.367,10.367,0,0,1,.347-2.538c.078-.313.162-.621.246-.916-.426.155-.849.3-1.261.446-.7.238-1.886.642-3.047,1.046,0,0-1.8.566-2.217-.439a1.952,1.952,0,0,1-.258-1.03,1.437,1.437,0,0,1,.838-.934l4.655-1.921c.165-.083.539-.246,1.127-.488a10.643,10.643,0,0,1,1.805-.571,3.871,3.871,0,0,1,1.743-.023c.3.075,1.242.435.962,1.943l-.005.024a3.663,3.663,0,0,1-.622,1.329,3.217,3.217,0,0,0-.458.861l-.029.076a12.875,12.875,0,0,0-.639,1.778,1.593,1.593,0,0,0-.048.911c-.006.211.985-.073,1.544-.236.784-.228,1.392-.48,2.039-.705.217-.095.825-.348,1.5-.663.785-.366.906-.46,1.787-.935a19.434,19.434,0,0,1,2.6-1.336s1.153-.537,1.153,1.3A2.195,2.195,0,0,1,605.3,294.565Z" transform="translate(-545.813 -263)" fill="#009dd5"/>
      <path id="パス_47" data-name="パス 47" d="M654.394,278.912c.983-.234,3.22-.82,3.93-.987,1.135-.339,1.791-.339,1.791.527-.14.639-3.761,3.95-4.892,4.638s-2.28,1.265-3.365,1.853c-.342.161-.738.359-1.177.582a2.657,2.657,0,0,0-1.2,1.195l-.032.067-.017.073a1.848,1.848,0,0,0,.232,1.333,1.179,1.179,0,0,0,1.054.655,1.539,1.539,0,0,0,.361-.048,4.6,4.6,0,0,0,1.253-.587,4.949,4.949,0,0,1,1.528-.522c2.314-.527,5.277.707,8.193.391a7.279,7.279,0,0,0,2.147-.6,25.592,25.592,0,0,0,3.122-1.529c.08-.055.213-.139.393-.248a3.667,3.667,0,0,0,.614-.46,2.243,2.243,0,0,0,.488-.642,1.064,1.064,0,0,0-.149-1.145,1.124,1.124,0,0,0-1.377-.272,7.429,7.429,0,0,0-1.129.608,14.077,14.077,0,0,1-3.309,1.6c-1.724.553-5.789.162-6.746.092,0,0,1.288-1.183,2.107-1.844a59,59,0,0,0,5.447-5.5c2.11-2.023,2.323-2.194,3.36-3.145.474-.434.6-.758.531-1.087a1.251,1.251,0,0,0-.665-.865c-.34-.178-1.592.4-1.592.4a44.067,44.067,0,0,1-10.491,3.064s-1.886.164-1.872,1.314C652.941,279.22,654.394,278.912,654.394,278.912Z" transform="translate(-589.299 -252.656)" fill="#009dd5"/>
    </g>
  </g>
</svg>
