<svg width="611" height="147" viewBox="0 0 611 147" fill="none" xmlns="http://www.w3.org/2000/svg">
<g opacity="0.9">
<path d="M510.06 58.8649C508.664 56.8833 506.711 55.3621 504.447 54.4949C500.364 52.7004 495.905 51.9298 491.456 52.2499C490.975 52.2499 490.456 52.2899 489.932 52.3299L492.097 51.2469C496.347 49.1219 500.557 46.7159 504.647 44.1899C506.411 43.1899 508.456 41.9449 510.782 40.4209C513.134 38.8663 515.323 37.0797 517.318 35.0879C519.29 33.1577 520.857 30.8542 521.929 28.3119C522.485 26.9707 522.75 25.5272 522.709 24.0762C522.667 22.6251 522.319 21.1992 521.688 19.8919C520.503 17.1327 518.556 14.7683 516.075 13.0759C513.733 11.5402 511.12 10.465 508.375 9.90791C505.628 9.28569 502.807 9.05607 499.995 9.22591C499.687 9.21835 499.379 9.23172 499.073 9.26591C499.877 8.81695 500.707 8.41625 501.559 8.06591C503.644 7.42391 504.326 7.82491 505.448 7.38391C506.691 6.90291 507.448 6.54191 507.814 5.33891C508.134 4.5785 508.172 3.72913 507.922 2.94302C507.673 2.1569 507.151 1.48542 506.451 1.04891C505.33 0.260833 503.968 -0.108007 502.602 0.00691246C501.016 0.143766 499.446 0.42561 497.911 0.848912H497.871C495.284 1.85083 492.895 3.30329 490.814 5.13891C488.814 6.90291 486.885 8.74791 485.08 10.6319L483.917 12.0319C480.269 13.1692 476.683 14.494 473.171 16.0009C469.562 17.5649 465.994 19.2489 462.586 21.0129C457.694 23.5389 452.803 26.3459 448.071 29.3129C443.255 32.3122 438.695 35.7051 434.438 39.4569L434.358 39.5369C433.757 40.1225 433.333 40.8656 433.134 41.681C432.935 42.4965 432.97 43.3514 433.235 44.1479C433.476 44.9842 433.973 45.724 434.657 46.2633C435.34 46.8026 436.175 47.1144 437.044 47.1549C438.267 47.2784 439.49 46.9196 440.452 46.1549C441.298 45.5133 442.09 44.8025 442.818 44.0299C443.5 43.2679 444.181 42.5459 444.818 41.7849C445.271 41.2505 445.768 40.7542 446.302 40.3009C449.317 37.7513 452.49 35.3943 455.802 33.2439C459.101 31.0958 462.529 29.1541 466.067 27.4299C468.272 26.2669 470.638 25.1039 473.124 23.9819C473.685 23.7409 474.247 23.4609 474.808 23.2199C473.765 24.6629 472.808 26.1869 471.841 27.6709C469.716 30.9989 467.631 34.4069 465.586 37.8149C463.461 41.3029 461.416 44.9149 459.491 48.5609C457.727 51.9289 456.043 55.3769 454.479 58.9059L453.437 59.1469C452.715 59.3469 451.837 59.5079 450.831 59.7079C449.752 59.9114 448.692 60.2064 447.663 60.5899C446.692 60.9613 445.775 61.4604 444.936 62.0739C444.436 62.4296 444.027 62.898 443.741 63.4413C443.456 63.9845 443.302 64.5873 443.292 65.2009C443.092 67.7669 444.455 68.8099 445.292 69.2109C446.43 69.6965 447.685 69.8357 448.901 69.6109H449.342C449.602 69.4995 449.87 69.4057 450.142 69.3299C449.26 71.8559 448.298 74.7029 447.375 77.8699C446.418 81.0872 445.88 84.4148 445.775 87.7699H444.975C433.147 87.1699 428.656 85.9699 424.566 84.4419C423.964 84.1735 423.387 83.8515 422.842 83.4799C421.936 82.944 420.998 82.4622 420.035 82.0369C418.91 81.5363 417.64 81.4652 416.466 81.8369C415.624 82.1179 414.221 83.0369 414.221 85.8059C414.225 86.6088 414.416 87.3997 414.777 88.1164C415.139 88.8331 415.663 89.456 416.306 89.9359C417.475 90.8366 418.791 91.5285 420.195 91.9809C426.574 94.0123 433.194 95.1853 439.882 95.4689C442.158 95.5414 444.436 95.4475 446.698 95.1879C446.898 95.7879 447.098 96.3879 447.34 96.9519C447.805 98.1005 448.426 99.1798 449.184 100.16C449.593 100.754 450.129 101.249 450.753 101.61C451.378 101.97 452.074 102.187 452.793 102.245H453.154C454.168 102.268 455.163 101.973 456.001 101.403C456.546 101.062 456.998 100.591 457.318 100.034C457.637 99.4763 457.815 98.8487 457.835 98.2063C457.855 97.5638 457.716 96.9265 457.431 96.3503C457.146 95.7742 456.724 95.2771 456.201 94.9029L455.72 94.4219C463.589 93.4967 471.378 91.9821 479.02 89.8909C484.053 88.6487 489.019 87.1538 493.901 85.4119C499.025 83.635 503.684 80.7302 507.534 76.9119C509.142 75.3032 510.398 73.3783 511.223 71.2589C512.022 69.2196 512.364 67.0297 512.223 64.8439C512.053 62.6756 511.32 60.5891 510.098 58.7899L510.06 58.8649ZM463.469 55.8179C464.111 54.4949 464.832 53.1719 465.594 51.8489V51.7689C468.04 46.9979 470.726 42.2689 473.613 37.7349C476.54 33.2039 479.708 28.7129 483.036 24.4229C483.784 23.3654 484.587 22.3483 485.442 21.3759C486.164 20.5339 486.966 19.6919 487.768 18.8499C491.14 18.0057 494.594 17.5362 498.068 17.4499C501.495 17.3548 504.906 17.9542 508.095 19.2119C508.695 19.4929 509.378 19.8119 510.14 20.2539C510.863 20.6892 511.547 21.1857 512.185 21.7379C512.726 22.2085 513.186 22.7638 513.548 23.3819C513.797 23.79 513.896 24.2717 513.829 24.7449C513.617 26.1403 512.99 27.4396 512.029 28.4739C510.92 29.7791 509.728 31.0114 508.46 32.1629C505.832 34.5144 503.016 36.6466 500.04 38.5379C497.009 40.4675 493.877 42.2343 490.658 43.8309C485.686 46.4369 480.474 48.8829 475.258 51.2089C471.369 52.9329 467.358 54.5369 463.39 55.9799C463.387 55.9582 463.39 55.9361 463.397 55.9154C463.404 55.8946 463.415 55.8757 463.43 55.8599L463.469 55.8179ZM453.969 87.4939C454.411 83.0315 455.119 78.5995 456.091 74.2219C456.842 71.4059 457.752 68.6348 458.817 65.9219L464.551 63.7119C468.506 62.6766 472.525 61.9013 476.581 61.3909C480.671 60.8699 484.72 60.5089 488.61 60.3079C490.488 60.3274 492.362 60.4609 494.223 60.7079C496.276 60.9343 498.287 61.4473 500.197 62.2319C501.584 62.7546 502.765 63.711 503.565 64.9589C504.207 66.0819 503.445 67.8459 502.683 69.1689C501.598 71.0269 500.136 72.6382 498.393 73.8999C496.406 75.3773 494.285 76.6659 492.058 77.7489C489.759 78.8689 487.387 79.8334 484.958 80.6359C482.432 81.4359 480.106 82.1599 478.058 82.7209H477.978C473.789 84.0589 469.516 85.1173 465.187 85.8889C461.458 86.5309 457.687 87.0519 453.92 87.4529L453.969 87.4939Z" fill="#2F3D41"/>
<path d="M543.58 56.977C544.397 57.4739 545.357 57.6849 546.307 57.577C547.253 57.4312 548.126 56.9807 548.793 56.294C549.724 55.3694 550.377 54.2027 550.678 52.926C551.057 52.2258 551.596 51.6249 552.251 51.1721C552.906 50.7193 553.658 50.4274 554.447 50.32C555.478 50.3077 556.466 49.9066 557.214 49.197C557.812 48.5327 558.165 47.6837 558.214 46.791V46.631C558.235 45.8309 557.985 45.0471 557.505 44.4068C557.024 43.7665 556.342 43.3071 555.568 43.103C554.48 42.8349 553.349 42.7806 552.24 42.943C550.377 43.2474 548.592 43.9151 546.987 44.908C545.66 45.7349 544.47 46.7628 543.459 47.955C542.407 49.1985 541.653 50.6658 541.254 52.245V52.325C541.037 53.2504 541.146 54.2224 541.562 55.0769C541.978 55.9315 542.677 56.6163 543.539 57.016L543.58 56.977Z" fill="#2F3D41"/>
<path d="M561.302 78.1104C558.816 79.1104 552.402 82.0794 552.202 82.2004C550.117 83.2424 547.912 84.3254 545.666 85.3684C543.368 86.4358 540.943 87.2037 538.449 87.6534C537.972 87.7299 537.489 87.77 537.006 87.7734C536.113 87.8354 535.218 87.6649 534.41 87.2785C533.602 86.8921 532.908 86.3029 532.395 85.5684C531.37 83.9379 530.854 82.0393 530.912 80.1144C530.932 78.0025 531.214 75.9012 531.754 73.8594C531.954 73.0974 532.154 72.3354 532.354 71.6144C531.311 72.0144 530.269 72.3754 529.227 72.6974C527.503 73.2974 524.576 74.2974 521.689 75.3034C521.689 75.3034 517.238 76.7034 516.196 74.2204C515.764 73.4348 515.543 72.5508 515.554 71.6544C515.701 71.1334 515.966 70.6529 516.327 70.2498C516.688 69.8466 517.137 69.5315 517.639 69.3284L529.147 64.5574C529.547 64.3574 530.469 63.9574 531.914 63.3574C533.357 62.7695 534.846 62.3013 536.365 61.9574C537.785 61.6038 539.269 61.5901 540.695 61.9174C541.417 62.1174 543.782 63.0004 543.061 66.7284C542.797 67.934 542.278 69.069 541.537 70.0564C541.063 70.7073 540.685 71.4229 540.414 72.1814L540.334 72.3814C539.682 73.8022 539.159 75.2784 538.77 76.7924C538.497 77.5099 538.455 78.2948 538.65 79.0374C538.65 79.5584 541.096 78.8374 542.459 78.4764C544.384 77.9154 545.907 77.2764 547.511 76.7124C548.032 76.4714 549.556 75.8704 551.24 75.0684C553.165 74.1464 553.485 73.9454 555.651 72.7424C557.71 71.4728 559.869 70.3731 562.106 69.4544C562.106 69.4544 564.953 68.1314 564.953 72.6624C565.037 73.8574 564.726 75.047 564.066 76.0472C563.407 77.0473 562.436 77.8023 561.304 78.1954L561.302 78.1104Z" fill="#2F3D41"/>
<path d="M575.175 64.9593C577.621 64.3983 583.114 62.9143 584.875 62.5133C587.682 61.6713 589.286 61.6713 589.286 63.7963C588.925 65.3963 579.986 73.5793 577.177 75.2633C574.41 76.9473 571.524 78.3903 568.837 79.8343C567.995 80.2343 566.993 80.7163 565.91 81.2773C564.626 81.9192 563.585 82.9603 562.943 84.2443L562.863 84.4043V84.5643C562.6 85.6862 562.787 86.8668 563.384 87.8523C563.631 88.3317 564.004 88.7344 564.464 89.0165C564.923 89.2986 565.451 89.4493 565.99 89.4523C566.288 89.4519 566.585 89.4115 566.872 89.3323C567.969 89.0112 569.01 88.5246 569.959 87.8893C571.133 87.2484 572.408 86.8144 573.728 86.6063C579.462 85.2833 586.759 88.3303 593.976 87.5683C595.819 87.3466 597.617 86.8463 599.309 86.0843C601.967 84.9966 604.552 83.7376 607.047 82.3153C607.247 82.1953 607.568 81.9953 608.009 81.7153C608.559 81.3862 609.071 80.9961 609.533 80.5523C610.025 80.1082 610.432 79.5782 610.733 78.9883C610.951 78.5289 611.033 78.0165 610.969 77.512C610.905 77.0075 610.698 76.5318 610.372 76.1413C609.965 75.6591 609.406 75.3292 608.787 75.2054C608.168 75.0815 607.526 75.171 606.964 75.4593C605.997 75.8923 605.06 76.388 604.157 76.9433C601.623 78.6313 598.871 79.9666 595.977 80.9123C591.727 82.2753 581.663 81.3123 579.297 81.1533C579.297 81.1533 582.505 78.2263 584.509 76.5823C590.809 71.5303 595.575 65.3153 597.981 62.9903C603.193 57.9783 603.715 57.5773 606.281 55.2113C607.444 54.1283 607.765 53.3263 607.604 52.5253C607.509 52.0696 607.312 51.6414 607.027 51.2732C606.743 50.905 606.378 50.6065 605.96 50.4003C605.118 49.9593 602.031 51.4003 602.031 51.4003C590.323 56.3723 585.752 56.9333 576.089 58.9783C576.089 58.9783 571.438 59.3783 571.438 62.2263C571.438 65.6743 575.047 64.9123 575.047 64.9123L575.175 64.9593Z" fill="#2F3D41"/>
</g>
<g opacity="0.9">
<path d="M172.814 37.9346C172.828 37.5014 172.999 37.0881 173.295 36.7716C173.434 36.6118 173.607 36.4855 173.801 36.4021C173.996 36.3188 174.207 36.2807 174.418 36.2906H189.654C190.046 36.2853 190.427 36.4254 190.722 36.6839C191.018 36.9423 191.207 37.3009 191.254 37.6906L201.122 65.7606L209.743 37.7336C209.827 37.3384 210.044 36.984 210.358 36.7293C210.672 36.4746 211.063 36.335 211.467 36.3336H226.867C227.071 36.336 227.272 36.3799 227.458 36.4626C227.644 36.5453 227.812 36.6651 227.95 36.8146C228.283 37.1129 228.485 37.531 228.511 37.9776V83.6436C228.538 83.843 228.517 84.0459 228.451 84.236C228.386 84.4261 228.276 84.5981 228.132 84.7384C227.988 84.8786 227.813 84.9831 227.621 85.0436C227.429 85.1041 227.226 85.1188 227.027 85.0866H218.002C216.96 85.0866 216.438 84.5256 216.318 83.4426V56.0576L206.895 83.6436C206.806 83.9713 206.641 84.2734 206.414 84.5256C206.325 84.6727 206.202 84.7968 206.056 84.888C205.911 84.9792 205.745 85.0349 205.574 85.0506H196.711C196.54 85.0356 196.374 84.9807 196.228 84.8902C196.082 84.7997 195.959 84.6762 195.869 84.5296C195.595 84.2965 195.422 83.9658 195.388 83.6076L184.522 56.0176V83.4036C184.545 83.6256 184.518 83.8501 184.444 84.0604C184.369 84.2708 184.248 84.4619 184.09 84.6197C183.932 84.7775 183.741 84.8981 183.531 84.9726C183.32 85.0472 183.096 85.0738 182.874 85.0506H174.257C173.295 85.0506 172.814 84.4896 172.814 83.4066V37.9346Z" fill="#2F3D41"/>
<path d="M275.78 78.7116C273.621 80.7039 271.122 82.2927 268.402 83.4026C265.654 84.5294 262.711 85.1017 259.742 85.0866C256.446 85.095 253.178 84.4689 250.119 83.2426C247.152 82.0471 244.444 80.2911 242.142 78.0706C239.843 75.8594 238.003 73.2158 236.729 70.2916C235.384 67.2361 234.702 63.93 234.729 60.5916C234.728 58.4547 234.997 56.3262 235.529 54.2566C236.04 52.2482 236.793 50.3089 237.769 48.4806C238.767 46.7049 239.966 45.0497 241.342 43.5476C242.742 42.0613 244.333 40.7671 246.073 39.6986C249.714 37.4674 253.907 36.3007 258.178 36.3306C260.196 36.3322 262.205 36.6012 264.152 37.1306C266.053 37.6763 267.883 38.4432 269.605 39.4156C271.289 40.4199 272.85 41.6177 274.256 42.9846C275.649 44.3583 276.874 45.8928 277.905 47.5556C278.919 49.2103 279.714 50.9895 280.271 52.8486C280.831 54.7222 281.114 56.6673 281.113 58.6226C281.113 59.9056 281.113 60.9486 281.073 61.7906C281.082 62.4864 280.887 63.1695 280.512 63.7556C280.072 64.2808 279.462 64.6348 278.788 64.7556C277.612 64.9817 276.415 65.0759 275.219 65.0366H248.435C248.613 66.4637 249.136 67.8259 249.959 69.0056C250.65 70.0135 251.536 70.8725 252.565 71.5316C253.539 72.157 254.609 72.6175 255.733 72.8946C256.768 73.1583 257.832 73.2927 258.901 73.2946C259.83 73.2965 260.758 73.2023 261.668 73.0136C262.593 72.8209 263.504 72.5664 264.395 72.2516C265.224 71.9547 266.029 71.5925 266.801 71.1686C267.444 70.8232 268.038 70.3916 268.565 69.8856C268.887 69.6098 269.236 69.3679 269.608 69.1636C269.889 69.0047 270.207 68.9216 270.53 68.9226C270.885 68.9427 271.229 69.0532 271.53 69.2436C271.926 69.5373 272.302 69.8588 272.653 70.2056L276.582 74.6966C276.819 74.9478 276.997 75.2493 277.103 75.5786C277.184 75.8374 277.225 76.1073 277.223 76.3786C277.219 76.8364 277.08 77.2829 276.823 77.6616C276.543 78.0211 276.22 78.3443 275.861 78.6236L275.78 78.7116ZM257.897 47.7176C256.934 47.7224 255.981 47.9136 255.091 48.2806C254.162 48.6699 253.297 49.1972 252.525 49.8446C251.718 50.4778 251.003 51.2198 250.4 52.0496C249.785 52.8156 249.26 53.6498 248.836 54.5356H267.842C267.346 53.6008 266.783 52.7031 266.158 51.8496C265.568 51.0318 264.866 50.3015 264.072 49.6806C263.279 49.0296 262.366 48.5395 261.386 48.2376C260.249 47.8618 259.055 47.6856 257.858 47.7166L257.897 47.7176Z" fill="#2F3D41"/>
<path d="M286.726 39.0968C286.715 38.6793 286.811 38.2659 287.007 37.8968C287.167 37.5452 287.4 37.2312 287.689 36.9748C288.283 36.5781 288.975 36.3556 289.689 36.3328H295.306C295.695 36.3134 296.082 36.3965 296.429 36.5738C296.704 36.7482 296.937 36.9811 297.111 37.2558C297.318 37.5363 297.481 37.8474 297.592 38.1778C297.733 38.5405 297.908 38.8893 298.113 39.2198C298.153 39.2998 298.273 40.3428 298.394 40.7038C298.554 41.1038 298.715 41.5038 298.875 41.9868C299.035 42.4698 299.236 42.8688 299.396 43.3098C299.556 43.7098 299.677 43.9918 299.717 44.1098C300.479 43.3098 301.16 42.4258 301.882 41.5438C302.55 40.6574 303.273 39.8137 304.047 39.0178C304.795 38.2547 305.661 37.618 306.613 37.1328C307.654 36.5999 308.812 36.3378 309.981 36.3708C311.192 36.3492 312.402 36.4568 313.59 36.6918C314.62 36.8819 315.628 37.1775 316.597 37.5738C317.58 37.9732 318.52 38.4703 319.404 39.0578C320.326 39.6578 321.329 40.3408 322.451 41.1428C324.175 42.0648 324.496 43.4282 323.413 45.2328L320.045 51.0068C319.634 51.6866 318.971 52.1765 318.201 52.3698C317.412 52.5345 316.59 52.421 315.875 52.0488C314.923 51.1056 313.827 50.3204 312.627 49.7228C311.444 49.19 310.156 48.9296 308.858 48.9608C307.986 48.9406 307.117 49.076 306.292 49.3608C305.563 49.63 304.886 50.0235 304.292 50.5238C303.652 51.0451 303.086 51.6506 302.608 52.3238C302.087 53.0052 301.565 53.7668 301.044 54.6088V82.2798C301.098 83.0495 300.854 83.8106 300.362 84.4048C300.049 84.6728 299.685 84.8748 299.293 84.9989C298.9 85.1229 298.486 85.1665 298.076 85.1268H289.696C289.304 85.1833 288.903 85.1476 288.527 85.0226C288.151 84.8975 287.809 84.6865 287.529 84.4064C287.248 84.1262 287.037 83.7845 286.911 83.4085C286.786 83.0324 286.75 82.6323 286.806 82.2398V39.0968H286.726Z" fill="#2F3D41"/>
<path d="M328.426 39.0207C328.419 38.6036 328.516 38.1914 328.707 37.8207C328.867 37.4691 329.1 37.155 329.389 36.8987C329.974 36.4846 330.672 36.2605 331.389 36.2567H337.002C337.391 36.2372 337.778 36.3204 338.125 36.4977C338.409 36.6608 338.644 36.8961 338.807 37.1797C339.006 37.465 339.168 37.7749 339.288 38.1017C339.408 38.4627 339.609 38.7837 339.769 39.1437C339.884 39.3755 339.978 39.6171 340.05 39.8657C340.21 40.2657 340.371 41.5097 340.531 41.9507C340.691 42.4317 340.852 42.8327 341.012 43.2737C341.172 43.6737 341.293 43.9557 341.333 44.0737C342.055 43.2737 342.776 42.3897 343.458 41.5077C344.126 40.6212 344.849 39.7776 345.623 38.9817C346.378 38.2275 347.243 37.592 348.189 37.0967C349.227 36.5549 350.387 36.2923 351.557 36.3347C352.755 36.3091 353.952 36.4168 355.126 36.6557C356.156 36.8458 357.164 37.1413 358.133 37.5377C359.116 37.937 360.056 38.4341 360.94 39.0217C361.862 39.6217 362.865 40.3047 363.947 41.1067C365.671 42.0287 365.992 43.392 364.909 45.1967L361.501 50.9707C361.306 51.3053 361.046 51.598 360.737 51.8319C360.428 52.0658 360.076 52.2364 359.701 52.3337C358.912 52.4983 358.09 52.3849 357.375 52.0127C356.423 51.0694 355.327 50.2842 354.127 49.6867C352.942 49.1579 351.655 48.8977 350.358 48.9247C349.485 48.9011 348.616 49.0367 347.792 49.3247C347.063 49.5938 346.386 49.9873 345.792 50.4877C345.152 51.0089 344.585 51.6144 344.108 52.2877C343.587 52.969 343.065 53.7307 342.544 54.5727V82.1607C342.598 82.9304 342.354 83.6914 341.862 84.2857C341.549 84.5535 341.186 84.7554 340.793 84.8795C340.4 85.0035 339.987 85.0471 339.577 85.0077H331.197C330.805 85.0643 330.404 85.0288 330.028 84.9038C329.652 84.7788 329.31 84.5678 329.029 84.2877C328.748 84.0075 328.537 83.6657 328.411 83.2896C328.286 82.9134 328.25 82.5132 328.306 82.1207V39.0207H328.426Z" fill="#2F3D41"/>
<path d="M368.281 39.8995C368.082 39.5011 367.979 39.0619 367.979 38.6165C367.979 38.1712 368.082 37.7319 368.281 37.3335C368.681 36.6115 369.524 36.2915 370.847 36.2915H380.029C380.59 36.2802 381.134 36.4805 381.553 36.8525C381.969 37.2477 382.273 37.7454 382.435 38.2955L393.18 69.0505L403.685 38.2955C403.845 37.6611 404.212 37.0981 404.727 36.6955C405.264 36.3953 405.877 36.2564 406.491 36.2955H416.074C416.636 36.2659 417.198 36.3619 417.718 36.5765C418.083 36.7176 418.383 36.9891 418.56 37.3385C418.735 37.6559 418.792 38.0252 418.72 38.3805C418.669 38.7643 418.575 39.141 418.439 39.5035C417.477 41.8295 416.274 45.1575 415.151 47.9235C414.028 50.6895 412.866 53.5775 411.663 56.5445C410.463 59.5515 409.217 62.5585 408.014 65.6445C406.771 68.7315 405.568 71.7795 404.365 74.7445C403.202 77.7115 402.039 80.5985 400.957 83.3255C399.874 86.0925 398.872 88.5785 397.95 90.9035C397.068 93.1885 396.266 95.1935 395.584 96.9575C394.902 98.6815 394.421 100.045 394.06 100.968L394.18 100.768C394.046 101.383 393.724 101.943 393.258 102.368C392.806 102.769 392.219 102.984 391.614 102.968H383.033C382.629 103.018 382.218 102.988 381.826 102.878C381.433 102.767 381.067 102.58 380.748 102.326C380.313 101.782 380.099 101.095 380.148 100.401C380.114 100.153 380.156 99.9015 380.268 99.6785C380.321 99.5636 380.388 99.4557 380.468 99.3575L386.322 84.1575L368.322 39.8915L368.281 39.8995Z" fill="#2F3D41"/>
</g>
<path d="M183.559 119.892L188.515 120.892C188.18 122.009 187.913 123.144 187.715 124.292C186.973 127.76 186.012 131.178 184.837 134.524C183.531 137.942 181.842 141.201 179.801 144.237L175.045 142.237C177.223 139.34 179.01 136.168 180.361 132.804C182.022 128.668 183.11 124.323 183.595 119.892H183.559ZM192.193 120.892L196.71 119.413C198.576 123.038 200.246 126.761 201.71 130.565C202.949 133.643 204.748 139.039 205.667 142.436L200.631 144.075C199.692 140.013 198.518 136.01 197.114 132.084C195.703 128.257 194.061 124.519 192.195 120.891L192.193 120.892ZM202.985 120.892L200.267 122.092C199.49 120.465 198.609 118.89 197.629 117.376L200.307 116.257C201.146 117.496 202.345 119.657 202.985 120.894V120.892ZM207.062 119.333L204.344 120.533C203.564 118.905 202.655 117.341 201.626 115.857L204.304 114.738C205.308 116.232 206.229 117.78 207.062 119.375V119.333Z" fill="#00ABDC"/>
<path d="M210.898 127.607C212.137 127.727 214.615 127.807 216.374 127.807H234.6C236.159 127.807 237.678 127.687 238.557 127.607V132.923C237.757 132.923 235.999 132.763 234.6 132.763H216.378C214.459 132.763 212.178 132.843 210.902 132.923L210.898 127.607Z" fill="#00ABDC"/>
<path d="M270.134 127.288C270.853 127.288 272.492 127.168 273.212 127.088V131.488C272.293 131.408 271.134 131.368 270.212 131.368H261.42C261.267 134.241 260.387 137.027 258.862 139.467C257.338 141.907 255.22 143.92 252.706 145.318L248.39 142.396C253.546 140.038 256.264 136.396 256.904 131.364H247.551C246.512 131.364 245.233 131.444 244.351 131.484V127.084C245.385 127.214 246.427 127.281 247.469 127.284H257.063V122.451C253.785 122.731 250.228 122.811 247.95 122.891L246.911 118.934C250.783 119.04 254.658 118.853 258.502 118.374C261.426 118.049 264.299 117.364 267.056 116.336L269.856 120.093C268.697 120.373 267.818 120.613 267.256 120.733C265.577 121.173 263.579 121.533 261.54 121.852V127.252H270.094L270.134 127.288Z" fill="#00ABDC"/>
<path d="M294.675 135.761C296.604 133.952 298.285 131.895 299.675 129.646C298.875 129.806 295.475 130.485 291.841 131.285C293.12 135.922 294.559 141.158 295.119 142.956C295.319 143.556 295.759 145.074 296.038 145.756L291.401 146.875C291.27 145.876 291.07 144.887 290.801 143.917C290.281 142.078 288.882 136.802 287.683 132.166C284.845 132.766 282.367 133.285 281.328 133.525L280.286 129.445C281.365 129.325 282.286 129.245 283.404 129.045C283.884 128.965 285.083 128.765 286.682 128.485C286.362 127.166 286.042 126.085 285.803 125.327C285.581 124.491 285.259 123.685 284.844 122.927L289.401 121.848C289.543 122.723 289.729 123.591 289.961 124.448L290.88 127.726C295.197 126.926 299.953 126.007 301.272 125.688C301.866 125.574 302.444 125.386 302.991 125.128L305.706 127.087C303.719 130.902 301.291 134.47 298.471 137.719L294.715 135.841L294.675 135.761Z" fill="#00ABDC"/>
<path d="M311.064 142.075C313.805 140.059 315.823 137.214 316.82 133.961C317.779 131.043 317.82 124.608 317.82 120.491C317.844 119.456 317.736 118.421 317.5 117.413H322.5C322.357 118.434 322.276 119.463 322.256 120.494C322.256 124.494 322.136 131.686 321.256 135.083C320.26 138.862 318.159 142.258 315.221 144.836L311.064 142.075ZM326.812 142.595C326.98 141.766 327.074 140.923 327.092 140.077V120.252C327.101 119.272 327.007 118.294 326.812 117.334H331.884C331.732 118.313 331.652 119.301 331.644 120.292V138.078C335.012 136.456 337.903 133.992 340.038 130.923L342.638 134.68C339.459 138.508 335.546 141.661 331.129 143.954C330.602 144.235 330.107 144.57 329.65 144.954L326.812 142.594V142.595Z" fill="#00ABDC"/>
<path d="M349.435 135.042C349.199 138.046 348.512 140.996 347.397 143.795C346.411 143.223 345.382 142.728 344.319 142.316C345.349 139.809 345.958 137.148 346.119 134.442L349.437 135.002L349.435 135.042ZM375.576 117.215C374.47 120.556 372.562 123.575 370.02 126.008C372.195 127.218 374.539 128.095 376.975 128.608C376.024 129.601 375.193 130.701 374.497 131.886C371.801 131.163 369.238 130.015 366.903 128.486C364.497 130.029 361.887 131.226 359.149 132.043C358.567 130.866 357.842 129.765 356.991 128.765C357.591 130.048 358.06 131.388 358.391 132.765L355.553 134.044C355.433 133.524 355.313 132.965 355.113 132.325L353.394 132.445V146.355H349.875V132.683L344.959 133.003L344.639 129.486L347.077 129.366C347.597 128.726 348.116 127.966 348.677 127.208C347.491 125.541 346.152 123.989 344.677 122.571L346.596 119.813C346.836 120.013 347.116 120.253 347.396 120.492C348.376 118.589 349.205 116.61 349.874 114.576L353.391 115.855C352.152 118.173 350.791 120.771 349.591 122.69C350.031 123.17 350.391 123.649 350.75 124.049C351.909 122.13 352.988 120.212 353.788 118.533L357.066 120.052C355.187 123.01 352.866 126.452 350.711 129.205L353.989 129.085C353.629 128.246 353.189 127.406 352.789 126.647L355.471 125.527C356.046 126.538 356.567 127.579 357.03 128.645C359.407 128.03 361.682 127.074 363.785 125.807C362.165 124.179 360.815 122.303 359.785 120.251L361.943 119.532H358.069V116.056H372.139L372.858 115.896L375.576 117.135V117.215ZM356.35 134.202C357.22 136.18 357.929 138.225 358.468 140.317L355.468 141.396C354.971 139.246 354.317 137.135 353.509 135.081L356.347 134.202H356.35ZM369.061 141.836H376.495V145.353H357.309V141.837H365.103V137.88H359.303V134.327H365.103V130.285H369.06V134.327H375.096V137.884H369.06V141.837L369.061 141.836ZM363.505 119.613C364.352 121.141 365.461 122.508 366.783 123.65C368.083 122.476 369.201 121.116 370.101 119.613H363.505Z" fill="#00ABDC"/>
<path d="M390.524 139.518C386.767 140.837 382.73 142.118 379.452 143.195L378.533 139.078C379.733 138.758 381.133 138.399 382.69 137.959V129.966H379.252V126.248H382.689V120.248H378.933V116.496H390.125V120.253H386.487V126.253H389.565V129.966H386.487V136.761C387.606 136.441 388.725 136.082 389.805 135.722L390.484 139.522L390.524 139.518ZM410.709 141.596V145.273H388.885V141.597H398.278V138.359H391.243V134.722H398.278V131.806H391.483V116.016H409.23V131.806H402.395V134.724H409.59V138.361H402.395V141.599H410.749L410.709 141.596ZM395.081 122.251H398.598V119.413H395.081V122.251ZM395.081 128.366H398.598V125.449H395.081V128.366ZM405.353 119.413H401.996V122.251H405.353V119.413ZM405.353 125.413H401.996V128.331H405.353V125.413Z" fill="#00ABDC"/>
<path d="M444.085 120.331C443.613 120.893 443.173 121.481 442.766 122.09C440.613 125.66 437.838 128.814 434.572 131.403L431.055 128.565C433.569 126.941 435.697 124.785 437.29 122.25H419.583C418.144 122.25 417.025 122.37 415.426 122.49V117.773C416.801 117.985 418.191 118.092 419.583 118.093H437.889C439.042 118.103 440.194 117.996 441.326 117.773L444.044 120.291L444.085 120.331ZM430.215 124.931C430.215 133.365 430.055 140.28 420.782 145.231L416.825 141.993C418.102 141.558 419.302 140.924 420.382 140.114C424.699 137.114 425.498 133.514 425.498 127.963C425.496 126.946 425.416 125.93 425.258 124.925H430.174L430.215 124.931Z" fill="#00ABDC"/>
<path d="M458.633 128.965L456.155 132.765C453.655 131.021 451.067 129.407 448.401 127.929L450.879 124.172C453.157 125.411 456.879 127.729 458.633 128.972V128.965ZM461.391 136.759C466.864 133.772 471.433 129.368 474.621 124.009L477.221 128.646C471.342 137.094 462.442 142.961 452.361 145.034L449.803 140.557C453.846 139.925 457.761 138.641 461.394 136.757L461.391 136.759ZM463.869 121.291L461.311 125.048C459.392 123.729 455.875 121.411 453.637 120.172L456.115 116.455C458.353 117.694 462.115 120.092 463.869 121.291Z" fill="#00ABDC"/>
<path d="M507.917 120.332C507.463 121.006 507.062 121.714 506.717 122.45C505.264 125.738 503.483 128.872 501.401 131.803C504.784 134.813 507.95 138.058 510.874 141.516L506.997 144.873C504.42 141.428 501.559 138.206 498.443 135.24C494.792 139.17 490.46 142.407 485.656 144.794L482.139 141.117C487.448 138.95 492.202 135.617 496.049 131.364C498.232 128.924 499.952 126.107 501.125 123.05H489.61C488.171 123.05 486.332 123.25 485.61 123.29V118.454C486.529 118.574 488.61 118.694 489.61 118.694H501.561C502.748 118.72 503.933 118.571 505.078 118.254L507.878 120.332H507.917Z" fill="#00ABDC"/>
<path d="M544.09 121.691C543.662 122.465 543.288 123.267 542.971 124.091C541.828 127.388 540.255 130.519 538.294 133.404C539.533 134.204 540.694 134.963 541.572 135.562L538.494 139.519C537.484 138.664 536.43 137.863 535.336 137.119C531.869 140.883 527.571 143.785 522.785 145.593L518.828 142.156C523.635 140.759 528 138.143 531.499 134.562C529.181 133.083 526.862 131.684 525.144 130.685L528.022 127.447C529.822 128.366 532.139 129.647 534.422 131.004C536.002 128.813 537.192 126.366 537.939 123.769H528.186C525.684 127.143 522.662 130.098 519.233 132.522L515.556 129.684C520.076 126.921 523.806 123.039 526.388 118.412C527.065 117.308 527.577 116.109 527.907 114.855L532.823 116.374C532.023 117.574 531.104 119.132 530.705 119.851H537.611C538.606 119.859 539.598 119.752 540.569 119.531L544.046 121.689L544.09 121.691Z" fill="#00ABDC"/>
<path d="M564.474 135.72C569.773 132.584 574.059 127.992 576.825 122.49L579.463 127.29C576.732 131.79 573.08 135.662 568.747 138.651C564.414 141.64 559.498 143.679 554.322 144.634L551.484 140.157C556.075 139.54 560.501 138.033 564.514 135.72H564.474ZM564.474 124.728L560.997 128.285C558.371 125.614 555.537 123.155 552.523 120.931L555.723 117.531C558.824 119.683 561.751 122.075 564.477 124.686L564.474 124.728Z" fill="#00ABDC"/>
<path d="M609.081 135.521C605.106 133.564 601.006 131.868 596.81 130.445V140.078C596.81 141.078 596.97 143.435 597.13 144.794H591.814C592.035 143.231 592.155 141.656 592.174 140.078V120.572C592.175 119.192 592.054 117.814 591.814 116.455H597.13C596.954 117.821 596.848 119.195 596.81 120.572V125.572C601.661 126.987 606.403 128.75 610.999 130.848L609.08 135.524L609.081 135.521Z" fill="#00ABDC"/>
<path d="M85.5077 74.9974C79.1537 74.9974 73.9077 72.7734 71.6477 69.4374C68.6211 69.9541 65.5257 69.9138 62.5137 69.3184C59.9327 72.1384 55.0867 73.9254 49.4077 73.9254C46.7987 73.9436 44.2061 73.5137 41.7427 72.6544C36.6987 79.4454 36.3017 92.5544 37.6127 103.631C40.4717 127.54 53.4577 143.028 66.6437 144.458V140.968L60.4877 136.441C59.1377 135.289 59.0577 133.86 60.0107 132.946C61.2417 131.794 62.3537 132.39 63.8627 133.621L68.5497 137.468L72.9977 133.933C74.5067 132.622 76.4527 131.908 77.2077 132.94C77.9627 133.933 77.9227 134.727 76.6077 135.919L70.2137 141.002V144.338C83.0847 141.162 97.6637 126.904 98.0177 103.274C98.2557 88.3024 97.5407 81.3914 94.8007 73.1314C92.7357 73.7664 88.0097 75.0374 85.4277 75.0374L85.5077 74.9974Z" fill="#00ABDC"/>
<path d="M0.000897315 138.024C-0.0781027 134.688 1.8279 131.193 5.2009 128.651C4.8009 125.593 6.1539 122.336 8.7749 119.715C8.56593 119.357 8.38021 118.985 8.2189 118.603C6.9079 115.303 7.8189 111.613 10.5189 108.555C9.6105 107.642 8.93248 106.526 8.5409 105.299C7.4289 101.923 8.6199 98.1902 11.5589 95.2912C10.8466 94.3135 10.3708 93.1839 10.1689 91.9912C9.93401 90.45 10.091 88.8744 10.6255 87.4099C11.1599 85.9453 12.0546 84.6389 13.2269 83.6112C12.8395 82.9157 12.5583 82.166 12.3929 81.3872C12.0001 79.3814 12.3232 77.3014 13.3059 75.5092C7.9849 72.8922 6.2009 68.2852 4.7689 64.4322C4.4119 63.3992 3.2599 60.3412 4.8479 58.0382C5.27449 57.4308 5.8478 56.9412 6.51448 56.615C7.18116 56.2887 7.91953 56.1364 8.6609 56.1722C10.0973 56.2374 11.5041 56.6025 12.7909 57.2442L19.5009 61.2162C20.705 59.7813 22.2098 58.6288 23.9089 57.8402C24.0679 52.9952 28.4759 48.8652 34.6319 47.6732C35.9029 42.9872 41.2249 39.5732 47.7779 39.5732C49.1005 39.5768 50.4188 39.7233 51.7099 40.0102C54.7679 37.1102 60.2489 35.3242 66.4439 35.3242H67.7549C73.9549 35.3242 79.4309 37.1112 82.4889 40.0102C83.7803 39.7255 85.0984 39.579 86.4209 39.5732C92.9739 39.5732 98.2959 42.9882 99.5669 47.6732C102.183 48.1373 104.633 49.2746 106.676 50.9732C107.719 51.8079 108.578 52.849 109.2 54.0314C109.822 55.2137 110.193 56.5118 110.29 57.8442C111.904 58.6094 113.348 59.6896 114.539 61.0212L120.739 57.3672C122.066 56.6646 123.529 56.2582 125.028 56.1762C125.769 56.1405 126.508 56.293 127.174 56.6194C127.841 56.9458 128.414 57.4356 128.841 58.0432C130.43 60.3072 129.278 63.4042 128.92 64.4372C127.53 68.2502 125.783 72.7772 120.82 75.3582C121.88 77.1804 122.247 79.3241 121.853 81.3952C121.701 82.1779 121.419 82.9296 121.019 83.6192C122.191 84.6469 123.086 85.9533 123.62 87.4179C124.155 88.8824 124.312 90.458 124.077 91.9992C123.875 93.1919 123.399 94.3215 122.687 95.2992C125.626 98.1992 126.817 101.931 125.705 105.307C125.302 106.531 124.622 107.645 123.719 108.564C126.38 111.622 127.333 115.315 126.019 118.612C125.874 119.002 125.687 119.374 125.463 119.724C128.124 122.345 129.434 125.562 129.037 128.624C132.413 131.086 136.344 135.931 134.597 140.459L133.366 142.008L130.189 142.485C129.634 142.106 129.225 141.549 129.03 140.907C128.835 140.264 128.866 139.573 129.117 138.95C129.673 137.56 127.608 134.462 124.117 132.556C123.435 132.185 122.928 131.559 122.705 130.816C122.482 130.072 122.561 129.271 122.926 128.585C123.681 126.758 122.171 124.256 119.511 122.628C119.092 122.367 118.745 122.004 118.502 121.574C118.26 121.144 118.128 120.66 118.121 120.166C118.118 119.674 118.235 119.188 118.464 118.752C118.693 118.316 119.025 117.943 119.432 117.666C119.876 117.396 120.223 116.993 120.425 116.514C121.06 114.886 119.631 112.423 117.089 110.795C116.619 110.493 116.243 110.064 116.005 109.559C115.766 109.054 115.674 108.491 115.739 107.936C115.81 107.383 116.034 106.859 116.384 106.425C116.735 105.99 117.199 105.661 117.725 105.474C118.231 105.347 118.702 105.105 119.101 104.768C119.499 104.431 119.816 104.007 120.025 103.528C120.581 101.9 119.112 99.6362 116.57 98.1282C116.128 97.8686 115.763 97.4966 115.512 97.0501C115.261 96.6036 115.132 96.0985 115.14 95.5862C115.141 95.0756 115.273 94.5737 115.523 94.1286C115.774 93.6835 116.134 93.3102 116.57 93.0442C116.966 92.8364 117.314 92.5494 117.595 92.201C117.875 91.8527 118.08 91.4504 118.198 91.0192C118.436 89.6292 117.285 87.9192 115.219 86.7302C114.795 86.4867 114.439 86.1412 114.182 85.7251C113.926 85.3089 113.777 84.8353 113.75 84.3472C113.711 83.8606 113.796 83.3722 113.998 82.9276C114.199 82.483 114.51 82.0968 114.902 81.8052C115.45 81.4246 115.844 80.8612 116.014 80.2162C116.066 79.6894 115.997 79.1575 115.811 78.6618C115.625 78.166 115.328 77.7197 114.942 77.3572C112.195 78.1194 109.371 78.5722 106.523 78.7072C105.337 78.7381 104.154 78.5635 103.028 78.1912C99.7279 77.0392 98.8579 75.1732 98.7389 73.7832C98.4609 70.8442 101.239 68.9782 102.115 68.5012L109.264 64.2522C108.363 63.5627 107.338 63.0506 106.246 62.7432C105.865 62.6292 105.512 62.4405 105.205 62.1883C104.898 61.9361 104.644 61.6254 104.459 61.2742C104.099 60.5619 104.027 59.738 104.259 58.9742C104.327 58.8237 104.367 58.6621 104.378 58.4972C104.354 57.9328 104.206 57.3806 103.946 56.8795C103.685 56.3784 103.317 55.9407 102.869 55.5972C101.284 54.3404 99.3596 53.5864 97.3429 53.4322H96.8269C96.0114 53.3552 95.2505 52.9888 94.6819 52.3992C94.4151 52.0969 94.211 51.7447 94.0814 51.3629C93.9518 50.9811 93.8993 50.5774 93.9269 50.1752C93.9269 47.9112 90.8689 45.6082 86.4609 45.6082C85.1209 45.6026 83.7903 45.8311 82.5289 46.2832C81.8835 46.5306 81.1716 46.5428 80.518 46.3177C79.8645 46.0926 79.3111 45.6446 78.9549 45.0522C77.8429 43.2652 73.5549 41.3592 67.7549 41.3592H66.4449C60.6449 41.3592 56.3579 43.2652 55.2449 45.0522C54.8779 45.6332 54.3238 46.0717 53.6741 46.2955C53.0244 46.5193 52.3178 46.515 51.6709 46.2832C50.4225 45.8344 49.1055 45.606 47.7789 45.6082C43.3709 45.6082 40.2729 47.8722 40.2729 49.9372C40.3521 50.7755 40.1109 51.6126 39.5979 52.2802C39.3512 52.6086 39.035 52.8785 38.6721 53.0707C38.3091 53.2629 37.9082 53.3727 37.4979 53.3922H36.8979C32.5289 53.8692 29.6699 56.4102 29.8689 58.4752C29.8795 58.6401 29.9199 58.8017 29.9879 58.9522C30.2198 59.716 30.1482 60.5399 29.7879 61.2522C29.6028 61.6041 29.3495 61.9156 29.0426 62.1686C28.7358 62.4215 28.3817 62.6107 28.0009 62.7252C26.8185 63.056 25.7214 63.6382 24.7849 64.4322L31.6949 68.5232C32.5289 69.0002 35.3089 70.8232 35.0309 73.8052C34.9119 75.1952 34.0379 77.0622 30.7419 78.2132C29.6154 78.5855 28.4329 78.7601 27.2469 78.7292C24.5361 78.6121 21.8461 78.1993 19.2249 77.4982C18.8596 77.8561 18.5805 78.2923 18.4084 78.7739C18.2364 79.2555 18.1761 79.7699 18.2319 80.2782C18.4019 80.9232 18.7961 81.4866 19.3439 81.8672C19.7353 82.1588 20.0464 82.545 20.2479 82.9896C20.4493 83.4342 20.5347 83.9226 20.4959 84.4092C20.4551 84.8938 20.3009 85.362 20.0457 85.776C19.7905 86.1899 19.4415 86.5381 19.0269 86.7922C16.9619 87.9832 15.7699 89.6922 16.0479 91.0812C16.1658 91.5124 16.3712 91.9147 16.6513 92.263C16.9314 92.6114 17.2801 92.8984 17.6759 93.1062C18.1154 93.3709 18.4784 93.7455 18.729 94.1932C18.9797 94.6408 19.1094 95.1461 19.1053 95.6591C19.1013 96.1722 18.9637 96.6753 18.706 97.119C18.4483 97.5626 18.0795 97.9315 17.6359 98.1892C15.0939 99.6982 13.6649 101.962 14.1809 103.589C14.4032 104.059 14.7235 104.476 15.1202 104.811C15.5169 105.147 15.9809 105.394 16.4809 105.535C17.0094 105.718 17.4758 106.046 17.827 106.481C18.1781 106.917 18.3999 107.442 18.4669 107.997C18.5234 108.552 18.4275 109.111 18.1896 109.615C17.9517 110.118 17.5808 110.548 17.1169 110.856C14.5749 112.484 13.1059 114.947 13.7809 116.575C13.9827 117.054 14.3301 117.457 14.7739 117.727C15.1869 117.998 15.524 118.37 15.7533 118.807C15.9827 119.245 16.0968 119.733 16.0849 120.227C16.0774 120.721 15.9463 121.205 15.7035 121.635C15.4606 122.065 15.1139 122.428 14.6949 122.689C12.0339 124.357 10.5649 126.859 11.1999 128.527C11.5597 129.231 11.6451 130.043 11.4396 130.806C11.2341 131.57 10.7524 132.229 10.0879 132.657C7.1089 134.285 5.3619 136.986 6.0769 138.773C6.23498 139.161 6.30624 139.579 6.28568 139.998C6.26513 140.416 6.15325 140.825 5.9579 141.196L5.6799 141.752C5.2429 142.626 4.6869 143.852 3.4559 143.38C2.36305 142.923 1.45453 142.113 0.874897 141.08L0.000897315 138.024Z" fill="#00ABDC"/>
</svg>
