<svg xmlns="http://www.w3.org/2000/svg" width="25" height="25" viewBox="0 0 25 25">
  <path id="パス_117" data-name="パス 117" d="M-75.974-298.974a1.017,1.017,0,0,1,0-1.474L-71.421-305l-4.526-4.526a1.038,1.038,0,0,1-.316-.737,1.039,1.039,0,0,1,.316-.737,1.017,1.017,0,0,1,1.474,0l5.262,5.263a1.017,1.017,0,0,1,0,1.474l-5.29,5.29a1.065,1.065,0,0,1-1.473,0ZM-60.5-305A12.512,12.512,0,0,0-73-317.5,12.512,12.512,0,0,0-85.5-305,12.512,12.512,0,0,0-73-292.5,12.512,12.512,0,0,0-60.5-305Z" transform="translate(85.5 317.5)" fill="#79dffc" opacity="0.6"/>
</svg>
