<svg xmlns="http://www.w3.org/2000/svg" width="200" height="200" viewBox="0 0 200 200">
  <g id="グループ化_354" data-name="グループ化 354" transform="translate(-600 -982)">
    <circle id="楕円形_35" data-name="楕円形 35" cx="100" cy="100" r="100" transform="translate(600 982)" fill="#06bcf0"/>
    <g id="グループ化_54" data-name="グループ化 54" transform="translate(205.875 517.875)">
      <rect id="長方形_1114" data-name="長方形 1114" width="3.125" height="3.125" transform="translate(453.375 523.375)" fill="#fff"/>
      <rect id="長方形_1115" data-name="長方形 1115" width="3.125" height="3.125" transform="translate(459.625 523.375)" fill="#fff"/>
      <rect id="長方形_1116" data-name="長方形 1116" width="3.125" height="3.125" transform="translate(465.875 523.375)" fill="#fff"/>
      <rect id="長方形_1117" data-name="長方形 1117" width="3.125" height="3.125" transform="translate(469 548.375)" fill="#fff"/>
      <rect id="長方形_1118" data-name="長方形 1118" width="50" height="3.125" transform="translate(475.25 548.375)" fill="#fff"/>
      <rect id="長方形_1119" data-name="長方形 1119" width="3.125" height="3.125" transform="translate(469 554.625)" fill="#fff"/>
      <rect id="長方形_1120" data-name="長方形 1120" width="43.75" height="3.125" transform="translate(475.25 554.625)" fill="#fff"/>
      <rect id="長方形_1121" data-name="長方形 1121" width="3.125" height="3.125" transform="translate(469 560.875)" fill="#fff"/>
      <rect id="長方形_1122" data-name="長方形 1122" width="46.875" height="3.125" transform="translate(475.25 560.875)" fill="#fff"/>
      <rect id="長方形_1123" data-name="長方形 1123" width="3.125" height="3.125" transform="translate(469 573.375)" fill="#fff"/>
      <rect id="長方形_1124" data-name="長方形 1124" width="3.125" height="3.125" transform="translate(469 579.625)" fill="#fff"/>
      <path id="パス_31" data-name="パス 31" d="M481.5,570.25v-3.125H459.625V545.25H481.5v-3.125H459.625v-6.25H456.5v62.5h3.125V570.25Z" fill="#fff"/>
      <path id="パス_32" data-name="パス 32" d="M533.375,601.031l-2.5,2.5-5.469-3.906-.781.469a9.572,9.572,0,0,1-1.875.781l-.938.313-1.093,6.562h-3.594l-1.094-6.719-.937-.312a9.572,9.572,0,0,1-1.875-.781l-.782-.469-5.469,3.906-2.5-2.5,3.907-5.469-.469-.781a9.51,9.51,0,0,1-.781-1.875l-.313-.938-6.562-1.093v-3.594l6.718-1.094.313-.937a9.572,9.572,0,0,1,.781-1.875l.469-.782-3.906-5.469,2.5-2.5,5.469,3.907.781-.469a9.512,9.512,0,0,1,1.875-.781l.937-.313,1.094-6.562h3.594l.937,6.718.938.313a9.572,9.572,0,0,1,1.875.781l.781.469,5.469-3.906,2.5,2.5-3.906,5.469.469.781a9.572,9.572,0,0,1,.781,1.875l.312.937,6.563,1.094v3.594l-6.563,1.094-.312.937a9.572,9.572,0,0,1-.781,1.875l-.469.781Zm-83.125.469V532.75H531.5v37.5l-6.094,4.375c-.156-.156-.469-.156-.625-.312l-1.25-7.344h-8.906l-1.25,7.344c-.156.156-.469.156-.625.312l-6.094-4.375-3.125,3.125H475.25V576.5h25.156l2.188,3.125H475.25v3.125h29.531c0,.156-.157.313-.313.469l-7.344,1.25v8.906l7.188,1.25c.156.156.156.469.312.625l-4.375,6.094.157.156Zm0-81.25H531.5v9.375H450.25Zm90.781,73.281v-8.906l-7.344-1.25c-.156-.156-.156-.469-.312-.625l4.375-6.25-3.125-3.125v-56.25h-87.5v87.5h56.406l2.969,2.969,6.093-4.375c.157.156.469.156.625.312l1.25,7.344h8.906l1.25-7.188c.157-.156.469-.156.625-.312l6.25,4.375,6.25-6.25-4.375-6.094c.157-.156.157-.469.313-.625Z" fill="#fff"/>
      <path id="パス_33" data-name="パス 33" d="M519,592.125A3.125,3.125,0,1,1,522.125,589,3.134,3.134,0,0,1,519,592.125Zm0-9.375a6.25,6.25,0,1,0,6.25,6.25A6.268,6.268,0,0,0,519,582.75Z" fill="#fff"/>
    </g>
  </g>
</svg>
