<svg xmlns="http://www.w3.org/2000/svg" width="200" height="200" viewBox="0 0 200 200">
  <g id="グループ化_355" data-name="グループ化 355" transform="translate(-980 -982)">
    <circle id="楕円形_36" data-name="楕円形 36" cx="100" cy="100" r="100" transform="translate(980 982)" fill="#06bcf0"/>
    <g id="グループ化_55" data-name="グループ化 55" transform="translate(107.303 479.692)">
      <path id="パス_34" data-name="パス 34" d="M1026.593,637.409l-3.311,4.635h-96.8l-3.311-4.635v-1.655h103.419Zm-45.338-15.222a1.482,1.482,0,0,1-1.488,1.487h-3.807a1.487,1.487,0,1,1,0-2.974h3.807C980.592,620.864,981.255,621.36,981.255,622.187Zm19.693-30.116V610.44h-3.475V592.071Zm2.484,16.218v-14.23a6.936,6.936,0,0,1,5.625,6.786v.664a6.8,6.8,0,0,1-5.625,6.781Zm-54.775-16.218h3.474V610.44h-3.474Zm-2.484,1.988v14.23a7.024,7.024,0,0,1-5.625-6.786v-.664a7.067,7.067,0,0,1,5.625-6.78Zm-17.209-18.865h18.7a33.361,33.361,0,0,0-4.966,17.542,9.461,9.461,0,0,0-4.466,7.941v.664a9.825,9.825,0,0,0,2.646,6.617,9.482,9.482,0,0,0,5.462,2.647v1.988h8.441v-23h-8.441v1.988c-.331,0-.664.163-.991.163.827-16.713,13.735-29.953,29.62-29.953s28.793,13.239,29.62,29.953a2.128,2.128,0,0,0-.992-.163v-1.988h-8.441v23.33h8.441v-1.988a3.838,3.838,0,0,0,1.323-.331v7.121a3.32,3.32,0,0,1-3.311,3.311l-18.037,0a3.938,3.938,0,0,0-3.639-2.647h-3.806a3.97,3.97,0,0,0,0,7.941h3.806a3.933,3.933,0,0,0,3.639-2.647h17.873a5.861,5.861,0,0,0,5.79-5.79v-8.272a11.738,11.738,0,0,0,1.655-1.324,8.492,8.492,0,0,0,2.647-6.617v-.664a9.45,9.45,0,0,0-4.466-7.941,36.145,36.145,0,0,0-4.967-17.542h18.7v58.081l-91.836,0Zm94.155,58.081V572.711h-22.835c-5.958-8.109-15.058-13.4-25.481-13.4a31.351,31.351,0,0,0-25.482,13.4H926.487v60.565H920.7v4.966l4.635,6.453h99.286l4.634-6.453v-4.966Z" transform="translate(0 0)" fill="#fff"/>
      <path id="パス_35" data-name="パス 35" d="M986.049,593.416h-19.36l-4.138,3.806v-3.806h-4.3V579.021h27.965l0,14.394Zm2.483-16.877H955.769V595.9h4.3v6.786l7.613-6.786H988.7l0-19.36Z" transform="translate(2.651 1.302)" fill="#fff"/>
      <rect id="長方形_1125" data-name="長方形 1125" width="19.36" height="2.483" transform="translate(965.038 583.303)" fill="#fff"/>
      <rect id="長方形_1126" data-name="長方形 1126" width="12.907" height="2.483" transform="translate(968.348 588.429)" fill="#fff"/>
    </g>
  </g>
</svg>
