<svg xmlns="http://www.w3.org/2000/svg" width="200" height="200" viewBox="0 0 200 200">
  <g id="グループ化_353" data-name="グループ化 353" transform="translate(-220 -982)">
    <circle id="楕円形_18" data-name="楕円形 18" cx="100" cy="100" r="100" transform="translate(220 982)" fill="#06bcf0"/>
    <g id="グループ化_53" data-name="グループ化 53" transform="translate(-340.844 486.383)">
      <path id="パス_24" data-name="パス 24" d="M659.538,633.966a140.8,140.8,0,0,1-25.457-2.108l3.566-2.758-1.458-1.948-6.65,5.192,5.188,6.649,1.948-1.457-2.434-3.08a155.047,155.047,0,0,0,25.3,2.108,158.527,158.527,0,0,0,23.839-1.783l-.325-2.6a153.741,153.741,0,0,1-23.515,1.787Z" transform="translate(1.172 4.298)" fill="#fff"/>
      <path id="パス_25" data-name="パス 25" d="M692.789,618.239l-2.758-21.892-1.3.16-1.3-.16-2.758,21.892h-2.269l.972-34.215h-2.433l-.326,9.243h-1.136V577.7a5.08,5.08,0,0,1,4.376-5.027l3.08,5.838h3.244l3.08-5.838a5.075,5.075,0,0,1,4.376,5.027v15.568h-1.136l-.325-9.243h-2.434l1.309,34.215Zm17.351,3.89c0-4.376-4.376-8.272-12.809-11.512l-.486-15.242h3.566V577.534a7.441,7.441,0,0,0-7.46-7.461h-.65l-3.08,5.838-.647,0-3.08-5.838h-.65a7.44,7.44,0,0,0-7.46,7.46v18h3.566l-.812,25.137,6.814,0,1.783-14.6,1.782,14.6h6.975l-.16-7.3c6.484,2.594,10.215,5.838,10.215,8.758,0,4.541-8.271,9.243-21.081,12l1.783-2.92-2.108-1.3-3.891,6.324,6.324,3.89,1.3-2.108-2.758-1.782c14.6-2.92,23.029-8.112,23.029-14.11Z" transform="translate(3.758 1.214)" fill="#fff"/>
      <path id="パス_26" data-name="パス 26" d="M646.585,590.213V569.943a6.866,6.866,0,0,1,6.164-6.81l4.056,7.461h3.73l4.056-7.461a6.866,6.866,0,0,1,6.163,6.81v20.269h-2.108l-.325-12.163h-2.434l1.3,44.43h-3.73l-3.41-28.537-1.3.16-1.3-.16-3.566,28.541h-3.73l1.3-44.43h-2.434l-.325,12.163Zm1.3,34.705h8.272l2.594-21.245,2.593,21.241h8.272l-.972-32.271h4.542v-22.7a9.412,9.412,0,0,0-9.4-9.4h-.65l-4.056,7.622h-.811l-4.056-7.622h-.65a9.411,9.411,0,0,0-9.4,9.4v22.7h4.541Z" transform="translate(1.962 0.698)" fill="#fff"/>
      <path id="パス_27" data-name="パス 27" d="M658.324,550.047a3.89,3.89,0,1,1-3.89,3.89A3.944,3.944,0,0,1,658.324,550.047Zm0,10.219A6.324,6.324,0,1,0,652,553.941,6.233,6.233,0,0,0,658.324,560.266Z" transform="translate(2.386)" fill="#fff"/>
      <path id="パス_28" data-name="パス 28" d="M688.418,562.508a2.758,2.758,0,1,1-2.758,2.758A2.739,2.739,0,0,1,688.418,562.508Zm0,7.946a5.188,5.188,0,1,0-5.188-5.188A5.334,5.334,0,0,0,688.418,570.454Z" transform="translate(4.074 0.673)" fill="#fff"/>
      <path id="パス_29" data-name="パス 29" d="M619.685,593.1V577.534a5.081,5.081,0,0,1,4.376-5.028l3.08,5.839h3.244l3.08-5.839a5.077,5.077,0,0,1,4.376,5.028V593.1h-1.136l-.325-9.243h-2.434l.972,34.215h-2.268l-2.76-21.893-1.3.161-1.3-.161-2.758,21.893-1.935,0,.972-34.215h-2.433l-.326,9.244Zm7.456,27.569,1.782-14.6,1.783,14.6h6.975l-.812-25.137h3.57v-18a7.44,7.44,0,0,0-7.461-7.461h-.65l-3.24,5.843h-.326l-3.08-5.838h-.65a7.44,7.44,0,0,0-7.46,7.46v18h3.566l-.486,15.242c-8.272,3.08-12.809,7.135-12.809,11.512,0,5.674,7.46,10.7,20.921,13.945l.65-2.434c-11.837-2.919-19.133-7.3-19.133-11.512,0-3.08,3.73-6.163,10.215-8.757l-.16,7.3h6.806Z" transform="translate(0 1.214)" fill="#fff"/>
      <path id="パス_30" data-name="パス 30" d="M628.114,562.508a2.758,2.758,0,1,1-2.758,2.758A2.557,2.557,0,0,1,628.114,562.508Zm0,7.946a5.188,5.188,0,1,0-5.188-5.188A5.12,5.12,0,0,0,628.114,570.454Z" transform="translate(0.815 0.673)" fill="#fff"/>
    </g>
  </g>
</svg>
